<?xml version="1.0" encoding="utf-8" ?>
<svg baseProfile="full" height="300mm" version="1.1" viewBox="0,0,200,300" width="200mm" xmlns="http://www.w3.org/2000/svg" xmlns:ev="http://www.w3.org/2001/xml-events" xmlns:xlink="http://www.w3.org/1999/xlink"><defs /><rect fill="#222222" height="300" width="200" x="0" y="0" /><text fill="#FFFFFF" style="font-size:12px; font-family:Arial; font-weight:bold;" x="10" y="20">Over 10km Workouts</text><text fill="#FFFFFF" style="font-size:4px; font-family:Arial" x="10" y="280">ATHLETE</text><text fill="#FFFFFF" style="font-size:9px; font-family:Arial" x="10" y="290">TangUltra</text><text fill="#FFFFFF" style="font-size:4px; font-family:Arial" x="120" y="280">STATISTICS</text><text fill="#FFFFFF" style="font-size:3px; font-family:Arial" x="120" y="285">Number: 8</text><text fill="#FFFFFF" style="font-size:3px; font-family:Arial" x="120" y="290">Weekly: 1.1</text><text fill="#FFFFFF" style="font-size:3px; font-family:Arial" x="141" y="285">Total: 120.2 km</text><text fill="#FFFFFF" style="font-size:3px; font-family:Arial" x="141" y="290">Avg: 15.0 km</text><text fill="#FFFFFF" style="font-size:3px; font-family:Arial" x="167" y="285">Min: 10.1 km</text><text fill="#FFFFFF" style="font-size:3px; font-family:Arial" x="167" y="290">Max: 22.2 km</text><polyline fill="none" points="51.98006092943251,87.0 51.9097966424888,86.84619386852864 51.898085927939974,86.78467135193205 51.93321807141183,86.5232002484554 52.01519307290437,86.10792125578155 52.15572164685,85.53883252247033 52.20256450487068,85.23121568807983 52.237696648342535,84.7236459124324 52.03861450194381,83.93921499930002 51.76926806848496,83.2624462968015 51.464789491612464,82.67796067400195 51.136889485642314,82.21652232438646 50.78556805080734,81.3551652336755 50.65675019141054,81.10906189100933 50.48108947399305,81.01677298660798 50.00095017958665,80.4476562576092 49.50910017074784,79.92468136890238 49.19291087932652,79.55552103280206 49.087514448852744,79.52475761198002 48.771325157547835,79.01715984875773 48.572243011090904,78.67875995673239 48.26776443421841,78.44803212323313 48.138946574763395,78.38650461401994 48.10381443123333,78.38650461401994 48.068682287761476,78.47879586404451 47.799335854360834,78.46341399478115 47.670517994847614,78.38650461401994 47.61196442245273,78.201921867083 47.47143584844889,78.10963037017791 47.319196559954435,78.3249770683251 46.9912965541007,78.64799627531465 46.944453696138225,78.75566912030627 46.803925122192595,78.83257822666928 46.53457868879195,79.15559584928269 46.23010011186125,79.60166614681657 46.1364143959363,79.89391805789637 46.0193072509137,80.047734521635 45.94904296391178,80.18616914362792 46.031017965462524,80.17078752812813 45.91391082049813,80.2630771868935 45.738250103080645,80.5553272301986 45.761671532003675,80.52456410659943 45.44548224064056,80.90910249413719 45.328375095676165,81.17058778150385 45.047317947784904,81.49359810675378 45.07073937676614,81.64741219299322 45.02389651874546,81.69355637425906 44.88336794485804,81.97042102997511 44.67257508391049,82.1857596945847 44.485203651944175,82.38571662481263 44.356385792489164,82.49338558105956 43.993353643105365,82.908679077329 43.852825069159735,82.98558509746363 43.48979291977594,83.10863461082772 43.220446486375295,83.03172868213733 43.19702505739406,82.86253543783823 43.05649648344843,82.64719818141748 42.98623219644651,82.32419145664608 42.96281076746527,82.1857596945847 43.04478576895781,81.90889561495715 43.18531434290344,81.69355637425906 43.31413220230024,81.13982484085864 43.37268577481154,80.89372098609601 43.349264345830306,80.61685344992293 43.19702505739406,80.70914271093352 43.220446486375295,80.77066883922089 43.1618929139222,80.73990577965014 43.208735771884676,80.77066883922089 43.39610720385099,80.64761654604081 43.4663714907947,80.40151152079488 43.61861077923095,80.15540591030003 43.66545363725163,79.89391805789637 43.75913935317658,79.72471968362515 43.72400720970472,79.37094037089264 43.81769292568788,78.95563267794932 43.58347863575909,78.40188649476477 43.513214348757174,78.09424844601017 43.079917912429664,77.50973363384401 42.83399290806847,77.23285704423324 42.31872147019021,76.8636871056733 41.89713574835332,76.5560444842049 41.241335736587644,76.12534327764297 40.819750014692545,75.75616938815801 40.28105714783305,75.40237650822382 40.035132143471856,75.51005273019837 39.695521423069295,75.6638757100227 39.5784142781049,75.71002255937492 39.496439276612364,75.52543503844936 39.30906784464605,75.18702372823464 39.36762141715735,74.6332573789332 39.496439276612364,74.11025310579134 39.402753560687415,73.77183716760919 39.484728562121745,73.57186359298794 39.66038927953923,73.57186359298794 39.35591070272494,73.51033318458212 39.344199988176115,73.74107202741288 39.344199988176115,73.74107202741288 39.67209999402985,73.64877655202145 39.53157142014243,73.41803750341205 39.44959641864989,73.18729794029059 39.402753560687415,73.23344589405315 39.30906784464605,73.51033318458212 39.332489273685496,74.07948806627246 39.273935701174196,74.94090571662673 39.22709284326993,75.20240608455788 39.03972141130362,75.04858241872716 38.840639264846686,74.87937612225505 38.46589640097227,74.6332573789332 38.33707854151726,74.5563451516282 38.17312853853218,74.6178749380415 38.03259996464476,74.67940468789311 37.90378210518975,74.37175557277806 38.126285680627916,73.9410452750526 38.360499970498495,73.67954171963356 38.04431067913538,74.0179579596952 37.96233567764284,74.15640064800391 37.938914248603396,74.35637309301819 37.96233567764284,74.44866793728579 38.02088925015414,74.54096269926958 38.11457496607909,74.6024924948797 38.419053543009795,74.69478711965348 38.95774640981108,75.03320003955014 39.23880355770234,75.17164136969222 39.30906784464605,74.37175557277806 39.3910428461968,73.66415913699893 39.53157142014243,72.91040978537785 39.56670356361428,72.81811356908293 38.73524283437291,72.4181623473196 38.68839997641044,72.1105065094307 38.81721783586545,71.94129540868744 39.20367141417228,71.9874439181367 39.73065356654115,72.0182095796772 39.906314284016844,71.84899832800875 40.08197500143433,71.8028497568157 40.187371431908105,71.64902103749773 40.45671786530875,71.40289461098291 40.64408929721685,71.27983117815165 40.98370001761941,70.75680995589937 40.90172501618508,70.63374575471971 40.67922144068871,70.49529835345311 40.57382501021493,70.37223384124809 40.409875007288065,70.07995503817074 39.96486785646994,69.67999323295953 39.695521423069295,69.48001175064564 39.777496424503624,69.26464664508967 40.29276786232367,69.17234717696556 40.187371431908105,68.84929839003598 40.22250357537996,68.43394846777664 40.37474286381621,67.91091286065057 40.29276786232367,67.34172404885612 40.42158572183689,67.03405311719689 40.56211429578252,66.97251882108685 40.538692866801284,66.86483371482609 40.49185000883881,66.91098448837147 40.50356072327122,67.03405311719689 40.7260642987676,66.92636807499366 40.98370001761941,66.97251882108685 41.33502145251259,67.12635449277877 41.534103598911315,67.11097093587159 41.662921458424535,67.08020381525421 41.2179143075482,67.04943668549095 40.90172501618508,66.97251882108685 40.64408929721685,66.94175165929482 40.316189291363116,66.94175165929482 40.128817859396804,66.6648467916093 40.117107144906186,66.88021730828768 40.16395000292687,67.03405311719689 40.37474286381621,67.03405311719689 40.70264286972815,66.95713524131861 41.159360735095106,67.01866954663274 41.34673216700321,67.08020381525421 41.69805360189639,67.01866954663274 41.662921458424535,66.61869590828428 41.85029289033264,65.86489523331693 41.90884646278573,65.69567391889723 41.943978606315795,65.31107899316703 41.89713574835332,64.63418845176056 41.81516074686078,64.48034907480178 41.662921458424535,64.49573302276258 41.7097643163288,64.32650946907233 41.7097643163288,64.15728563859011 41.662921458424535,64.06498161444324 41.56923574244138,63.97267750790343 41.56923574244138,63.80345309872064 41.49897145543946,63.57269209471269 41.46383931202581,63.46500345005916 41.674632172856946,63.26500995546667 41.68634288740577,63.003479417733615 41.733185745426454,63.234241691250645 41.56923574244138,63.280394084140426 41.93226789182518,63.172705135257274 42.084507180261426,63.18808927768987 41.92055717733456,62.80348503102141 42.06108575128019,62.81886922838021 41.97911074984586,62.69579558579426 41.68634288740577,62.44964786143828 41.32331073802197,62.32657377969008 41.00712144665886,62.172730971549754 40.76119644223945,62.172730971549754 40.29276786232367,62.511184847440745 40.187371431908105,62.403495097896666 40.17566071735928,62.24965240421443 39.96486785646994,62.12657808455697 39.824339282524306,62.203499551455025 39.70723213755991,62.44964786143828 39.414464275178034,62.63425870962965 38.9109035517904,62.772716629529896 38.54787140246481,62.788100831421616 38.23168211104348,62.95732690128352 38.04431067913538,63.0342477505983 37.77496424567653,63.04963191358547 37.41193209635094,63.341930576076265 37.294824951386545,63.44961934883759 36.720999941113405,63.72653282125975 36.170596359763294,63.695764694210084 35.54992849146947,63.311162334699475 35.315714201540686,63.14193684360362 35.14005348406499,62.81886922838021 35.29229277255945,62.14196238250588 35.4445320609957,61.91119767283817 35.65532492194325,61.7881229505947 35.830985639302526,61.526588679655106 35.84269635385135,61.40351349989214 35.70216777990572,61.2035160204905 35.50308563344879,61.034287082075025 35.50308563344879,60.603521262688446 35.71387849439634,60.4496758925161 35.901249926304445,60.2958302936604 36.112042787251994,59.86506139965786 36.0534892147989,59.57275291445694 36.19401778874453,59.40352130866813 36.521917794656474,59.203519963157305 36.86152851500083,58.84967048170074 36.943503516493365,58.43428041576408 37.10745351942023,58.4804349498736 37.24798209336586,58.38812586101267 37.31824638036778,58.111198100326874 37.575882099277806,58.06504340149695 37.529039241257124,57.8034997190407 37.42364281084156,57.18810021110403 37.493907097843476,57.203485243429895 37.54074995574774,57.01886470471072 37.09574280498782,56.69577796912199 36.9669249454746,56.66500775121676 36.744421370036434,56.63423752413655 36.56876065261895,56.418845678461366 36.4165213641827,56.326534750143765 35.72558920882875,56.21883856306522 35.397689202975016,56.080371872041724 34.87070705066435,55.95729021332954 34.42569989984622,55.84959364185488 34.2266177534475,55.64958542595559 33.781610602512956,55.5880443586866 33.53568559815176,55.480347402830375 33.160942734219134,55.32649441425019 32.69251415441977,55.234182511267136 32.34119271952659,54.84954869568173 32.1655320021091,54.63415313427686 31.943028426670935,54.03412027713057 31.919606997747906,54.04950577846466 31.931317712180316,53.92642170363251 31.84934271068778,53.77256640410633 31.83763199619716,53.35715595251531 31.825921281706542,52.78788706893829 31.884474854217842,52.63403007620218 31.755656994704623,52.34170115956658 31.533153419324663,52.23400082417356 31.509731990343425,52.21861505279958 31.603417706268374,51.86474168010318 31.661971278721467,51.603182322309294 31.70881413674215,50.972359973791754 31.62683913524961,50.541552256952855 31.790789138234686,50.23383136079792 31.83763199619716,50.23383136079792 32.1655320021091,50.26460349165427 32.39974629197968,49.710703736644064 32.42316772101913,49.710703736644064 32.34119271952659,49.603000662100385 32.13039985863725,49.40298036902095 32.1655320021091,49.61838682245434 32.1655320021091,49.67993144110369 31.989871284691617,49.233732126689574 31.661971278721467,48.80291716931242 31.544864133757073,48.89523481117794 31.380914130888414,48.72598573812138 31.263806985865813,48.525963749292714 31.06472483946709,48.064373068154964 30.490899829135742,48.18746411785105 29.95220696227625,48.23362322375033 29.79996767389821,48.2951686661836 29.64772838546196,48.35671407202608 29.401803381042555,48.341327724010625 29.038771231658757,48.525963749292714 28.80455694172997,48.541350069863256 28.640606938803103,48.341327724010625 28.722581940237433,48.633667945163324 28.546921222819947,48.787530887631874 28.055071213981137,48.41825944126322 27.94967478356557,48.310555021089385 27.83256763854297,48.15669136916404 27.902831925544888,48.17207774463168 27.94967478356557,47.94128187204478 27.867699782073032,47.741258365909744 27.855989067582414,47.49507505814108 27.762303351599257,46.941160473601485 27.855989067582414,46.47956272074953 27.96138549799798,46.18721641188313 28.32441764738178,46.04873629299982 28.839689085260034,45.84870912732731 29.179299805604387,45.86409584611829 29.378381952061318,45.81793568287685 29.589174813008867,45.46404041389178 29.65943909995258,45.294785726844566 29.846810531860683,44.83318062716717 29.835099817370065,44.5562165786323 29.483778382535093,43.64838477601734 29.214431949076243,43.35603046554752 29.01534980267752,43.0636753287763 28.769424798258115,42.755932186912105 28.535210508329328,42.09428133143956 28.18388907343615,41.43262624363706 28.11362478643423,41.15565308974328 27.973096212546807,40.9248415615948 28.066781928471755,40.74019196826703 28.16046764445491,40.75557944698812 28.207310502475593,40.69402951844677 28.16046764445491,40.63247955326369 28.078492642962374,40.40166685768054 28.137046215473674,40.06314063919126 28.055071213981137,39.770776195255166 28.148756929964293,39.47841092485032 28.230731931398623,39.324534134844725 28.265864074928686,38.84751463099383 28.30099621840054,38.524371136496484 28.476656935876235,38.06273582165886 28.921664086636156,37.662650215555914 29.214431949076243,37.3856669662855 29.261274807096925,37.24717506348679 29.612596241990104,36.385443501669215 29.764835530426353,35.96996321908955 30.02247124927817,35.09283269710431 30.127867679751944,34.78506583873968 30.151289108849596,34.52346328904241 30.127867679751944,34.09258705890534 29.963917676825076,33.723263147279795 29.74141410138691,33.52321214445692 29.495489096967503,33.21544061531313 29.413514095533174,33.076943128413404 29.272985521587543,33.10772036374692 28.570342651801184,33.246217809464724 28.394681934383698,33.20005201483582 28.277574789419305,33.0 28.0316497849999,33.09233174724068 28.066781928471755,33.20005201483582 28.008228355960455,33.46165791188105 28.043360499548726,33.61554342461022 28.219021216908004,33.69248609508941 28.46494622132741,33.61554342461022 28.909953372203745,33.86175976868253 28.968506944656838,34.15414091601997 29.120746233093087,34.15414091601997 29.39009266649373,34.16952937453607 29.413514095533174,34.36957912721118 29.28469623607816,34.815842565731145 29.132456947641913,35.231327484580106 28.898242657713126,35.35443380666402 29.0036390881869,35.50831650318287 28.933374801184982,35.66219897074916 28.827978370711207,35.90841044268018 28.535210508329328,36.10845683205116 28.418103363306727,36.10845683205116 28.699160511256196,35.90841044268018 29.120746233093087,35.70836366637377 29.36667123751249,35.38521036424936" stroke="#4dd2ff" stroke-linecap="round" stroke-linejoin="round" stroke-width="0.5"><title>2024-12-07 10.1km</title><desc>9223370303299603407</desc></polyline><polyline fill="none" points="134.26519052527146,69.16468557705957 134.73789907316677,69.09195553376048 134.73789907316677,68.43738321811543 134.73789907316677,67.92826902063825 134.69618949538562,67.21914217961603 134.54325437697116,66.65547435258486 134.59886714728782,66.05543803468754 134.59886714728782,64.96445544851304 134.5849639546941,64.10984569658467 134.64057672501076,63.00066252636316 134.59886714728782,61.92783654775849 134.5849639546941,61.16412424493319 134.4876416065963,60.03673079210421 134.51544799178373,59.78215665375319 134.62667353253346,59.81852441990486 135.11328527290607,59.83670829899347 135.40525231719948,59.345742625169805 135.39134912460577,58.927511068402964 135.39134912460577,58.709302737806865 135.34963954688283,57.963754701588186 135.3218331616954,57.16364936698665 135.3218331616954,56.363538852659985 135.3218331616954,55.65434565725445 135.54428424302023,55.472500592637516 135.72502574668033,55.30883980573708 136.33676622033818,55.30883980573708 136.78166838310426,55.03607134601043 137.35169927915558,54.52690194371826 138.08856848609867,54.34505522020481 138.8532440782874,54.30868584338168 139.96549948508618,54.1268387987875 140.3547888774774,54.054099906068586 141.21678681770572,53.83588297093229 142.3012358393753,53.56311126022047 142.52368692070013,53.47218722281832 143.5247167868074,53.21759956233291 144.5535530381021,52.94482648698613 144.95674562308704,52.83571708826639 145.6658084449009,52.672052809546585 146.63903192587895,52.47201839679474 147.73738414008403,52.27198366026278 148.29351184348343,52.18105867293343 148.9330587023287,52.017393527319655 149.62821833160706,51.9446533929804 150.71266735327663,51.90828330975637 151.8944387229858,51.83554311119951 152.75643666321412,51.799172995881236 153.46549948508618,51.74461780284037 153.6740473738755,51.780987934231234 154.29969104018528,51.74461780284037 155.46755921730073,51.69006258569425 156.5520082389121,51.67187750796438 157.2888774459716,51.61732225873129 158.01184346037917,51.61732225873129 159.11019567458425,51.59913717030577 160.25025746657047,51.54458188892022 161.3069001029362,51.49002658350946 162.36354273941834,51.47184147630469 163.58702368696686,51.39910102092108 164.60195674560964,51.380915900350374 165.297116374888,51.344545651212684 166.5066941297846,51.289990257500904 167.56333676620852,51.25361998160224 168.60607621009694,51.19906454768352 169.579299691075,51.16269424508937 170.17713697219733,51.126323931741354 170.64984552009264,51.108138771036465 171.69258496392285,51.089953607690404 172.9577754891361,51.03539810156508 173.97270854795352,50.99902775076043 175.00154479919001,50.88991663411434 175.69670442841016,50.926287017035065 176.72554067970486,50.871731438615825 177.43460350157693,50.853546240476135 177.6987641606829,50.835361039637064 178.26879505667603,50.81717583615682 178.894438723044,50.798990629999025 179.29763130791252,50.76262020962895 180.3820803295821,50.76262020962895 181.14675592177082,50.744434995438496 181.75849639548687,50.708064558952174 182.78733264672337,50.65350888425746 183.48249227605993,50.61713842103927 183.80226570548257,50.65350888425746 184.41400617925683,50.96265738924558 185.02574665297288,51.61732225873129 185.234294541704,52.071948599928874 185.37332646758296,53.1994147093792 185.56797116372036,54.27231645587017 185.6930998970056,55.327024348356645 185.74871266738046,55.745268089231104 185.8877445932012,56.76359475727804 186.04067971161567,57.81828138967103 186.17971163755283,58.236516699973436 186.1519052523072,58.436541782873974 186.27703398553422,59.436662341540796 186.3604531410965,60.16401766466879 186.45777548919432,60.673163844054216 186.51338825951098,60.9277361472341 186.6385169927962,62.00057080666011 186.74974253348773,62.67336067252472 186.77754891861696,63.00066252636316 186.8053553038044,63.52798035669548 186.45777548919432,64.50987652884214 185.5123583934037,65.18265273614088 184.42790937179234,65.27356815894018 183.34346035012277,65.34630044902588 182.8985581874731,65.38266657807253 183.8439752832055,65.34630044902588 184.71987641602755,65.38266657807253 185.02574665297288,65.30993430930539 185.66529351187637,65.2372019978502 186.55509783729212,64.45532694616122 186.76364572608145,64.12802894430934 186.87487126671476,63.400696948418044 186.76364572608145,62.23695685251005 186.59680741501506,61.509613728369004 186.9165808444959,61.41869553689321 186.97219361487078,61.18230792605755 186.902677651844,61.436879180510005 186.56900102988584,61.27322629135597 186.49948506697547,60.61861256798147 186.3604531410965,59.58213374863408 186.22142121527577,58.8365909774875 186.12409886711976,58.38198951965751 186.09629248199053,57.78191303492349 185.91555097833043,56.70904175563919 185.8877445932012,56.23624806597945 185.83213182288455,55.8180059866354 185.81822863029083,55.581607663523755 185.62358393415343,54.52690194371826 185.48455200821627,53.39944794474286 185.35942327498924,52.781162352745014 185.27600411948515,52.0537635783694 184.8589083419065,51.25361998160224 184.16374871274456,50.708064558952174 183.468589083408,50.52621221623849 182.5370751802111,50.5989531854575 181.6889804325765,50.5989531854575 180.43769309989875,50.68987933673634 179.53398558183108,50.67169411185023 178.85272914520465,50.68987933673634 178.57466529350495,50.726249778526835 178.00463439751184,50.744434995438496 177.2260556127876,50.76262020962895 176.1138002059888,50.81717583615682 175.37693099898752,50.853546240476135 174.2368692070013,50.853546240476135 173.54170957778115,50.926287017035065 173.2219361483585,50.94447220445727 172.3877445932594,50.926287017035065 171.15036045317538,51.017212927479704 170.63594232749892,51.07176844163769 169.9685890834662,51.089953607690404 168.96755921730073,51.14450908973231 168.14727085485356,51.180879397717945 167.549433573673,51.180879397717945 166.63182286306983,51.21724969500792 165.53347064886475,51.27180512090854 164.49073120497633,51.30817539138661 164.22657054581214,51.25361998160224 163.1560247168527,51.36273077714577 162.46086508757435,51.39910102092108 161.45983522140887,51.47184147630469 160.7368692070013,51.49002658350946 160.1807415036601,51.47184147630469 159.8053553038044,51.47184147630469 158.92945417092415,51.49002658350946 158.62358393409522,51.54458188892022 157.9562306900625,51.52639678980631 157.3027806385653,51.56276698536385 157.05252317205304,51.58095207918814 155.94026776525425,51.59913717030577 155.1616889804136,51.653692427571514 154.28578784759156,51.67187750796438 154.0355303810793,51.69006258569425 153.6740473738755,51.74461780284037 152.57569515967043,51.762802869896404 151.47734294540714,51.81735805491917 150.5875386199914,51.81735805491917 150.29557157569798,51.799172995881236 149.2806385170552,51.90828330975637 148.3630278063938,52.126503648541984 148.00154479919001,52.18105867293343 147.4315139031969,52.2174286759182 147.01441812567646,52.326538620487554 146.3192584964563,52.47201839679474 145.49897013389273,52.61749800181133 144.34500514931278,52.908456698060036 143.74716786813224,53.072120663753594 142.91297631303314,53.253969260229496 142.17610710609006,53.45400240734307 141.41143151390133,53.67222001677874 140.77188465499785,53.89043724084331 139.82646755920723,54.108654079638654 139.31204943353077,54.16320822915441 138.2136972193839,54.29050115097925 137.26828012359329,54.43597861538001 136.76776519056875,54.926963793514005 136.37847579811933,55.30883980573708 135.6972193614929,55.490685111151834 135.39134912460577,55.61797666573693 135.36354273947654,56.19987924565066 135.36354273947654,56.818147734884406 135.36354273947654,57.43641313117405 135.21060762106208,57.56370268177125 135.18280123587465,58.30925313120679 135.19670442841016,59.309374719850894 135.22451081353938,59.74578887687676 134.93254376936238,59.65486938790855 134.59886714728782,59.854892175375426 134.55715756950667,60.61861256798147 134.61277033988154,61.709633514146844 134.59886714728782,62.54607638414018 134.65447991766268,63.346146876247076 134.65447991766268,64.21894514288579 134.69618949538562,65.18265273614088 134.6822863027919,65.7099612575912 134.6683831101982,66.74638869205955 134.79351184348343,67.76462472609273 134.83522142120637,68.72830467525637 134.8491246138001,69.11013804859249 133.90370751806768,69.31014553533896 133.30587023688713,69.45560532238596 133.097322348156,69.43742285837652 133.0,69.21923308148689 133.13903192587895,69.05559049601288 133.43099897017237,69.01922544764966" stroke="#4dd2ff" stroke-linecap="round" stroke-linejoin="round" stroke-width="0.5"><title>2024-06-15 10.5km</title><desc>9223370318393053407</desc></polyline><polyline fill="none" points="66.18341463420074,119.45919238135684 66.23609756096266,119.1927198758276 66.31512195122195,119.44253786662011 66.18341463420074,119.70900983220054 65.98585365852341,119.94217232966184 65.93317073164508,120.32522404687916 66.17024390242295,120.52507664428413 66.45999999996275,120.67496587977803 66.74975609761896,120.75823759851482 66.7102439024602,121.34113805510424 66.288780487841,122.8400122899402 65.97268292680383,123.63940443167667 65.93317073164508,124.17232964697905 65.57756097562378,125.85435975014116 65.36682926828507,126.92018873155757 65.26146341458661,127.43644633254007 64.94536585372407,128.71875424771133 64.68195121956524,129.60137402571854 64.5634146341472,129.967742644214 64.2736585366074,130.51729353101837 63.9839024390094,130.68382361922704 63.28585365856998,130.58390559331747 62.85121951223118,130.46733446066355 62.31121951219393,130.40072233545652 61.95560975605622,130.35076321787346 61.455121951235924,130.2508449220768 60.440975609759334,130.1176204016374 60.15121951216133,129.86782403801044 59.87463414639933,129.73459910386737 58.92634146340424,129.45149564078747 57.62243902444607,129.25165751086024 56.22634146345081,129.13508511883992 54.57999999995809,129.4848019642959 53.789756097598,129.36822979267163 53.24975609756075,129.30161707371735 52.80195121950237,129.31827025680104 51.60341463412624,129.26831070071785 51.28731707314728,129.45149564078747 50.760487804887816,129.41818930829322 50.23365853657015,129.3515766162891 49.52243902441114,129.3515766162891 49.27219512197189,129.33492343764374 48.77170731709339,129.36822979267163 48.36341463413555,129.31827025680104 47.79707317077555,129.4848019642959 46.69073170732008,129.4848019642959 45.72926829272183,129.30161707371735 44.75463414634578,129.23500431872526 43.27951219514944,128.70210098361713 42.8053658537101,128.41899515012483 41.88341463415418,128.2857686506104 41.382926829275675,128.102581978761 40.52682926831767,127.93604840456828 39.81560975610046,127.66959421804495 38.94634146342287,127.41979289529263 38.05073170730611,127.00345623272733 36.73365853657015,126.72034649929992 35.89073170727352,126.53715750185802 35.52195121947443,126.40392896917183 34.36292682925705,126.07085700763128 33.50682926829904,125.78774513288954 32.62439024390187,125.50463260818651 31.22829268296482,125.1882119583388 30.727804878086317,125.1215969812256 30.095609756128397,124.90509805705369 28.73902439029189,124.52206056772411 28.014634146355093,124.30556059088849 27.448292682878673,124.12236800586834 26.829268292698544,123.755982019371 25.749268292682245,123.32297899534024 24.22146341460757,122.92328254651511 22.640975609770976,122.64016344473202 22.114146341511514,122.47362249292928 21.798048780532554,122.34038956955192 20.968292682955507,122.10723160717316 20.270243902516086,121.79080223874189 19.86195121955825,121.69087700631644 18.94000000000233,121.4244093239904 17.83365853660507,121.35779231336346 16.18731707317056,121.09132391119056 14.646341463376302,120.84150926100847 14.330243902513757,121.00805241734633 13.869268292677589,121.65756857755332 13.59268292679917,122.64016344473202 13.540000000037253,123.07316886662738 13.35560975613771,123.65605837952171 13.118536585418042,124.30556059088849 13.065853658539709,124.65529113376397 13.408292682899628,124.93840560859098 13.684878048836254,125.03832820924436 13.869268292677589,125.52128630409425 13.98780487809563,125.65451579049841 14.422439024376217,125.73778414636763 14.77804878045572,125.60455474995251 14.619999999995343,125.42136409482919 14.606829268333968,124.88844427793083 14.580487804894801,125.17155821746564 15.00195121957222,126.05420338590193 14.3697560976143,125.9209743313404 14.3697560976143,125.67116946614988 14.646341463376302,125.85435975014116 13.553170731756836,125.40471038543183 13.59268292679917,125.23817316754139 13.421463414677419,124.97171315112791 13.526829268375877,124.22229126779712 13.671707317058463,123.55613465872739 13.882439024397172,122.57354709100036 14.317073170735966,121.47437205824826 14.554146341513842,120.70827457401901 14.830731707334053,119.69235535124608 14.870243902492803,119.37591978521232 15.17317073175218,118.49322680873593 15.239024390291888,118.17678816517582 15.397073170752265,116.81109628186823 15.423414634133223,115.54531956489518 15.515609756170306,115.12894280438923 15.55512195121264,114.82915066608257 15.620975609810557,113.56335360061348 15.59463414637139,113.21359159349231 15.620975609810557,112.81386237032712 15.634146341471933,111.84784473021864 15.528780487831682,111.18162125773961 15.568292682990432,110.46542700932332 15.568292682990432,109.84916351168067 15.660487804852892,109.51604682488687 16.08195121953031,109.31617638077296 16.46390243904898,109.41611164335336 17.359512195165735,109.53270268063352 17.570243902446236,109.63263776768872 17.912682926864363,109.64929360764654 18.176097561023198,109.71591694500239 18.439512195123825,109.7325727737043 18.795121951261535,109.7658844243706 19.05853658542037,109.86581932241825 19.954146341478918,109.99906572706823 20.30975609755842,110.23224658871914 20.704878048796672,110.14896776019305 21.758536585373804,110.38214833832899 22.640975609770976,110.63198418255342 23.128292682988103,110.99840917158144 23.6287804878084,111.09834307053825 24.458536585385446,111.21493251683569 24.89317073172424,111.29821062530391 25.380487804824952,111.498077856093 25.80195121950237,111.79787809463596 26.67121951217996,112.04771106988483 27.55365853657713,112.3475099718562 28.383414634212386,112.5640309476803 28.84439024387393,112.69727443611191 29.33170731709106,112.81386237032712 29.779512195149437,112.93045019429701 30.082439024408814,113.04703790799977 30.464390243927483,113.34683437987405 30.833170731726568,113.44676637513476 31.241463414626196,113.51338766032859 32.42682926834095,113.87980408532894 32.703414634102955,113.92976987712609 33.124878048780374,114.11297760698653 34.28390243899776,114.56266815334675 34.876585365855135,114.72921979129023 35.298048780474346,114.84580580397596 35.85121951223118,114.89577120427566 36.11463414633181,115.06232239220117 36.3385365853901,115.31214875225123 36.74682926834794,115.47869937773794 37.155121951247565,115.51200947583129 37.708292682946194,115.62859474829747 38.07707317074528,115.71186987543479 38.94634146342287,115.97834990419506 39.288780487840995,116.1782095477829 40.0,116.34475900331745 40.65853658539709,116.44468856866297 41.15902439021738,116.4613434883504 42.17317073169397,116.81109628186823 42.55512195121264,117.09422876897588 43.06878048781073,117.26077698711015 43.27951219514944,117.36070580998057 43.55609756096965,117.64383703494241 44.22780487808632,117.71045605221298 45.20243902440416,117.96027704636072 45.84780487808166,118.02689589267538 46.47999999998137,118.40995356022904 47.230731707357336,118.60980926216871 47.86292682925705,118.87628302752273 48.36341463413555,119.00951969419839 49.08780487807235,118.95955596108979 49.43024390243227,119.09279253780551 49.82536585367052,119.17606532511127 50.23365853657015,119.32595620057691 50.56292682926869,119.6757008680288 50.958048780448735,119.6757008680288 51.774634146364406,120.10871670077904 52.82829268288333,120.34187844235566 53.789756097598,120.72492891776346 54.36926829267759,120.89147223156033 54.83024390245555,121.02470672063646 55.13317073171493,121.15794106568501 55.686341463413555,121.29117526678601 56.05512195115443,121.3911008231371 56.33170731709106,121.60760591743747 57.543414634186774,121.82411063156178 58.08341463416582,122.0239607994663 58.76829268288566,122.27377305385744 59.46634146338329,122.44031427559821 59.96682926826179,122.62350935966242 60.42780487803975,122.62350935966242 60.98097560973838,122.93993659110129 61.23121951217763,123.02320678019169 61.85024390241597,123.35628697420907 62.37707317073364,123.48951879986271 62.745853658532724,123.58944257464464 63.694146341469605,123.97248296113685 64.11560975614702,124.03909855907114 64.94536585372407,124.40548370435863 65.26146341458661,124.33886830436677 65.51170731714228,124.28890673075512 65.60390243900474,124.30556059088849 65.63024390244391,124.55536822271824 65.28780487802578,124.63863732086611 65.57756097562378,124.50540673686191 65.53804878052324,124.45544523070566 65.66975609754445,124.38882985773671 65.7092682927032,124.62198350574909 65.999024390243,124.32221444875904 66.288780487841,123.97248296113685 66.73658536584117,122.40700604919402 66.97365853656083,121.62426013970253 66.98682926833862,121.27452099954098 66.84195121948142,121.02470672063646 66.53902439022204,120.89147223156033 66.22292682924308,120.69162022803357 66.26243902440183,120.35853283562756 66.38097560970346,119.85890005976398 66.3546341463225,119.55911942241801 65.98585365852341,119.37591978521232 66.2756097560632,119.5091559120192" stroke="#4dd2ff" stroke-linecap="round" stroke-linejoin="round" stroke-width="0.5"><title>2023-03-23 10.4km</title><desc>9223370357295491407</desc></polyline><polyline fill="none" points="187.0,115.5844843529776 186.9282339043275,115.89706075234426 186.8484937979665,116.04830692736869 186.80064973421395,116.28021713381168 186.76875369169284,116.340715330065 186.69698759599123,116.36088138457853 186.6331955109199,116.31046623807197 186.39397519195336,116.24996801731322 186.33018310691114,116.21971888855478 186.31423508567968,116.5726246281265 186.21057294742786,117.0465239968762 186.10691080923425,117.52042035722843 186.01919669224299,117.96406528730586 185.89161252212944,118.46820405303151 185.77200236267527,118.93200871064619 185.67631423511193,119.39581048679247 185.5726520968601,119.87977448548918 185.46101594800712,120.36373534685117 185.36532782041468,120.7670336681258 185.30153573537245,120.93843479496718 185.22179562906967,121.43247113524558 185.11015948021668,121.87609281828918 184.94270525695174,122.33987630485353 184.7353809805063,122.78349259615061 184.50413467217004,123.21702415235632 184.24896633194294,123.63038910565956 184.01772002363577,123.96309582039248 183.69875959836645,124.33612885871116 183.40372120498796,124.6688324285933 183.0608387477987,125.01161637422047 182.73390431187,125.28382603349746 182.60632014178555,125.42497139205807 182.5505020673154,125.50562576287484 182.43089190786122,125.98955015809042 182.31925575900823,126.48355307649035 182.2235676314449,126.91706314902694 182.12787950385245,127.35057070467155 182.02421736562974,127.83448314280395 181.90460720617557,128.35871807840158 181.79297105726437,128.80229861073167 181.68133490844048,129.3265267517054 181.5617247489863,129.84067000741197 181.42616656824248,130.32456630838715 181.37034849380143,130.59675659966888 181.3464264619106,130.677405384311 181.26668635560782,130.687486476294 180.87595983460778,130.6370810028966 180.81216774956556,130.687486476294 180.3576491435524,130.59675659966888 179.91110454811133,130.516107727919 179.45658594212728,130.44553989368433 178.9701712935348,130.3648908585892 178.50767867689137,130.2842417363936 178.06910809213878,130.2035925270975 177.63851151798735,130.12294323073002 177.20791494386503,130.032212668164 176.69757826346904,129.93140080267767 176.21913762553595,129.84067000741197 175.73272297694348,129.77010153485753 175.29415239219088,129.6793705435557 174.79178972242516,129.59872068099503 174.34524512698408,129.53823322689277 173.89072652100003,129.4575832118644 173.44418192558805,129.3769331097501 172.99763733017608,129.29628292054258 172.55906674542348,129.21563264418364 172.12049616067088,129.13498228072422 171.65800354399835,129.05433183020068 171.21943295927485,128.99384393510263 170.7250443000521,128.90311200060387 170.2545776727493,128.82246129962732 169.75221500292537,128.73172915686155 169.28174837568076,128.6510782707628 168.8352037802979,128.57042729756358 168.37271116362535,128.4897762372275 167.88629651506199,128.39904369021679 167.39988186652772,128.227659689539 166.90549320736318,128.08651962892327 166.4190785587707,127.965542221762 165.94063792086672,127.83448314280395 165.45422327230335,127.71350532727229 164.98375664500054,127.59252731576271 164.55316007087822,127.47154910820973 164.0826934436045,127.37073378557398 163.59627879504114,127.23967366258876 163.10986414650688,127.11869488334196 162.6234494979435,127.00779749684443 162.1529828706698,126.87673673682002 161.6426461901865,126.76583899099205 161.22002362672356,126.65494108040002 160.7256349675008,126.51379804693715 160.23124630833627,126.39281809160457 160.04784406378167,126.33232804041472 159.95215593621833,126.32224636046885 159.47371529828524,126.19118439710292 159.2743650324701,126.15085759288922 158.7640283520741,126.00971360650874 158.36532782041468,125.9088963100221 158.173951565288,125.84840586681094 158.1021854695864,125.84840586681094 157.63969285294297,125.70726130872208 157.13733018311905,125.5862800465402 156.6828115770768,125.45521679130616 156.15652687533293,125.32415330600634 155.63821618430666,125.18300775687385 155.12787950385245,125.0821893441389 154.61754282339825,124.971288932873 154.1231541642046,124.87047023426567 153.62876550501096,124.7595695085256 153.13437684584642,124.6688324285933 152.6320141759934,124.56801332154282 152.13762551682885,124.47727600880899 151.65918487889576,124.38653858580801 151.212640283542,124.2958010525399 151.03721204961766,124.24539126414311 150.56674542231485,124.1748175032626 150.1839929120033,124.09416169489123 149.69757826343994,124.00342380626535 149.2031896042754,123.89252179268078 148.7646190194937,123.7816196143176 148.30212640285026,123.69088134589401 147.83963378617773,123.60014296715235 147.6642055522825,123.55981476344459 147.58446544595063,123.55981476344459 147.1219728293072,123.44891209089838 146.6435321913741,123.36825549830246 146.15711754283984,123.2875988185915 145.71854695808725,123.19685994974861 145.39958653281792,123.13636730925646 145.31984642648604,123.13636730925646 144.90519787365338,123.04562825660105 144.7457176609605,123.03554613282904 144.66597755465773,123.01538188122504 144.61813349084696,122.96497122834262 144.53839338451508,122.96497122834262 144.04400472535053,122.87423196740565 143.67720023629954,122.79357475396682 143.22268163025728,122.74316395133792 142.76816302421503,122.66250659630896 142.32161842883215,122.60201352286822 141.81925575903733,122.49110942754487 141.3886591848859,122.42053400840814 141.00590667454526,122.36004073891672 140.9181925576122,122.31971186533337 140.63112817483488,122.27938296998036 140.54341405787272,122.28946519587043 140.09686946248985,122.18864287578617 139.65032486710697,122.11806717070431 139.18783225046354,122.02732688046672 138.7253396338201,121.93658647992561 138.4382752510428,121.89625737761526 138.01565268755076,121.81559910765645 137.50531600709655,121.72485844977928 137.03484937982284,121.62403536721831 136.85144713529735,121.59378841591388 136.42085056117503,121.5433768031653 136.18960425283876,121.52321214852418 136.12581216776744,121.57362377489335 136.11783815713716,121.73494075053895 136.08594211461605,121.88617509864707 135.98227997639333,122.10798492168396 135.9503839338431,122.28946519587043 135.85469580625067,122.5415204003948 135.7749556999479,122.9952176241568 135.68724158301484,123.50940447815083 135.59952746605268,124.00342380626535 135.53573538101045,124.40670246710943 135.49586532782996,124.47727600880899 135.42409923212836,124.5276856406199 135.3363851151953,124.557931403353 135.0094506792957,124.60834098068881 134.56290608388372,124.51760371696582 134.11636148850084,124.43694827886065 133.66981689311797,124.36637469903508 133.3588304784207,124.30588300609088 133.2950383933785,124.26555518359964 133.24719432959682,124.20506340897555 133.16745422329404,124.1647355320165 133.0,124.1647355320165 133.06379208507133,124.20506340897555 133.13555818074383,124.1748175032626 133.17542823392432,124.1143256551295 133.1834022445255,124.03366978140548 133.15948021266377,123.96309582039248 133.10366213822272,123.91268580738688 133.06379208507133,123.9832598160283 133.06379208507133,124.08407971270208 133.12758417014265,124.1647355320165 133.19137625518488,124.18489947320631 133.38275251036976,124.32604690922017 133.82929710575263,124.38653858580801 133.99675132898847,124.43694827886065 134.26786769053433,124.46719407835917 134.3476077968371,124.49743986560497 134.62669816895504,124.5276856406199 135.0413467218168,124.5982590679705 135.20880094508175,124.58817715381883 135.3363851151953,124.35629275363317 135.43207324275863,123.87235777250316 135.51181334911962,123.418665878904 135.5915534554224,122.96497122834262 135.67129356175428,122.51127382076811 135.7350856467965,122.06765591197473 135.78292971060728,121.99708009254391 135.8148257531284,121.84584596909554 135.8865918488009,121.79543452654616 136.07796810398577,121.79543452654616 136.51653868873836,121.86601053659251 137.04282339045312,121.95675102291716 137.55316007090732,122.04749139895284 138.04754873007187,122.13823166469228 138.53396337863524,122.18864287578617 139.01240401656833,122.28946519587043 139.52274069699342,122.3902873797997 140.0091553455568,122.47094502890832 140.4796219728305,122.55160259087279 140.9500886001333,122.63226006568584 141.3966331955453,122.72299962073885 141.8670998227899,122.8036569104006 142.36148848201265,122.89439625712112 142.8160070879967,122.96497122834262 143.30242173656006,123.04562825660105 143.81275841701427,123.13636730925646 144.3071470762079,123.22710625160835 144.76166568225017,123.3178450836931 145.20821027760394,123.40858380550344 145.71057294742786,123.49932241702481 146.18901358536095,123.59006091827177 146.66745422329404,123.67071727124858 147.13792085056775,123.7816196143176 147.5924394565809,123.8521937468904 148.01506202010205,123.95301382049365 148.48552864737576,124.04375177036854 148.9799173065403,124.14457158534788 149.47430596576305,124.25547322454804 149.8171884228941,124.33612885871116 149.99261665681843,124.35629275363317 150.43118724160013,124.46719407835917 150.9176018901344,124.557931403353 151.41996455995832,124.63858671075286 151.88245717657264,124.71924193102313 152.25723567631212,124.77973328906955 152.703780271695,124.88055211023311 153.16627288836753,124.971288932873 153.62876550501096,125.06202564525302 154.08328411108232,125.14268040812749 154.53780271709547,125.24349873918982 154.99232132310863,125.33423512075387 155.45481393975206,125.45521679130616 155.88541051387438,125.5560347003775 156.3558771412063,125.67701601156296 156.82634376848,125.8080788774314 157.2968103957537,125.92905978021008 157.75930301242624,126.0399587688953 158.19787359720794,126.17102099771 158.62049616067088,126.27183794022858 159.1228588304948,126.39281809160457 159.54548139395774,126.51379804693715 159.99202598939883,126.62469616714952 160.41464855286176,126.73559412260511 160.74158298879047,126.83641030286526 161.1721795629128,126.9271447486608 161.33165977557655,126.9573895394642 161.40342587121995,126.9573895394642 161.53898405199288,126.87673673682002 161.6426461901865,126.71543087022292 161.7144122858881,126.43314476517116 161.77820437093033,125.9492232449702 161.84199645600165,125.45521679130616 161.90578854104388,124.971288932873 161.9695806261443,124.50752179195842 162.02539870052715,123.99334181183804 162.08919078559848,123.49932241702481 162.1529828706698,123.06579250005598 162.20880094505264,122.63226006568584 162.2646190195228,122.14831390963082 162.28056704075425,121.95675102291716 162.27259303012397,121.87609281828918 162.20082693448057,121.84584596909554 162.1131128174893,121.84584596909554 162.08919078559848,121.76518764465436 162.07324276430882,121.51312981914089 162.1928529238212,121.00901161516231 162.20082693448057,120.91826997693715 162.17690490256064,120.7670336681258 162.20082693448057,120.44439518540457 162.2247489663423,120.525054936792 162.27259303012397,120.3536528609111 162.27259303012397,120.26291042613593 162.23272297697258,120.1923329006022 162.2247489663423,120.1116727897097 162.27259303012397,119.66804062211304 162.28854105141363,119.58737994475814 162.2646190195228,119.5168017805845 162.25664500886342,119.44622354971216 162.28056704075425,119.36556263269449 162.3363851151953,119.31514951531426 162.35233313645585,119.23448845667008 162.32043709393474,119.1639099588865 162.3682811577164,118.92192603134754 162.4480212640192,118.8815953004887 162.49586532782996,118.8311818562579 162.56763142353157,118.34721105973586 162.6234494979435,117.88340276884264 162.64737152983434,117.64141469055903 162.67129356175428,117.55066895893106 162.64737152983434,117.37926005383633 162.68724158298573,117.20785075518506 162.68724158298573,117.03644106291176 162.71116361487657,116.86503097708191 162.71116361487657,116.76420133095962 162.68724158298573,116.69362049765186 162.75900767868734,116.64320557586325 162.918487891322,116.65328856295673 162.9902539870236,116.63312258740189 163.05404607206583,116.31046623807197 163.08594211458694,115.80631290029123 163.12581216776744,115.30215615755878 163.18163024217938,114.89882831182331 163.25339633785188,114.39466544002062 163.30921441229293,113.96108264686336 163.36503248673398,113.57791436132538 163.40490253988537,113.40649633359135 163.4288245718053,112.9829912833884 163.49261665684753,112.54940029022691 163.56438275252003,112.04522154975712 163.6122268163017,111.53095572601887 163.6441228588228,111.25869591432274 163.71588895452442,110.81501113035483 163.77170702896547,110.36123987326573 163.8354991140077,109.87721415831766 163.9072652096802,109.443605123226 163.91523922031047,109.37301736747759 163.9790313053527,109.312513523706 164.44152392202523,109.4536890829113 164.94388659184915,109.62511618866847 165.39043118723202,109.7662911565858 165.82900177201373,109.89738195913378 166.25162433550577,110.02847253142681 166.66627288836753,110.15956287351582 167.0809214412002,110.29065298532078 167.48759598346078,110.43182669445378 167.97401063199504,110.60325155369355 168.4285292380373,110.74442467155313 168.5720614294114,110.78475979905488 168.60395747196162,110.93601633298385 168.5720614294114,110.2402337388121 168.63585351448273,110.15956287351582 168.70761961018434,110.17973059800715 168.69167158889468,110.26040144150465 168.69167158889468,110.26040144150465" stroke="#4dd2ff" stroke-linecap="round" stroke-linejoin="round" stroke-width="0.5"><title>2021-09-23 13.8km</title><desc>9223370404454820016</desc></polyline><polyline fill="none" points="42.4644031021744,167.31589985705068 42.14928270553355,167.21372601910116 41.42208179010777,166.9787256681302 40.84032105782535,166.8050292872358 40.03232004068559,166.53937522727938 39.45863931856002,166.36567783746432 38.52943814889295,166.01828186112834 37.632557019911474,165.7730602112715 37.48711683682632,165.7730602112715 37.349756663898006,166.0693696047456 37.15583641981357,167.00937792922196 37.042716277414,167.47937771061697 37.10735635875608,167.63263787747564 37.19623647068511,167.5713338479909 37.236636521527544,167.08089982347883 37.41439674529829,166.27372023427597 37.50327685714001,166.0693696047456 37.98807746739476,166.23285015255533 38.56175818957854,166.3963303469718 38.98191871846211,166.4985052891061 39.91919989831513,166.8050292872358 40.46056057975511,166.9787256681302 40.54136068146909,167.12176944698876 40.37976047801203,168.11285105604475 40.21008026445634,169.0528339852899 40.05656007124344,169.84976688407914 39.951519938971614,170.42191865924542 39.806079755944666,171.22905398327566 39.652559562644456,172.17921491038578 39.43439928803127,173.20088001098338 39.32127914566081,173.69127435819246 39.23239903378999,174.0284186278077 39.2000789931044,174.25318063949817 39.02231876933365,175.19308727133466 38.868798576062545,176.11254985084815 38.65871831160621,177.0524333821304 38.610238250606926,177.27718640966486 38.448638047178974,178.2681349782506 38.26279781322228,179.15691285941284 38.093117599666584,180.0661116125848 37.90727736573899,180.9650839070964 37.737597152154194,181.85383010765509 37.5194368774828,182.80385760559875 37.49519684701227,182.98773251772218 37.705277111468604,183.24311359885905 38.39207797599374,183.40655703839002 38.61831826076377,183.45763304088177 39.15967894223286,183.54956975841196 39.806079755944666,183.66193670592475 40.54944069162593,183.76408833158348 41.20392151552369,183.88667010034987 41.68872212577844,183.9990365472695 42.488643132703146,184.13183304213453 43.110803915857105,184.24419912493613 43.636004576983396,184.34634996455134 44.04808509568102,184.49957596532477 44.05616510586697,184.68344675675326 43.90264491265407,185.44957024496398 43.71680467866827,186.1237524982207 43.52288443458383,187.00222339130414 43.33704420065624,187.7683234033393 43.20776403794298,188.42205594725237 43.143123956542695,188.9327805676803 43.1269639361999,189.4843592862162 43.16736398707144,190.50579074164125 43.19160401754198,191.40463901826297 43.11888392601395,192.30347661921405 43.00576378364349,192.91631431735732 42.811843539529946,193.8764167338377 42.58560325475992,194.83650697061967 42.44016307167476,195.41868341647933 42.35128295980394,195.64338189958653 42.222002797032474,196.27661949017056 42.07656261397642,196.51152886202908 41.74528219696367,197.11411913411575 41.48672187147895,197.64521166764462 41.31704165789415,198.04352862222004 41.07464135278133,198.5031225036364 40.96960122053861,198.62568040069164 40.64640081371181,199.3712366656473 40.19392024411354,200.2801925886015 39.74143967451528,201.15849917853484 39.28895910497522,202.04700826617045 39.07887884051888,202.31253769357136 38.90111861677724,202.7618930641911 38.64255829129252,203.354221068068 38.383997965807794,203.86484493758326 38.117357630166225,204.3448282343743 37.72951714193914,204.27334155327844 37.44671678598388,204.0793059356729 36.83263601298677,203.74229552300676 36.30743535183137,203.50740859057987 35.5802344364638,203.11933293142647 36.06503504671855,203.43592111863836 36.873036063829204,203.8546324939598 37.753757172467886,204.32440347523516 38.101197609852534,204.42652721582272 38.181997711537406,204.1201555807129 38.335517904750304,203.9567568683051 38.22239776237984,204.1916424065057 37.85071729449555,204.85544542191928 37.705277111468604,205.17202634851856 37.25279654187034,206.08091261988739 37.06695630791364,206.47918518791266 36.89727609435795,206.7753352263826 37.00231622654246,207.0 37.15583641981357,206.95915190892265 37.333596643584315,206.60173017191846 37.786077213153476,205.75412330681866 38.214317752222996,204.89629464809695 38.64255829129252,204.0793059356729 39.07887884051888,203.20103323552758 39.329359155817656,202.71083008823916 39.61215951180202,202.13892240417044 40.096960122085875,201.20956320168625 40.565600712026935,200.29040551448998 41.01808128153789,199.36102361575468 41.494801881635794,198.42141712867306 41.83416230883449,197.85969028829277 42.1573627156904,197.052838986594 42.50480315304594,196.3787540892663 42.75528346831561,195.3778290751652 42.92496368192951,194.58116501136828 43.110803915857105,193.75385114610253 43.22392405825667,193.19208966253063 43.36936424134183,192.77331929834327 43.498644404055085,192.01748399505595 43.530964444740675,191.27185528581322 43.482484383741394,190.71007537833066 43.45824435321265,190.01550536360446 43.43400432271301,189.07578284371266 43.6198445566406,188.11561952048214 43.72488468888332,187.7581087875369 43.8056847905973,187.492528292496 43.91072492278181,186.78771399804828 44.031925075367326,186.35869338725024 44.15312522792374,186.0011743534924 44.20160528895212,185.73558769208466 44.266245370323304,185.38828065137932 44.38744552285061,184.92860711694811 44.44400559409405,184.66301669089444 44.47632563475054,184.325919807663 44.63792583817849,183.65172153580352 44.78336602123454,183.00816303594183 44.95304623484844,182.35438371700002 45.106566428090446,181.73124504549924 45.22776658067596,181.0876702106325 45.30856668238994,180.83228185419284 45.38936678410391,180.58710822102148 45.51056693668943,180.04568029992515 45.68024715024512,179.23863903696474 45.55096698750276,179.00367603858467 44.83184608229203,178.72784897895326 43.90264491265407,178.58482714474667 43.442084332869854,178.554179573679 43.25624409894226,178.51331612625654 42.383603000460425,178.37029388648807 42.1573627156904,178.3294303397197 41.195841505308636,178.09446451769327 40.93728117982391,178.06381674795557 40.33128041704185,178.05360082194238 40.04848006105749,178.00252117130003 39.636399542330764,177.91057771311898 39.12735890154727,177.79820222366106 38.61831826076377,177.76755433391372 38.20623774206615,177.71647449010925 37.713357121596346,177.56323475176032 37.43863677576883,177.56323475176032 36.864956053643255,177.50193876949197 36.18623519927496,177.34869859655737 35.51559435512172,177.27718640966486 34.925753612595145,177.2465383088711 34.7479933888535,177.20567415514233 34.40863296168391,177.13416183304798 34.11775259551359,177.09329761862318 33.406711700430606,176.99113698602014 33.04311124276137,176.94005661801202 32.315910327393794,176.78681530695758 31.629109462781344,176.58249307610095 30.893828537256923,176.40881874595652 30.37670788631658,176.2453601886882 30.20702767270268,176.23514401711873 29.552546848892234,176.06146888961666 29.334386574249947,175.9899554859221 29.003106157237198,175.9490906534702 28.615265669010114,175.83671225037688 28.27590524184052,175.7447661600454 27.62142441800097,175.49957603950315 27.20934389924514,175.43827838521247 27.039663685689447,175.3871969686952 26.789183370390674,175.32589922333864 26.110462515993277,175.19308727133466 25.431741661624983,175.019409751505 25.108541254798183,174.88659726147307 25.003501122555463,174.69248627962224 25.076221214112593,174.41664350128121 25.13278128526872,173.78322294434474 25.245901427726494,173.13958049407665 25.31862151925452,172.87394868004776 25.37518159043975,172.4141991053839 25.415581641282188,171.89314620954974 25.50446175315301,171.56620922675938 25.520621773554012,171.38230655297957 25.47214171246742,171.13710229242133 25.480221722682472,170.9736323438483 25.682221976923756,170.45256952506315 25.698381997295655,170.13584331262973 25.666061956610065,169.99280523361085 25.682221976923756,169.42065021267626 25.819582149852067,168.4295857392499 25.932702292251633,167.47937771061697 26.021582404122455,166.79481184062752 26.102382505807327,166.23285015255533 26.191262617707253,165.60957866966783 26.223582658392843,165.36435569472815 26.239742678735638,165.10891425035516 26.280142729607178,164.93521357543796 26.369022841478,164.39367361656332 26.457902953377925,163.7806048326529 26.554863075434696,163.30036414750793 26.595263126277132,162.8916462687921 26.554863075434696,162.6770684982548 26.635663177148672,162.5442343352115 26.651823197462363,162.2070388735665 26.619503156776773,161.82896944695676 26.651823197462363,161.1341342207379 26.611423146590823,160.5619121821801 26.65990320761921,159.94881233623164 26.676063227991108,159.28461522742873 26.692223248333903,158.7225977328344 26.708383268647594,157.71095571684418 26.75686332967598,157.30220762931276 26.72454328899039,156.74017540144268 26.748783319519134,155.78982049450133 26.82150341104716,155.13580587868637 26.975023604318267,154.1547733488187 27.112383777217474,153.18394737799827 27.241663939959835,153.0 28.195105140126543,153.2963594442699 29.075826248765225,153.64381386527384 29.6656669912918,153.8788556565196 29.90806729637552,153.92995160144346 30.425187947344966,154.08323922895215 30.570628130430123,154.19564995831752 30.732228333799867,154.2160882547978 31.13622884239885,154.33871791766433 31.451349239068804,154.461347381628 31.52406933059683,154.61463393194572 31.774549645895604,154.6861675490727 32.2835902866791,154.83945364364627 32.95423113089055,155.1153678308183 33.13199135463219,155.13580587868637 33.29359155803104,155.20733900279447 33.6087119547592,155.35040504801145 33.778392168314895,155.40149999858113 33.9319123615569,155.76938262337353 33.875352290371666,156.44382945387042 33.83495223952923,157.0160826534775 33.81879221915733,157.49636324637686 33.75415213778615,158.43647813114512 33.64911200560164,159.11090117508866 33.6087119547592,159.76488141321897 33.54407187332981,160.76627769298648 33.47135178183089,161.51220712086797 33.430951730988454,162.0231134426358 33.398631690302864,162.4420540510764 33.374391659745015,162.93251815606345 33.30975157840294,163.76016912092746 33.23703148684581,164.34258474102535 33.406711700430606,164.65933521297848 34.02887248361367,164.98630205066002 34.43287299218355,165.1600026082524 34.86919354140991,165.28261452641163 35.095433826209046,165.36435569472815 35.410554222849896,165.48696728156938 35.81455473144888,165.51762014721317 36.081195067061344,165.5789258412624 36.36399542304571,165.732189858958 36.85687604348641,165.86501842310827 37.19623647068511,166.12045731391845 37.45479679614073,166.18176251931436 37.713357121596346,166.20219757674204 38.46479806755087,166.46785282096243 39.14351892186096,166.61089756597357 39.628319532144815,166.79481184062752 40.14544018308516,166.9072036772559 40.37976047801203,166.9787256681302 40.57368072215468,167.10133463799866 41.106961393437814,167.244378184987 41.57560198334977,167.45894299826614 42.00384252241929,167.41807355691708 42.222002797032474,167.5202471188095 42.55328321404522,167.7041591823945 42.96536373277195,167.84720158933487 43.442084332869854,168.01067829463864 43.67640462779673,168.07198196803802 44.15312522792374,168.2048064232804 44.646005848335335,168.32741340570647 45.14696647893288,168.49088907313853 45.17120650949073,168.65436438727193 45.30856668238994,168.8893595323607 45.486326906160684,168.9302281787095 45.73680722145946,168.8382736933345 45.777207272301894,168.70545035045507 46.326647963927826,168.90979385826358 46.84376861489727,169.03239969799324 46.956888757267734,169.12435394735803 47.13464898100938,169.1550053389583 47.76488977437839,169.3695647324712 47.98305004899157,169.4308673045598 48.62137085251743,169.65564297712262 48.79105106607312,169.70672826409282 49.46977192047052,170.02345627330214 50.01113260193961,170.14606030791037 50.34241301895236,170.18692827528866 50.78681357836467,170.3401829563154 51.20697410724824,170.47300342870585 51.37665432083304,170.49343732684792 51.53017451404594,170.60582366789458 52.120015256572515,170.8101620419984 52.75025604991242,171.04515048983012 53.582497097493615,171.28013820767956 54.188497860362986,171.47425794573064 54.30161800273345,171.37208972464578 54.44705818584771,171.17796972439828 54.64097842993215,170.62625753013708 54.802578633330995,169.94172013984644 54.98841886728769,169.4104331194103 54.96417883678805,169.24695943928964 54.737938551959815,169.12435394735803 54.52785828753258,168.9710968029758 54.44705818584771,168.86892520089168 54.471298216318246,168.73610191183252 54.584418358746916,168.45002018941886 54.57633834856097,168.14350285753608" stroke="#4dd2ff" stroke-linecap="round" stroke-linejoin="round" stroke-width="0.5"><title>2021-04-05 19.9km</title><desc>9223370419237889829</desc></polyline><polyline fill="none" points="153.75601999100763,181.7658379352215 153.87869150401093,182.1220964784734 155.00726942310575,181.0533190802671 155.350749659352,179.0129111348797 155.57155838259496,176.68099266535137 155.08087233093102,174.1223308441986 155.91503861895762,173.02112525890698 156.38119036809076,172.72962872017524 156.77373920951504,173.377398270517 157.6815084052505,172.92395978984132 156.23398455255665,172.76201724394923 155.32621535670478,171.49886120574956 155.54702408006415,170.1061421130289 155.12994093599264,169.10208322548715 154.4184461608529,168.9401378050825 153.75601999100763,168.3571332832944 153.90322580642533,167.4502342227497 153.82962289871648,166.93200447321578 153.70695138571318,165.63642464234727 153.0199909133371,165.0534111752204 152.84825079503935,163.20719144748 152.08768741495442,162.59178135357797 151.17991821898613,162.49461117800092 149.53611994558014,162.59178135357797 148.97183098597452,162.33266078789893 148.33393911866006,162.59178135357797 146.10131758300122,162.59178135357797 144.97273966378998,162.26788059774844 144.13857337576337,163.20719144748 144.35938209912274,164.92385241252487 144.62925942766014,167.4826235407818 144.5801908224821,168.97252689886955 144.48205361200962,170.8834748105146 144.60472512501292,171.72558206593385 144.53112221718766,172.98873677411757 144.33484779647551,173.83083579622325 144.13857337576337,175.3530833633704 144.04043616552372,175.9360689433379 143.81962744216435,177.91173056012485 143.7460245344555,179.0129111348797 143.2062698773807,181.7334507656342 142.69104952306952,184.58350303809857 142.20036347128917,186.88294953666627 142.10222626081668,188.27556012575224 141.9795547479298,189.5062317551201 141.7096774195088,190.089179019531 141.41526578832418,190.5101955068967 141.36619718314614,191.1579115724453 140.97364834183827,192.9067352184793 141.63607451168355,193.55444407598407 143.86869604734238,193.61921485458151 144.62925942766014,193.78114171582274 146.27305770106614,193.97545378866198 147.54884143569507,194.20215098535118 148.01499318506103,194.2669215691858 149.11903680150863,194.49361845904787 151.20445252163336,194.78508553821302 153.63334847800434,194.59077419589448 155.17900954117067,195.1413225437136 155.64516129042022,195.30324826049036 158.02498864172958,195.85379478691902 160.60109041351825,196.08049000633764 161.92594275344163,196.37195493778563 162.61290322593413,196.4043399058719 164.6001817357028,196.7605742327869 166.61199454800226,196.95488361733442 168.99182189931162,197.37588668236276 171.07723761931993,197.5701955116383 171.66606088145636,197.50542592145212 172.37755565647967,197.63496508249955 173.67787369375583,197.69973463394854 174.1685597456526,197.60258029957185 177.1617446616292,197.34350186037773 179.9095865515992,197.08442310961254 182.82916855986696,196.37195493778563 184.57110404374544,195.4004036320839 185.38073602912482,194.55838895516354 186.48477964568883,192.68003665813012 186.7055883690482,191.7408543657948 186.92639709229115,190.86643958404602 186.92639709229115,190.31588030737475 186.9754656975856,189.57100375131995 186.77919127664063,188.43749100517016 186.53384825086687,187.53067651229503 186.1903680145042,186.72101748843852 185.28259881888516,185.03691696719034 184.81644706963561,184.03292769780091 184.3993639255641,183.35280327507644 184.08041799184866,182.38119323077262 183.81054066342767,181.9277737097873 182.92730577022303,180.4379599900858 181.9213993640151,178.55948452137818 181.43071331223473,177.52307724802813 180.79282144492026,176.2923371319339 180.3021353930235,175.22353079779714 179.7869150385959,174.83487263369898 178.73194002720993,175.32069522926759 177.60336210823152,175.741740592086 176.81826442538295,176.13039711931197 176.27850976830814,176.61621679193922 175.22353475703858,177.32875032888842 173.8986824171152,178.42993388490868 172.20581553841475,179.72543674125336 170.97910040896386,180.9885445219843 170.12039981829002,181.70106359127385 169.2371649252018,181.9277737097873 168.47660154476762,182.54312854257296 167.00454338942654,183.77383293291496 166.02317128586583,184.58350303809857 164.40390731499065,186.75340390780184 163.49613811902236,189.6033897420857 163.32439800107386,192.03232517070137 163.20172648795415,193.10104808032338 163.22626079060137,194.20215098535118 162.78464334388264,195.4004036320839 161.99954566115048,196.46910982724512 159.10449795552995,196.01571996798157 156.47932757856324,195.65948440888315 153.8541572013637,194.65554466287722 151.96501590195112,194.78508553821302 150.713766469853,194.62315943172143 149.04543389379978,194.4612332036777 146.91094956849702,194.23453627976414 145.31621990003623,193.94306845532265 143.25533848267514,193.5868294677639 142.71558382560033,193.42490246033412 141.73421172203962,193.4572878715844 141.04725124954712,193.16581899527228 141.12085415725596,193.03627714586037 139.2562471604906,192.87434972453048 138.422080872464,192.42095229691768 137.0726942300098,192.06471079141193 135.52703316684347,191.5789259704179 134.5947296684608,191.35222601226997 133.73602907778695,190.44542379314953 133.6624261700781,190.86643958404602 133.49068605178036,190.672124705874 133.9323034984991,190.73689635141636 134.42298955027945,191.2550688143092 135.2816901409533,191.61131165917323 137.68605179467704,192.35618115800025 139.05997273977846,192.7124221814156 139.796001817449,192.74480769972433 139.99227623816114,191.61131165917323 140.06587914586999,190.44542379314953 140.23761926405132,189.5062317551201 140.65470240812283,188.6641940317204 141.26805997279007,186.2676071052265 141.4398000909714,184.03292769780091 141.78328032721765,182.34880615380825 142.20036347128917,179.59588680640445 142.61744661524426,177.97650604388036 142.8137210359564,177.84695505685522 144.60472512501292,177.65262843001983 146.56746933213435,176.94009596464457 148.48114493419416,177.0048717407335 149.16810540668666,176.45427702285815 149.2171740118647,173.60411715276132 150.443889141432,173.02112525890698 152.92185370298102,172.56768602805096 154.46751476614736,172.95634828446782 155.59609268512577,172.8591827860946 156.94547932769638,172.43813178670825 155.86597001366317,172.79440576287743 155.39981826453004,173.40978669682227 153.48614266247023,172.53529747505672 150.66469786479138,172.72962872017524 149.36437982751522,173.11829068412771 148.87369377561845,173.63650554494234 148.89822807826567,176.51905294503376 148.9227623809129,179.46633679354272 149.2171740118647,181.66867641193676 150.59109495696612,182.2192577971582 151.35165833716746,183.51473785637063 151.32712403452024,185.65226291534782 151.22898682428058,188.27556012575224 151.30258973198943,190.54258135645068 151.498864152818,193.26297533117759 152.92185370298102,193.55444407598407 153.92776010907255,193.52205867932935 155.32621535670478,191.9351682796405 157.06815084058326,190.1863367435435 157.6815084052505,189.37668770423625 158.7610177192837,188.11362912463665 159.5461154022487,186.85056313675886 160.5274875058094,184.324408935674 160.62562471616548,182.47835443244549 160.57655611098744,180.9885445219843 160.62562471616548,178.17083237842598 160.65015901869629,176.68099266535137 160.5520218083402,174.05755420101923 160.62562471616548,171.14258508602506 160.62562471616548,168.68102487911528 160.6746933212271,166.47855241921206 159.66878691513557,165.18296985985944 159.05542935046833,165.2477491730533 156.77373920951504,165.1505801960011 154.19763743760996,165.21535951888654 152.57837346661836,165.11819052729697 149.78146297147032,165.18296985985944 147.47523852810264,165.21535951888654 145.73330304410774,165.96032033093798 145.75783734675497,167.96846272514085 145.83144025458023,169.52314074832248 145.806905951933,171.5636386187689 145.61063153122086,173.8632241543528 145.1444797819713,176.58382884779712 145.29168559750542,177.8145672978426 147.94139027723577,177.9441183044546 149.04543389379978,179.20723653413006 148.97183098597452,180.9885445219843 149.43798273510765,181.79822509983205 151.20445252163336,182.3164190719399 151.32712403452024,185.06930363982974 151.44979554752354,187.1420405607496 151.5479327578796,189.37668770423625 151.498864152818,191.67608302224835 151.6706042708829,193.39251704423805 153.8541572013637,193.4572878715844 155.42435256706085,191.83801134464738 156.60199909145012,190.73689635141636 158.19672875967808,188.63180789962644 159.74238982284442,186.2676071052265 160.35574738762807,184.84259682874836 160.35574738762807,183.67667231576343 160.45388459798414,181.34480435136356 160.62562471616548,178.62425981028355 160.47841890051495,177.0048717407335 160.60109041351825,173.96038919956482 160.50295320316218,171.72558206593385 160.62562471616548,169.36119564464025 160.62562471616548,167.83890571647498 160.42935029533692,165.76598297625605 159.25170377106406,165.11819052729697 156.38119036809076,165.2477491730533 154.32030895061325,165.11819052729697 154.0013630168978,166.83483625634108 153.95229441171978,168.06563043041388 152.77464788744692,168.87535960282548 150.64016356202774,168.74580313985643 148.72648796008434,168.74580313985643 147.91685597458854,168.97252689886955 146.86188096320257,168.9077487064351 145.75783734675497,169.4259737006796 145.58609722857364,172.4057432141999 145.24261699232738,175.45024773629848 144.99727396655362,177.58785284873738 146.3711949114222,178.00889377851854 148.8246251704404,178.073669233112 149.04543389379978,180.27602309508075 149.14357110415585,181.53912764621782 150.9836437983904,182.25164489359304 153.75601999100763,182.1868706958776 155.59609268512577,181.21525539067807 156.62653339398094,179.98453637724742 157.2398909587646,178.33277085651935 157.1172194457613,176.0008450215828 156.50386188097764,174.4138254976133 155.71876419824548,173.53934035349812 152.77464788744692,172.43813178670825 150.49295774649363,172.8591827860946 149.0945024988614,173.5717287555599 148.99636528862175,175.80651672869863 149.04543389379978,178.7538103297702 149.04543389379978,181.18286813834857 150.0268059973605,181.79822509983205 152.30849613819737,182.54312854257296 154.76192639709916,181.83061225968413 156.77373920951504,179.85498659820587 157.3870967742987,177.879342810862 156.89641072240192,175.41785961682035 155.64516129042022,173.5717287555599 154.1240345297847,172.63246311951661 151.3761926399311,172.5029089172167 149.8796001818264,173.08590221393388 149.11903680150863,173.4421751183254 149.04543389379978,175.1263663226564 149.069968196447,177.19919895213388 149.04543389379978,180.308410483849 149.29077691968996,181.6362892278412 152.11222171748523,182.41358030290576 155.0563380282838,181.6362892278412 156.5529304862721,180.27602309508075 157.09268514311407,178.65664744746755 157.19082235347014,176.45427702285815 156.47932757856324,174.7377079831349 155.52248977741692,173.4421751183254 154.17310313507915,172.76201724394923 152.3330304408446,172.34096605457307 149.90413448447362,173.02112525890698 149.14357110415585,173.5717287555599 148.89822807826567,175.57980016540387 148.9472966833273,178.3003831706883 149.069968196447,180.5027347139112 149.65879145846702,181.7334507656342 152.25942753301933,182.41358030290576 153.68241708306596,182.1544835896202 156.08677873702254,180.7618334146391 156.77373920951504,179.69304926485347 157.21535665611736,178.72142270725453 157.36256247165147,177.2639746502973 156.8718764198711,175.41785961682035 155.4734211722389,173.4421751183254 153.53521126776468,172.4057432141999 151.20445252163336,172.5029089172167 149.14357110415585,173.53934035349812 148.99636528862175,176.48666498636885 149.14357110415585,178.85097316814063 149.11903680150863,181.31241711850453 149.97773739218246,181.7658379352215 152.40663334855344,182.41358030290576 155.25261244899593,181.5715148449235 155.86597001366317,181.0533190802671 156.8473421172239,179.69304926485347 157.28895956394263,178.88336077127315 157.3870967742987,176.94009596464457 156.74920490698423,174.86726084089605 155.42435256706085,173.40978669682227 153.8541572013637,172.6972401914536 152.11222171748523,172.4057432141999 150.12494320771657,172.92395978984132 149.11903680150863,173.53934035349812 149.069968196447,175.70935251645278 149.02089959115256,178.46232155135658 148.99636528862175,181.2800298807415 150.713766469853,182.1544835896202 153.24079963658005,182.34880615380825 155.620626987773,181.2800298807415 156.77373920951504,179.9197614974837 157.2644252612954,178.7538103297702 157.09268514311407,175.87129284573894 155.620626987773,173.53934035349812 152.99545661057346,172.4705203543126 150.54202635178808,172.8591827860946 149.16810540668666,173.50695194666332 149.04543389379978,175.8389047896344 149.0945024988614,178.62425981028355 149.0945024988614,181.21525539067807 150.19854611554183,181.83061225968413 152.5047705589095,182.41358030290576 154.61472058168147,181.83061225968413 156.724670604337,179.9521489397739 157.3870967742987,177.52307724802813 157.2398909587646,176.45427702285815 156.89641072240192,175.19114264426753 155.12994093599264,173.15067914947576 152.60290776926558,172.34096605457307 150.59109495696612,172.6000745761703 149.4870513404021,173.08590221393388 149.2171740118647,171.919914041835 150.14947751024738,171.59602731792256 152.08768741495442,171.5636386187689 152.57837346661836,172.24380027850566 154.73739209456835,172.98873677411757" stroke="#ff0000" stroke-linecap="round" stroke-linejoin="round" stroke-width="0.5"><title>2019-05-31 22.2km</title><desc>9223370477539874177</desc></polyline><polyline fill="none" points="44.164663578150794,228.51657223814982 42.49879814661108,227.35590427802526 38.981971125118434,226.8061130339629 38.19531244924292,226.86720098677324 36.11298066005111,227.47808000916848 34.16947099030949,228.27222136428463 32.92007191688754,228.69983529715682 32.50360555900261,231.75420743686846 32.642427678452805,234.5642095177027 32.54987959889695,236.82441447430756 32.642427678452805,238.35157286463073 32.642427678452805,241.34478665271308 32.73497575777583,243.78821012555272 34.40084118931554,244.70449013786856 36.57572105759755,245.68185320601333 36.80709125637077,248.00308106670855 36.85336529626511,250.93513940216508 36.760817216709256,253.68392486826633 36.945913375588134,255.88293984677875 36.760817216709256,257.5932765988982 36.760817216709256,259.7311874109728 36.89963933615945,263.5183160841116 37.31610569381155,264.7399629622814 37.9639422504697,266.9389180833241 41.5733173515182,266.9389180833241 42.31370198749937,266.75567227797 44.81250013457611,263.7015633500996 47.4963944402989,261.0750113046961 49.81009642849676,258.081942919438 51.93870225735009,255.21101986631402 53.14182729064487,252.76766511323513 54.391226364299655,249.83562000701204 54.80769272218458,248.91935157042462 54.7151446423959,247.6365722863993 54.622596563305706,245.0710015639197 54.76141868229024,242.44432903459528 54.7151446423959,240.55067085890914 54.7151446423959,238.7791761851404 54.7151446423959,237.31310578400735 54.7151446423959,233.64790662776795 54.437500404194,230.9600728903897 54.53004848374985,230.10484933434054 54.80769272218458,228.8830982731015 54.7151446423959,225.15673483593855 54.622596563305706,223.62952682803734 54.7151446423959,221.98013572880882 54.48377444385551,220.39182685740525 54.80769272218458,219.71984815731412 54.57632252341136,216.6042960190971 53.78966384776868,213.73307974784984 50.92067338270135,213.06109002939775 47.126202122308314,213.06109002939775 43.6093751010485,213.06109002939775 39.81490384088829,213.0 37.2235576142557,213.06109002939775 33.47536039398983,213.06109002939775 29.81971125327982,213.06109002939775 27.644831384532154,213.36654003939475 26.117788072442636,215.01596612256253 25.97896595322527,217.03192223754013 26.117788072442636,219.04786834528204 26.3954323111102,222.34666766313603 26.302884231554344,225.03455840682727 26.071514032781124,227.1115527060174 25.74759575445205,230.53246133736684 25.469951515784487,232.6094275197247 25.0997591977939,235.72485687726294 25.886417873669416,237.129846611846 28.43149006040767,237.37419215630507 32.31850940012373,237.4963648735138 32.68870171811432,239.63438147501438 32.59615363855846,243.17735563535825 32.82752383756451,244.03255166416056 34.77103350730613,244.70449013786856 38.14903840934858,245.62076808317215 41.61959139141254,245.43751265940955 44.673678015358746,243.78821012555272 47.03365404298529,241.34478665271308 48.236779076745734,237.8628828045912 48.14423099695705,234.1366017596447 47.0799280826468,231.50985851109726 45.136418412672356,229.06636116671143 45.59915881045163,227.96678256531595 46.246995367109776,227.661343536427 48.32932715606876,229.61614935097168 47.31129828165285,228.27222136428463 47.172476162202656,227.41699214818073 46.57091364520602,227.47808000916848 45.321514572016895,227.17264061278547 42.08233178895898,227.35590427802526 38.565504767233506,226.74502507210127 36.15925469994545,227.17264061278547 34.215745029971,228.0278703434451 33.105168075766414,228.76092296495335 32.54987959889695,232.12073054999928 32.59615363855846,234.93073009478394 32.68870171811432,238.84026233691839 32.68870171811432,241.6502153906622 32.82752383756451,243.72712471781415 34.53966330830008,244.76557539845817 36.80709125637077,245.7429383197159 36.89963933615945,249.34694376471452 36.89963933615945,252.82874916115543 37.08473549503833,255.27210354694398 36.89963933615945,258.32627585940645 36.85336529626511,261.31934244392323 36.80709125637077,263.7626457536244 37.2235576142557,266.2059343656874 39.16706728423014,266.8778361574223 42.08233178895898,266.81675422238186 44.58112993580289,263.7626457536244 47.0799280826468,261.4415079584869 49.25480795139447,258.75385815047775 51.38341378024779,255.944023426302 53.14182729064487,252.5233288294694 53.78966384776868,251.24056092830142 54.80769272218458,248.36958951628185 54.622596563305706,244.70449013786856 54.622596563305706,242.62758580874652 54.57632252341136,241.16152929951204 54.7151446423959,239.9398114992655 54.76141868229024,237.06876020261552 54.7151446423959,234.6863830802031 54.57632252341136,231.57094575639348 54.48377444385551,230.59354872978292 54.66887060296722,228.2111336228263 54.622596563305706,224.30149905904545 54.76141868229024,222.04122440741048 54.7151446423959,220.20856004947564 54.7151446423959,218.25370895196102 54.29867828497663,215.07705584861105 53.41947152954526,213.7941696671187 50.59675510437228,213.30545005571912 47.218750202097,213.24436006287578 43.6093751010485,213.36654003939475 39.53725960222073,213.18327006095205 35.835336421616375,213.30545005571912 32.82752383756451,213.24436006287578 29.81971125327982,213.1221800498315 27.506009265314788,213.36654003939475 26.071514032781124,215.07705584861105 26.117788072442636,217.58172671395005 26.256610191660002,221.06380444570095 26.349158271215856,223.99605727376183 26.02523999288678,227.5391678608139 25.51622555567883,231.0211602183408 25.146033237688243,234.1366017596447 25.146033237688243,235.2972503413621 25.701321714557707,236.27463604783406 25.793869794346392,237.00767378421733 27.968749662861228,237.37419215630507 31.578124763909727,237.4352785195806 32.50360555900261,237.55745121839573 32.82752383756451,240.91718603344634 32.82752383756451,243.60495387486299 33.42908635409549,244.52123430080246 35.603966223075986,245.0710015639197 38.84314900590107,245.68185320601333 42.31370198749937,245.0710015639197 45.41406265133992,243.29952660683193 46.478365565882996,242.44432903459528 47.357572321314365,240.6728426204063 48.56069735484198,237.31310578400735 48.468149275518954,235.6026836273668 48.00540887773968,233.34247187149595 46.84855788387358,231.0211602183408 44.53485589614138,228.63874761990155 41.38822119263932,227.17264061278547 40.555288476869464,226.92828893035767 38.750600926345214,226.62284912061295 35.88161046127789,227.41699214818073 33.38281231443398,228.45548453342053 32.68870171811432,230.71572348670452 32.73497575777583,234.25877545078401 32.78124979767017,237.9850553747674 32.73497575777583,241.34478665271308 32.873797876993194,243.66603930096608 33.52163443365134,244.39906369676464 35.372596023837104,244.94883112536627 37.45492781302892,245.55968295110506 38.750600926345214,245.8651085193851 41.89723562984727,245.31534233118873 42.822716425172985,244.94883112536627 45.552884770557284,243.17735563535825 47.72776463930495,240.42849906045012 48.468149275518954,237.06876020261552 48.14423099695705,233.83116737107048 47.45012040087022,232.12073054999928 46.52463960577734,230.2881116766075 45.27524053212255,229.12744877964724 42.406250067288056,227.5391678608139 39.676081721670926,226.86720098677324 35.97415854106657,227.35590427802526 33.29026423487812,228.33330909657525 32.78124979767017,228.8830982731015 32.68870171811432,232.36507910839282 32.82752383756451,235.84703009066288 32.78124979767017,239.32895122113405 32.78124979767017,243.29952660683193 33.15144211566076,244.2158077218046 36.62199509749189,245.43751265940955 40.50901443720795,245.62076808317215 42.96153854439035,244.8266606500256 43.979567419039086,244.4601490033092 46.80228384421207,247.27006317555788 48.468149275518954,249.16369002210558 49.81009642849676,250.38538007659372 50.6893031836953,250.62971764669055 51.10576954158023,250.812970727653 53.234375370433554,250.4464644829277 54.57632252341136,249.40802832721965 54.853966761846095,248.49175892595667 54.99278888129629,247.3311480502307 54.76141868229024,246.10944880871102 54.853966761846095,243.29952660683193 54.57632252341136,241.16152929951204 53.465745569206774,240.79501434546546 53.14182729064487,239.9398114992655 52.67908689333126,238.65700385373202 51.29086570069194,237.00767378421733 50.966947422362864,235.72485687726294 52.49399073445238,233.83116737107048 51.79988013813272,232.97594986096374 50.36538490536623,231.32659672014415 48.88461563340388,229.49397426325595 49.34735603095032,229.00527354463702 49.6712743092794,227.8446069813799 48.56069735484198,227.47808000916848 47.6352165597491,226.5006731323956 47.4963944402989,228.8830982731015 46.94110596366227,227.78351917554392 45.784254969563335,227.47808000916848 45.27524053212255,226.92828893035767 46.432091526221484,225.8287045402394 47.4963944402989,224.66802889836254 48.930889673065394,225.76761643122882 49.57872622949071,227.661343536427 49.53245218959637,228.94418591354042 48.745793513953686,229.3107115626044 47.86658675852232,228.63874761990155 49.25480795139447,227.60025570329162 49.6712743092794,226.98937686465797 49.11598583194427,226.1341449470783 47.6352165597491,224.484764020046 46.61718768510036,225.4621757485438 45.136418412672356,226.92828893035767" stroke="#4dd2ff" stroke-linecap="round" stroke-linejoin="round" stroke-width="0.5"><title>2019-05-27 11.1km</title><desc>9223370477886856384</desc></polyline><polyline fill="none" points="163.03676912284573,266.62649665385106 162.82928800265654,266.4770943715157 162.7444093625818,266.38994279109465 162.78213320262148,266.03510946167444 162.75384032257716,265.6117955450609 162.70197004254442,265.4001369629659 162.35302452222095,265.32543367553444 162.07952668194775,265.2258290824975 162.15497436202713,265.08264706001864 162.2304220421065,264.83363366702906 162.52278180237045,264.8025068875577 162.5416437223903,264.7713800846723 162.52749728236813,264.42275829269784 162.41432576224906,264.0367807400071 162.31530068218126,263.57609314172805 162.2021291620622,263.14652846314857 162.1361124420073,262.89127777392787 162.02294092188822,262.65470255848413 161.961639681831,262.46793169615194 161.91920036179363,262.24380554855816 161.81545980169903,261.93251721857087 161.63155608152738,261.4904837662252 161.41464400131372,260.8803453282053 161.26846412118175,260.59395071379913 161.16943904108484,260.2701978931036 161.0845604010101,259.9837990554188 160.96195792089566,259.6102323748273 160.79691612074384,259.0934595732906 160.55171116051497,258.37743839798713 160.41024676035158,257.92291417883825 160.29707524026162,257.574234680942 160.2027656401915,257.4559320408116 160.12731796011212,257.15706070626766 160.0990250800969,256.8083747538549 160.0330083600129,256.36005992534047 159.98585355997784,255.8307931107738 159.97642259995337,255.31397309894237 160.08487864007475,255.18321038576323 160.12731796011212,255.0275399502134 160.5752885605325,254.9901789585274 161.16943904108484,255.00885945858317 161.44293688135804,254.89677633163592 161.46651428137557,254.36749079604488 161.49480716141989,253.8693335175194 161.50895360141294,253.54552806955326 161.4853762013663,253.14076769526946 161.46179880137788,252.636368455278 161.4523678413534,252.2004629231742 161.4523678413534,251.73341618419 161.42879044136498,251.2601367759744 161.3486272812588,250.54398000647052 161.33919632123434,250.34469939585324 161.2826105612039,249.89631451157038 161.1883009611047,249.5226567283098 161.14114616106963,249.1489955694342 161.06569848099025,248.66323101619855 160.9808198409155,248.29578993610994 160.95724244089797,248.0466754826739 160.9148031208606,247.81624327737154 160.82049352076137,247.44256670195682 160.76862324069953,247.10002687531232 160.7403303606843,246.82599297132765 160.6413052805874,246.41493871089915 160.5422802004905,245.96028302802006 160.4715480004379,245.6426439002753 160.44797060042038,245.35614377087768 160.405531280383,245.0135866631099 160.34423004029668,244.66479832894402 160.38666936036316,244.49663147391402 160.35837648031884,244.24126568270367 160.62715884056524,244.2225803189831 160.66959816063172,244.23503722906025 160.76862324069953,244.06686862641436 161.23074028114206,243.70561524172444 161.523100041406,243.3069871548214 161.6598489615717,242.88966925935893 161.77773596168845,242.43497481799204 161.86733008176088,242.235655130542 162.0983886019676,241.76849584843148 162.07009572195238,241.61900376351332 162.18798272204003,241.3324757568298 162.2351375221042,241.12692183331455 162.35302452222095,240.76564276427962 162.3718864422408,240.41681859903474 162.39546384222922,240.22994730003848 162.41904124227585,239.7752236113156 162.42847220227122,239.33295330869805 162.44733412229107,238.84707343846094 162.41432576224906,238.5293796669721 162.4048948022537,238.22414217542973 162.41904124227585,237.8815259803523 162.40961028225138,237.5700542483828 162.38131740223616,237.15267844881237 162.42847220227122,236.94710374512215 162.39074836223153,236.7539871832596 162.42847220227122,236.29922526484006 162.4048948022537,235.88806634796856 162.41904124227585,235.28377991286106 162.42375672227354,234.9099900676083 162.41432576224906,234.65456506296687 162.38603288223385,234.24961974826874 162.42847220227122,233.91320062423983 162.40961028225138,233.70137977125341 162.400179322256,233.27150470392007 162.4048948022537,232.87277600781817 162.400179322256,232.22483367413224 162.40961028225138,231.6204936900358 162.39074836223153,231.22797948319567 162.400179322256,230.74823483551154 162.40961028225138,230.19994842035885 162.400179322256,230.0192615312335 162.42375672227354,229.65788538351262 162.41432576224906,229.09089230179234 162.44733412229107,228.44912151789686 162.56050564241013,227.95065189771776 162.52749728236813,227.69518388743745 162.58879852242535,227.14685697279492 162.6406688024581,226.66083385338789 162.67839264249778,226.34304641592098 162.73026292255963,226.11249321622017 162.7444093625818,225.7323891870983 162.78213320262148,225.24634943401543 162.81514156263438,224.89116292279505 162.86229636269854,224.62321318378963 162.96132144279545,224.2244010528957 162.98961432278156,223.88790032393445 163.0084762428305,223.57009156411732 163.00376076283283,223.35198609910003 163.02262268285267,223.17750089830952 163.06506200289004,222.8970767107894 163.0792084428831,222.4920161916416 163.12164776292047,222.18666025259154 163.16880256298464,221.96231567590803 163.17823352298,221.68811509483203 163.20652640299522,221.43884026051455 163.22067284301738,221.20825970002625 163.22067284301738,220.98390981163902 163.26782764308155,220.56636649870416 163.211241883022,220.22983598194696 163.1169322829228,220.07403388862076 163.03205364284804,219.9556239048361 162.9754678827885,219.89953484671787 162.65481524250936,219.70010646791707 162.34830904219416,219.61285624953962 162.14554340203176,219.5754632424032 162.08895764194313,219.56923107126931 161.90033844177378,219.50067712663804 161.63155608152738,219.49444494420823 161.09870684103225,219.38849769919398 161.10342232102994,219.12674451747444 161.17887000110932,218.67802091972408 161.183585481107,218.67802091972408 161.17887000110932,218.54714228579542 161.24488672116422,218.01115879326244 161.29204152122838,217.59981790923484 161.34391180126113,217.0700546770713 161.40049756129156,216.39070129815445 161.4193594813114,215.99804241648235 161.33919632123434,215.3311370344345 161.30618796122144,214.73901575752825 161.27317960117944,214.47100017917546 161.32504988124128,214.15935197156432 161.3580582412833,213.4550183621286 161.3156189212459,213.0124663232673 161.31090344121912,213.11842991916637 161.3533427612565,213.83523534185952 161.2543176811596,214.31517636923672 161.29675700119697,214.57696003423916 161.3156189212459,215.05065959267085 161.33919632123434,215.39346509624738 161.3910666012962,216.02297325008112 161.40049756129156,216.30344409138706 161.3486272812588,216.93293838105456 161.29675700119697,217.46893586010992 161.23074028114206,218.05478561652853 161.183585481107,218.5035159823674 161.14586164109642,218.771505404442 161.0845604010101,219.28255018253913 161.10342232102994,219.4196586818107 160.99025080091087,219.86837422596 160.99496628090856,220.14881896673614 160.8817947608186,220.60999062428527 160.6743136406294,220.96521393263174 160.48097896043328,221.37652131698997 160.38195388033637,221.60086907386358 160.2357740002335,221.87507023383296 160.0990250800969,222.13057422261045 159.88682847988093,222.59795548003967 159.6274770796299,223.12764784849787 159.30682443935075,223.781964342219 159.0191801590845,224.26178985365914 158.74096683878452,224.72914700918045 158.72210491879378,224.77899812717442 158.65137271871208,224.90362565907708 158.58535599865718,225.0407155100911 158.4108832384809,225.38966944262938 158.14681635826128,225.74485166971863 157.85917207796592,226.17480501864338 157.71299219783396,226.34927756564502 157.566812317702,226.5798294444976 157.28388351743342,226.95992568014844 156.93965347710764,227.42725232661178 156.7180259168963,227.76372424029978 157.01510115718702,227.9942682294677 157.31689187744632,228.243503527985 157.62339807776152,228.4865064970727 157.5243729976646,228.62981527067677 157.53851943768677,228.83543133886633 157.51022655764245,228.99743115704769 157.40648599754786,229.41488930083142 157.36876215753728,229.70773055721656 157.42063243757002,230.13141210711183 157.4960801176203,230.38686506073282 157.45364079761202,230.54262828206265 157.5951051977463,230.79807869445722 157.61868259776384,230.98499263021586 157.63754451775458,231.37127875257647 157.63754451775458,231.75756126525448 157.566812317702,231.89462838594773 157.5290884776914,232.00054357704357 157.43477887759218,232.1936823445394 157.46778723760508,232.36189924551581 157.58567423772183,232.52388524394337 157.67055287779658,232.67341021760512 157.74600055787596,233.06591070025024 157.87803399801487,233.39610663276835 157.94876619803836,233.59546893776132 158.12323895821464,233.82598040445373 158.22697951833834,234.10010047556716 158.28356527836877,234.27453957448233 158.22226403831155,234.4053684156388 158.45332255854737,234.69817432182026 158.53348571862443,235.1841029512434 158.62307983869687,235.34607789184884 158.75511327883578,235.58903911287416 158.90129315896775,235.8319989061347 158.9861717990134,235.98151191540092 159.17950647920952,236.33660314542067 159.27853155930643,236.57332893780767 159.29739347932627,236.69792091570343 159.3917030794255,236.9595628471725 159.78308791978634,236.99071058585105 159.83967367984587,237.27103917819113 159.8632510798634,237.54513640847654 159.8585355998366,237.813002400635 159.8585355998366,238.0746372758149 159.83967367984587,238.4670864843647 159.84438915984356,238.82215636812543 159.78780339978402,239.03395098731562 159.82081175982603,239.28311973861491 159.78308791978634,239.28934893816768 159.88211299988325,239.85620216841926 159.91512135989615,240.2174891834111 160.0,240.491566882185 160.02829288001521,241.014801080717 160.04715480003506,241.35116242647564 160.0377238400397,241.55671523529963 160.12260248011444,241.81832642330846 160.2027656401915,242.07370717706362 160.23105852020672,242.39137371845572 160.19333468016703,242.77132461206565 160.22634304020903,243.0578426491993 160.2734978402441,243.33813011250095 160.35366100032115,243.66201548187018 160.34894552032347,243.85509978363552 160.3017907202593,243.94852734797314 160.3678074403433,244.32223549453556 160.35837648031884,244.47171780759527 160.405531280383,244.65856993911075 160.41024676035158,245.03227166942088 160.46683252044022,245.33745891087892 160.42439320037374,245.54922016311684 160.54699568048818,245.96651122183175 160.58471952052787,246.2654634214632 160.66016720063635,246.47099180516307 160.73561488068663,246.7450280613084 160.79220064074616,246.98169427588073 160.83463996075443,247.24949914854005 160.86293284082785,247.47370654553015 160.8817947608186,247.75396408259985 160.95724244089797,248.015536070503 161.02797464095056,248.432802245934 161.04212108097272,248.76287549222252 161.16472356108716,249.34205425632172 161.22602480114438,249.60361620112963 161.2873260412016,249.84649366882877 161.27789508117712,250.12673512867332 161.29675700119697,250.15164538877434 161.32976536123897,250.41320221404385 161.3533427612565,250.57511751515267 161.3910666012962,251.04217733261248 161.40992852131603,251.2040901716573 161.46179880137788,251.52168659201197 161.47122976137325,251.8890990164473 161.43350592133356,252.25650817750284 161.44765236135572,252.69864029915698 161.44765236135572,253.12208635159914 161.4853762013663,253.5766633189196 161.47594524137094,253.85687950867214 161.44293688135804,254.3861715772764 161.39578208129387,254.77223916778166 161.26374864118407,255.00885945858317 160.90065668083844,255.01508629005912 160.3772384003678,254.9901789585274 160.21691208021366,255.002632626165 160.1037405600946,255.12094228184287 160.1037405600946,255.34510701735053 160.1037405600946,255.69380530277704 160.11788700008765,255.93664701537637 160.2027656401915,256.291566954289 160.22162756018224,256.61535090933467 160.31122168028378,257.0574364483182 160.41496224037837,257.37498793421764 160.4762634804356,257.61159333913747 160.60358144057682,257.95404613395294 160.6790291206271,258.2653643968042 160.811062560766,258.68875347503854 160.96195792089566,259.06232847550564 161.03740560097503,259.34250751231957 161.12699972104747,259.67871985209786 161.2213093211467,259.94644253913793 161.33448084126576,260.214163493878 161.40992852131603,260.3324582476671 161.49480716141989,260.56282074498085 161.556108401448,260.8865712760671 161.68342636156012,261.16051205461554 161.80131336170598,261.4904837662252 161.78245144165703,261.4904837662252 161.90033844177378,261.70216234668624 162.01822544189054,262.0445812871476 162.14554340203176,262.3620944999602 162.1974136820354,262.48038311320124 162.27286136214389,262.65470255848413 162.27757684214157,262.9286316316793 162.433187682298,263.3519729962136 162.4379031622957,263.6009953051944 162.51335084237508,263.8064375819522 162.58408304242766,264.14261365299535 162.71611648256658,264.5036886132948 162.6736771625001,264.7838308086393 162.38603288223385,264.7838308086393 162.12668148201192,265.03906982441185 162.07481120195007,265.3129831145088 162.24928396209725,265.61802078108667 162.2634304021194,265.96040732045003 162.51806632237276,266.0973611430418 162.75384032257716,266.12848694859713 162.91888212272897,266.5331202905945 163.06977748288773,266.9190745610613 163.09807036290294,266.98132491275464 162.90473568273592,266.81324874828715" stroke="#ff0100" stroke-linecap="round" stroke-linejoin="round" stroke-width="0.5"><title>2019-04-30 22.2km</title><desc>9223370480227403463</desc></polyline></svg>