<?xml version="1.0" encoding="utf-8" ?>
<svg baseProfile="full" height="300mm" version="1.1" viewBox="0,0,200,300" width="200mm" xmlns="http://www.w3.org/2000/svg" xmlns:ev="http://www.w3.org/2001/xml-events" xmlns:xlink="http://www.w3.org/1999/xlink"><defs /><rect fill="#222222" height="300" width="200" x="0" y="0" /><text fill="#FFFFFF" style="font-size:12px; font-family:Arial; font-weight:bold;" x="10" y="20">Over 10km Workouts</text><text fill="#FFFFFF" style="font-size:4px; font-family:Arial" x="10" y="280">ATHLETE</text><text fill="#FFFFFF" style="font-size:9px; font-family:Arial" x="10" y="290">TangUltra</text><text fill="#FFFFFF" style="font-size:4px; font-family:Arial" x="120" y="280">STATISTICS</text><text fill="#FFFFFF" style="font-size:3px; font-family:Arial" x="120" y="285">Number: 7</text><text fill="#FFFFFF" style="font-size:3px; font-family:Arial" x="120" y="290">Weekly: 1.2</text><text fill="#FFFFFF" style="font-size:3px; font-family:Arial" x="141" y="285">Total: 110.1 km</text><text fill="#FFFFFF" style="font-size:3px; font-family:Arial" x="141" y="290">Avg: 15.7 km</text><text fill="#FFFFFF" style="font-size:3px; font-family:Arial" x="167" y="285">Min: 10.4 km</text><text fill="#FFFFFF" style="font-size:3px; font-family:Arial" x="167" y="290">Max: 22.2 km</text><polyline fill="none" points="14.265190525271464,69.16468557705957 14.737899073166773,69.09195553376048 14.737899073166773,68.43738321811543 14.737899073166773,67.92826902063825 14.696189495385624,67.21914217961603 14.543254376971163,66.65547435258486 14.59886714728782,66.05543803468754 14.59886714728782,64.96445544851304 14.584963954694103,64.10984569658467 14.64057672501076,63.00066252636316 14.59886714728782,61.92783654775849 14.584963954694103,61.16412424493319 14.487641606596299,60.03673079210421 14.51544799178373,59.78215665375319 14.62667353253346,59.81852441990486 15.113285272906069,59.83670829899347 15.405252317199484,59.345742625169805 15.391349124605767,58.927511068402964 15.391349124605767,58.709302737806865 15.349639546882827,57.963754701588186 15.321833161695395,57.16364936698665 15.321833161695395,56.363538852659985 15.321833161695395,55.65434565725445 15.544284243020229,55.472500592637516 15.72502574668033,55.30883980573708 16.336766220338177,55.30883980573708 16.78166838310426,55.03607134601043 17.351699279155582,54.52690194371826 18.088568486098666,54.34505522020481 18.85324407828739,54.30868584338168 19.965499485086184,54.1268387987875 20.354788877477404,54.054099906068586 21.216786817705724,53.83588297093229 22.301235839375295,53.56311126022047 22.52368692070013,53.47218722281832 23.524716786807403,53.21759956233291 24.55355303810211,52.94482648698613 24.956745623087045,52.83571708826639 25.665808444900904,52.672052809546585 26.639031925878953,52.47201839679474 27.737384140084032,52.27198366026278 28.29351184348343,52.18105867293343 28.933058702328708,52.017393527319655 29.62821833160706,51.9446533929804 30.71266735327663,51.90828330975637 31.894438722985797,51.83554311119951 32.75643666321412,51.799172995881236 33.465499485086184,51.74461780284037 33.67404737387551,51.780987934231234 34.29969104018528,51.74461780284037 35.46755921730073,51.69006258569425 36.552008238912094,51.67187750796438 37.28887744597159,51.61732225873129 38.01184346037917,51.61732225873129 39.11019567458425,51.59913717030577 40.250257466570474,51.54458188892022 41.3069001029362,51.49002658350946 42.363542739418335,51.47184147630469 43.58702368696686,51.39910102092108 44.60195674560964,51.380915900350374 45.29711637488799,51.344545651212684 46.50669412978459,51.289990257500904 47.56333676620852,51.25361998160224 48.606076210096944,51.19906454768352 49.57929969107499,51.16269424508937 50.17713697219733,51.126323931741354 50.64984552009264,51.108138771036465 51.692584963922855,51.089953607690404 52.95777548913611,51.03539810156508 53.972708547953516,50.99902775076043 55.001544799190015,50.88991663411434 55.69670442841016,50.926287017035065 56.725540679704864,50.871731438615825 57.43460350157693,50.853546240476135 57.69876416068291,50.835361039637064 58.268795056676026,50.81717583615682 58.894438723044004,50.798990629999025 59.297631307912525,50.76262020962895 60.382080329582095,50.76262020962895 61.14675592177082,50.744434995438496 61.75849639548687,50.708064558952174 62.78733264672337,50.65350888425746 63.48249227605993,50.61713842103927 63.80226570548257,50.65350888425746 64.41400617925683,50.96265738924558 65.02574665297288,51.61732225873129 65.234294541704,52.071948599928874 65.37332646758296,53.1994147093792 65.56797116372036,54.27231645587017 65.6930998970056,55.327024348356645 65.74871266738046,55.745268089231104 65.8877445932012,56.76359475727804 66.04067971161567,57.81828138967103 66.17971163755283,58.236516699973436 66.15190525230719,58.436541782873974 66.27703398553422,59.436662341540796 66.36045314109651,60.16401766466879 66.45777548919432,60.673163844054216 66.51338825951098,60.9277361472341 66.63851699279621,62.00057080666011 66.74974253348773,62.67336067252472 66.77754891861696,63.00066252636316 66.80535530380439,63.52798035669548 66.45777548919432,64.50987652884214 65.5123583934037,65.18265273614088 64.42790937179234,65.27356815894018 63.34346035012277,65.34630044902588 62.8985581874731,65.38266657807253 63.84397528320551,65.34630044902588 64.71987641602755,65.38266657807253 65.02574665297288,65.30993430930539 65.66529351187637,65.2372019978502 66.55509783729212,64.45532694616122 66.76364572608145,64.12802894430934 66.87487126671476,63.400696948418044 66.76364572608145,62.23695685251005 66.59680741501506,61.509613728369004 66.91658084449591,61.41869553689321 66.97219361487078,61.18230792605755 66.90267765184399,61.436879180510005 66.56900102988584,61.27322629135597 66.49948506697547,60.61861256798147 66.36045314109651,59.58213374863408 66.22142121527577,58.8365909774875 66.12409886711976,58.38198951965751 66.09629248199053,57.78191303492349 65.91555097833043,56.70904175563919 65.8877445932012,56.23624806597945 65.83213182288455,55.8180059866354 65.81822863029083,55.581607663523755 65.62358393415343,54.52690194371826 65.48455200821627,53.39944794474286 65.35942327498924,52.781162352745014 65.27600411948515,52.0537635783694 64.8589083419065,51.25361998160224 64.16374871274456,50.708064558952174 63.468589083408006,50.52621221623849 62.537075180211104,50.5989531854575 61.6889804325765,50.5989531854575 60.43769309989875,50.68987933673634 59.533985581831075,50.67169411185023 58.85272914520465,50.68987933673634 58.57466529350495,50.726249778526835 58.004634397511836,50.744434995438496 57.226055612787604,50.76262020962895 56.11380020598881,50.81717583615682 55.37693099898752,50.853546240476135 54.23686920700129,50.853546240476135 53.54170957778115,50.926287017035065 53.22193614835851,50.94447220445727 52.38774459325941,50.926287017035065 51.15036045317538,51.017212927479704 50.635942327498924,51.07176844163769 49.96858908346621,51.089953607690404 48.96755921730073,51.14450908973231 48.14727085485356,51.180879397717945 47.549433573673014,51.180879397717945 46.63182286306983,51.21724969500792 45.53347064886475,51.27180512090854 44.49073120497633,51.30817539138661 44.22657054581214,51.25361998160224 43.1560247168527,51.36273077714577 42.46086508757435,51.39910102092108 41.459835221408866,51.47184147630469 40.73686920700129,51.49002658350946 40.1807415036601,51.47184147630469 39.80535530380439,51.47184147630469 38.929454170924146,51.49002658350946 38.62358393409522,51.54458188892022 37.95623069006251,51.52639678980631 37.30278063856531,51.56276698536385 37.05252317205304,51.58095207918814 35.94026776525425,51.59913717030577 35.1616889804136,51.653692427571514 34.285787847591564,51.67187750796438 34.0355303810793,51.69006258569425 33.67404737387551,51.74461780284037 32.57569515967043,51.762802869896404 31.477342945407145,51.81735805491917 30.587538619991392,51.81735805491917 30.295571575697977,51.799172995881236 29.280638517055195,51.90828330975637 28.363027806393802,52.126503648541984 28.001544799190015,52.18105867293343 27.4315139031969,52.2174286759182 27.014418125676457,52.326538620487554 26.319258496456314,52.47201839679474 25.498970133892726,52.61749800181133 24.345005149312783,52.908456698060036 23.747167868132237,53.072120663753594 22.91297631303314,53.253969260229496 22.176107106090058,53.45400240734307 21.411431513901334,53.67222001677874 20.771884654997848,53.89043724084331 19.82646755920723,54.108654079638654 19.312049433530774,54.16320822915441 18.213697219383903,54.29050115097925 17.268280123593286,54.43597861538001 16.767765190568753,54.926963793514005 16.378475798119325,55.30883980573708 15.697219361492898,55.490685111151834 15.391349124605767,55.61797666573693 15.363542739476543,56.19987924565066 15.363542739476543,56.818147734884406 15.363542739476543,57.43641313117405 15.210607621062081,57.56370268177125 15.18280123587465,58.30925313120679 15.196704428410158,59.309374719850894 15.224510813539382,59.74578887687676 14.932543769362383,59.65486938790855 14.59886714728782,59.854892175375426 14.557157569506671,60.61861256798147 14.612770339881536,61.709633514146844 14.59886714728782,62.54607638414018 14.654479917662684,63.346146876247076 14.654479917662684,64.21894514288579 14.696189495385624,65.18265273614088 14.682286302791908,65.7099612575912 14.668383110198192,66.74638869205955 14.79351184348343,67.76462472609273 14.83522142120637,68.72830467525637 14.849124613800086,69.11013804859249 13.903707518067677,69.31014553533896 13.30587023688713,69.45560532238596 13.097322348156013,69.43742285837652 13.0,69.21923308148689 13.139031925878953,69.05559049601288 13.430998970172368,69.01922544764966" stroke="#4dd2ff" stroke-linecap="round" stroke-linejoin="round" stroke-width="0.5"><title>2024-06-15 10.5km</title><desc>9223370318393053407</desc></polyline><polyline fill="none" points="186.18341463420074,59.45919238135684 186.23609756096266,59.192719875827606 186.31512195122195,59.442537866620114 186.18341463420074,59.709009832200536 185.9858536585234,59.942172329661844 185.93317073164508,60.32522404687916 186.17024390242295,60.52507664428413 186.45999999996275,60.67496587977803 186.74975609761896,60.758237598514825 186.7102439024602,61.34113805510424 186.288780487841,62.840012289940205 185.97268292680383,63.63940443167667 185.93317073164508,64.17232964697905 185.57756097562378,65.85435975014116 185.36682926828507,66.92018873155757 185.26146341458661,67.43644633254007 184.94536585372407,68.71875424771133 184.68195121956524,69.60137402571854 184.5634146341472,69.96774264421401 184.2736585366074,70.51729353101837 183.9839024390094,70.68382361922704 183.28585365856998,70.58390559331747 182.85121951223118,70.46733446066355 182.31121951219393,70.40072233545652 181.95560975605622,70.35076321787346 181.45512195123592,70.2508449220768 180.44097560975933,70.1176204016374 180.15121951216133,69.86782403801044 179.87463414639933,69.73459910386737 178.92634146340424,69.45149564078747 177.62243902444607,69.25165751086024 176.2263414634508,69.13508511883992 174.5799999999581,69.48480196429591 173.789756097598,69.36822979267163 173.24975609756075,69.30161707371735 172.80195121950237,69.31827025680104 171.60341463412624,69.26831070071785 171.28731707314728,69.45149564078747 170.76048780488782,69.41818930829322 170.23365853657015,69.3515766162891 169.52243902441114,69.3515766162891 169.2721951219719,69.33492343764374 168.7717073170934,69.36822979267163 168.36341463413555,69.31827025680104 167.79707317077555,69.48480196429591 166.69073170732008,69.48480196429591 165.72926829272183,69.30161707371735 164.75463414634578,69.23500431872526 163.27951219514944,68.70210098361713 162.8053658537101,68.41899515012483 161.88341463415418,68.28576865061041 161.38292682927568,68.10258197876101 160.52682926831767,67.93604840456828 159.81560975610046,67.66959421804495 158.94634146342287,67.41979289529263 158.0507317073061,67.00345623272733 156.73365853657015,66.72034649929992 155.89073170727352,66.53715750185802 155.52195121947443,66.40392896917183 154.36292682925705,66.07085700763128 153.50682926829904,65.78774513288954 152.62439024390187,65.50463260818651 151.22829268296482,65.1882119583388 150.72780487808632,65.1215969812256 150.0956097561284,64.90509805705369 148.7390243902919,64.52206056772411 148.0146341463551,64.30556059088849 147.44829268287867,64.12236800586834 146.82926829269854,63.755982019371004 145.74926829268225,63.322978995340236 144.22146341460757,62.92328254651511 142.64097560977098,62.640163444732025 142.1141463415115,62.47362249292928 141.79804878053255,62.34038956955192 140.9682926829555,62.10723160717316 140.27024390251609,61.79080223874189 139.86195121955825,61.69087700631644 138.94000000000233,61.4244093239904 137.83365853660507,61.35779231336346 136.18731707317056,61.09132391119056 134.6463414633763,60.84150926100847 134.33024390251376,61.008052417346335 133.8692682926776,61.65756857755332 133.59268292679917,62.640163444732025 133.54000000003725,63.073168866627384 133.3556097561377,63.65605837952171 133.11853658541804,64.30556059088849 133.0658536585397,64.65529113376397 133.40829268289963,64.93840560859098 133.68487804883625,65.03832820924436 133.8692682926776,65.52128630409425 133.98780487809563,65.65451579049841 134.42243902437622,65.73778414636763 134.77804878045572,65.60455474995251 134.61999999999534,65.42136409482919 134.60682926833397,64.88844427793083 134.5804878048948,65.17155821746564 135.00195121957222,66.05420338590193 134.3697560976143,65.9209743313404 134.3697560976143,65.67116946614988 134.6463414633763,65.85435975014116 133.55317073175684,65.40471038543183 133.59268292679917,65.23817316754139 133.42146341467742,64.97171315112791 133.52682926837588,64.22229126779712 133.67170731705846,63.55613465872739 133.88243902439717,62.573547091000364 134.31707317073597,61.474372058248264 134.55414634151384,60.708274574019015 134.83073170733405,59.69235535124608 134.8702439024928,59.37591978521232 135.17317073175218,58.493226808735926 135.2390243902919,58.17678816517582 135.39707317075226,56.81109628186823 135.42341463413322,55.54531956489518 135.5156097561703,55.128942804389226 135.55512195121264,54.82915066608257 135.62097560981056,53.56335360061348 135.5946341463714,53.21359159349231 135.62097560981056,52.813862370327115 135.63414634147193,51.84784473021864 135.52878048783168,51.18162125773961 135.56829268299043,50.46542700932332 135.56829268299043,49.84916351168067 135.6604878048529,49.51604682488687 136.0819512195303,49.31617638077296 136.46390243904898,49.41611164335336 137.35951219516573,49.53270268063352 137.57024390244624,49.63263776768872 137.91268292686436,49.64929360764654 138.1760975610232,49.71591694500239 138.43951219512383,49.732572773704305 138.79512195126154,49.7658844243706 139.05853658542037,49.86581932241825 139.95414634147892,49.99906572706823 140.30975609755842,50.232246588719136 140.70487804879667,50.148967760193045 141.7585365853738,50.38214833832899 142.64097560977098,50.631984182553424 143.1282926829881,50.99840917158144 143.6287804878084,51.09834307053825 144.45853658538545,51.21493251683569 144.89317073172424,51.29821062530391 145.38048780482495,51.498077856093005 145.80195121950237,51.79787809463596 146.67121951217996,52.047711069884826 147.55365853657713,52.3475099718562 148.3834146342124,52.564030947680294 148.84439024387393,52.69727443611191 149.33170731709106,52.813862370327115 149.77951219514944,52.93045019429701 150.0824390244088,53.047037907999766 150.46439024392748,53.34683437987405 150.83317073172657,53.44676637513476 151.2414634146262,53.51338766032859 152.42682926834095,53.87980408532894 152.70341463410296,53.92976987712609 153.12487804878037,54.11297760698653 154.28390243899776,54.56266815334675 154.87658536585514,54.729219791290234 155.29804878047435,54.84580580397596 155.85121951223118,54.89577120427566 156.1146341463318,55.06232239220117 156.3385365853901,55.31214875225123 156.74682926834794,55.47869937773794 157.15512195124757,55.51200947583129 157.7082926829462,55.62859474829747 158.07707317074528,55.711869875434786 158.94634146342287,55.978349904195056 159.288780487841,56.1782095477829 160.0,56.34475900331745 160.6585365853971,56.44468856866297 161.15902439021738,56.461343488350394 162.17317073169397,56.81109628186823 162.55512195121264,57.09422876897588 163.06878048781073,57.26077698711015 163.27951219514944,57.36070580998057 163.55609756096965,57.64383703494241 164.22780487808632,57.710456052212976 165.20243902440416,57.960277046360716 165.84780487808166,58.026895892675384 166.47999999998137,58.40995356022904 167.23073170735734,58.60980926216871 167.86292682925705,58.87628302752273 168.36341463413555,59.00951969419839 169.08780487807235,58.95955596108979 169.43024390243227,59.09279253780551 169.82536585367052,59.17606532511127 170.23365853657015,59.32595620057691 170.5629268292687,59.6757008680288 170.95804878044873,59.6757008680288 171.7746341463644,60.10871670077904 172.82829268288333,60.341878442355664 173.789756097598,60.724928917763464 174.3692682926776,60.89147223156033 174.83024390245555,61.02470672063646 175.13317073171493,61.15794106568501 175.68634146341356,61.29117526678601 176.05512195115443,61.391100823137094 176.33170731709106,61.60760591743747 177.54341463418677,61.82411063156178 178.08341463416582,62.023960799466295 178.76829268288566,62.27377305385744 179.4663414633833,62.44031427559821 179.9668292682618,62.62350935966242 180.42780487803975,62.62350935966242 180.98097560973838,62.93993659110129 181.23121951217763,63.023206780191686 181.85024390241597,63.35628697420907 182.37707317073364,63.48951879986271 182.74585365853272,63.589442574644636 183.6941463414696,63.97248296113685 184.11560975614702,64.03909855907114 184.94536585372407,64.40548370435863 185.26146341458661,64.33886830436677 185.51170731714228,64.28890673075512 185.60390243900474,64.30556059088849 185.6302439024439,64.55536822271824 185.28780487802578,64.63863732086611 185.57756097562378,64.50540673686191 185.53804878052324,64.45544523070566 185.66975609754445,64.38882985773671 185.7092682927032,64.62198350574909 185.999024390243,64.32221444875904 186.288780487841,63.97248296113685 186.73658536584117,62.407006049194024 186.97365853656083,61.62426013970253 186.98682926833862,61.27452099954098 186.84195121948142,61.02470672063646 186.53902439022204,60.89147223156033 186.22292682924308,60.69162022803357 186.26243902440183,60.35853283562756 186.38097560970346,59.85890005976398 186.3546341463225,59.55911942241801 185.9858536585234,59.37591978521232 186.2756097560632,59.509155912019196" stroke="#4dd2ff" stroke-linecap="round" stroke-linejoin="round" stroke-width="0.5"><title>2023-03-23 10.4km</title><desc>9223370357295491407</desc></polyline><polyline fill="none" points="67.0,115.5844843529776 66.9282339043275,115.89706075234426 66.84849379796651,116.04830692736869 66.80064973421395,116.28021713381168 66.76875369169284,116.340715330065 66.69698759599123,116.36088138457853 66.6331955109199,116.31046623807197 66.39397519195336,116.24996801731322 66.33018310691114,116.21971888855478 66.31423508567968,116.5726246281265 66.21057294742786,117.0465239968762 66.10691080923425,117.52042035722843 66.01919669224299,117.96406528730586 65.89161252212944,118.46820405303151 65.77200236267527,118.93200871064619 65.67631423511193,119.39581048679247 65.57265209686011,119.87977448548918 65.46101594800712,120.36373534685117 65.36532782041468,120.7670336681258 65.30153573537245,120.93843479496718 65.22179562906967,121.43247113524558 65.11015948021668,121.87609281828918 64.94270525695174,122.33987630485353 64.7353809805063,122.78349259615061 64.50413467217004,123.21702415235632 64.24896633194294,123.63038910565956 64.01772002363577,123.96309582039248 63.69875959836645,124.33612885871116 63.40372120498796,124.6688324285933 63.0608387477987,125.01161637422047 62.73390431186999,125.28382603349746 62.606320141785545,125.42497139205807 62.55050206731539,125.50562576287484 62.43089190786122,125.98955015809042 62.31925575900823,126.48355307649035 62.223567631444894,126.91706314902694 62.127879503852455,127.35057070467155 62.02421736562974,127.83448314280395 61.90460720617557,128.35871807840158 61.79297105726437,128.80229861073167 61.681334908440476,129.3265267517054 61.56172474898631,129.84067000741197 61.42616656824248,130.32456630838715 61.37034849380143,130.59675659966888 61.346426461910596,130.677405384311 61.26668635560782,130.687486476294 60.875959834607784,130.6370810028966 60.81216774956556,130.687486476294 60.35764914355241,130.59675659966888 59.911104548111325,130.516107727919 59.456585942127276,130.44553989368433 58.970171293534804,130.3648908585892 58.50767867689137,130.2842417363936 58.06910809213878,130.2035925270975 57.638511517987354,130.12294323073002 57.207914943865035,130.032212668164 56.69757826346904,129.93140080267767 56.21913762553595,129.84067000741197 55.73272297694348,129.77010153485753 55.29415239219088,129.6793705435557 54.791789722425165,129.59872068099503 54.34524512698408,129.53823322689277 53.89072652100003,129.4575832118644 53.444181925588055,129.3769331097501 52.997637330176076,129.29628292054258 52.55906674542348,129.21563264418364 52.12049616067088,129.13498228072422 51.65800354399835,129.05433183020068 51.219432959274855,128.99384393510263 50.725044300052105,128.90311200060387 50.25457767274929,128.82246129962732 49.75221500292537,128.73172915686155 49.28174837568076,128.6510782707628 48.83520378029789,128.57042729756358 48.372711163625354,128.4897762372275 47.886296515061986,128.39904369021679 47.39988186652772,128.227659689539 46.90549320736318,128.08651962892327 46.41907855877071,127.965542221762 45.94063792086672,127.83448314280395 45.45422327230335,127.71350532727229 44.98375664500054,127.59252731576271 44.55316007087822,127.47154910820973 44.08269344360451,127.37073378557398 43.596278795041144,127.23967366258876 43.10986414650688,127.11869488334196 42.62344949794351,127.00779749684443 42.1529828706698,126.87673673682002 41.6426461901865,126.76583899099205 41.22002362672356,126.65494108040002 40.72563496750081,126.51379804693715 40.23124630833627,126.39281809160457 40.04784406378167,126.33232804041472 39.95215593621833,126.32224636046885 39.47371529828524,126.19118439710292 39.27436503247009,126.15085759288922 38.76402835207409,126.00971360650874 38.36532782041468,125.9088963100221 38.17395156528801,125.84840586681094 38.1021854695864,125.84840586681094 37.63969285294297,125.70726130872208 37.13733018311905,125.5862800465402 36.68281157707679,125.45521679130616 36.15652687533293,125.32415330600634 35.63821618430666,125.18300775687385 35.127879503852455,125.0821893441389 34.61754282339825,124.971288932873 34.12315416420461,124.87047023426567 33.62876550501096,124.7595695085256 33.13437684584642,124.6688324285933 32.63201417599339,124.56801332154282 32.13762551682885,124.47727600880899 31.659184878895758,124.38653858580801 31.212640283541987,124.2958010525399 31.037212049617665,124.24539126414311 30.566745422314852,124.1748175032626 30.183992912003305,124.09416169489123 29.697578263439937,124.00342380626535 29.203189604275394,123.89252179268078 28.764619019493693,123.7816196143176 28.302126402850263,123.69088134589401 27.83963378617773,123.60014296715235 27.66420555228251,123.55981476344459 27.584465445950627,123.55981476344459 27.121972829307197,123.44891209089838 26.643532191374106,123.36825549830246 26.157117542839842,123.2875988185915 25.718546958087245,123.19685994974861 25.39958653281792,123.13636730925646 25.319846426486038,123.13636730925646 24.90519787365338,123.04562825660105 24.74571766096051,123.03554613282904 24.66597755465773,123.01538188122504 24.618133490846958,122.96497122834262 24.538393384515075,122.96497122834262 24.044004725350533,122.87423196740565 23.67720023629954,122.79357475396682 23.222681630257284,122.74316395133792 22.768163024215028,122.66250659630896 22.321618428832153,122.60201352286822 21.819255759037333,122.49110942754487 21.38865918488591,122.42053400840814 21.00590667454526,122.36004073891672 20.9181925576122,122.31971186533337 20.631128174834885,122.27938296998036 20.543414057872724,122.28946519587043 20.09686946248985,122.18864287578617 19.650324867106974,122.11806717070431 19.187832250463543,122.02732688046672 18.725339633820113,121.93658647992561 18.438275251042796,121.89625737761526 18.015652687550755,121.81559910765645 17.505316007096553,121.72485844977928 17.034849379822845,121.62403536721831 16.85144713529735,121.59378841591388 16.42085056117503,121.5433768031653 16.189604252838762,121.52321214852418 16.125812167767435,121.57362377489335 16.117838157137157,121.73494075053895 16.085942114616046,121.88617509864707 15.982279976393329,122.10798492168396 15.950383933843113,122.28946519587043 15.854695806250675,122.5415204003948 15.774955699947895,122.9952176241568 15.687241583014838,123.50940447815083 15.599527466052677,124.00342380626535 15.535735381010454,124.40670246710943 15.49586532782996,124.47727600880899 15.424099232128356,124.5276856406199 15.336385115195299,124.557931403353 15.009450679295696,124.60834098068881 14.562906083883718,124.51760371696582 14.116361488500843,124.43694827886065 13.669816893117968,124.36637469903508 13.358830478420714,124.30588300609088 13.29503839337849,124.26555518359964 13.247194329596823,124.20506340897555 13.167454223294044,124.1647355320165 13.0,124.1647355320165 13.063792085071327,124.20506340897555 13.135558180743828,124.1748175032626 13.175428233924322,124.1143256551295 13.183402244525496,124.03366978140548 13.159480212663766,123.96309582039248 13.103662138222717,123.91268580738688 13.063792085071327,123.9832598160283 13.063792085071327,124.08407971270208 13.127584170142654,124.1647355320165 13.191376255184878,124.18489947320631 13.382752510369755,124.32604690922017 13.82929710575263,124.38653858580801 13.996751328988466,124.43694827886065 14.267867690534331,124.46719407835917 14.34760779683711,124.49743986560497 14.626698168955045,124.5276856406199 15.041346721816808,124.5982590679705 15.208800945081748,124.58817715381883 15.336385115195299,124.35629275363317 15.432073242758634,123.87235777250316 15.51181334911962,123.418665878904 15.5915534554224,122.96497122834262 15.671293561754283,122.51127382076811 15.735085646796506,122.06765591197473 15.782929710607277,121.99708009254391 15.814825753128389,121.84584596909554 15.88659184880089,121.79543452654616 16.077968103985768,121.79543452654616 16.516538688738365,121.86601053659251 17.042823390453123,121.95675102291716 17.553160070907325,122.04749139895284 18.047548730071867,122.13823166469228 18.533963378635235,122.18864287578617 19.012404016568325,122.28946519587043 19.522740696993424,122.3902873797997 20.009155345556792,122.47094502890832 20.4796219728305,122.55160259087279 20.950088600133313,122.63226006568584 21.39663319554529,122.72299962073885 21.867099822789896,122.8036569104006 22.361488482012646,122.89439625712112 22.816007087996695,122.96497122834262 23.302421736560063,123.04562825660105 23.812758417014265,123.13636730925646 24.30714707620791,123.22710625160835 24.761665682250168,123.3178450836931 25.20821027760394,123.40858380550344 25.710572947427863,123.49932241702481 26.189013585360954,123.59006091827177 26.667454223294044,123.67071727124858 27.137920850567752,123.7816196143176 27.592439456580905,123.8521937468904 28.01506202010205,123.95301382049365 28.48552864737576,124.04375177036854 28.9799173065403,124.14457158534788 29.47430596576305,124.25547322454804 29.817188422894105,124.33612885871116 29.992616656818427,124.35629275363317 30.431187241600128,124.46719407835917 30.917601890134392,124.557931403353 31.419964559958316,124.63858671075286 31.882457176572643,124.71924193102313 32.25723567631212,124.77973328906955 32.703780271694995,124.88055211023311 33.16627288836753,124.971288932873 33.62876550501096,125.06202564525302 34.08328411108232,125.14268040812749 34.537802717095474,125.24349873918982 34.99232132310863,125.33423512075387 35.45481393975206,125.45521679130616 35.885410513874376,125.5560347003775 36.35587714120629,125.67701601156296 36.82634376848,125.8080788774314 37.29681039575371,125.92905978021008 37.759303012426244,126.0399587688953 38.197873597207945,126.17102099771 38.62049616067088,126.27183794022858 39.122858830494806,126.39281809160457 39.54548139395774,126.51379804693715 39.992025989398826,126.62469616714952 40.41464855286176,126.73559412260511 40.74158298879047,126.83641030286526 41.17217956291279,126.9271447486608 41.331659775576554,126.9573895394642 41.40342587121995,126.9573895394642 41.538984051992884,126.87673673682002 41.6426461901865,126.71543087022292 41.7144122858881,126.43314476517116 41.778204370930325,125.9492232449702 41.84199645600165,125.45521679130616 41.905788541043876,124.971288932873 41.96958062614431,124.50752179195842 42.02539870052715,123.99334181183804 42.089190785598475,123.49932241702481 42.1529828706698,123.06579250005598 42.208800945052644,122.63226006568584 42.2646190195228,122.14831390963082 42.28056704075425,121.95675102291716 42.27259303012397,121.87609281828918 42.200826934480574,121.84584596909554 42.11311281748931,121.84584596909554 42.089190785598475,121.76518764465436 42.073242764308816,121.51312981914089 42.19285292382119,121.00901161516231 42.200826934480574,120.91826997693715 42.176904902560636,120.7670336681258 42.200826934480574,120.44439518540457 42.224748966342304,120.525054936792 42.27259303012397,120.3536528609111 42.27259303012397,120.26291042613593 42.23272297697258,120.1923329006022 42.224748966342304,120.1116727897097 42.27259303012397,119.66804062211304 42.28854105141363,119.58737994475814 42.2646190195228,119.5168017805845 42.256645008863416,119.44622354971216 42.28056704075425,119.36556263269449 42.3363851151953,119.31514951531426 42.352333136455854,119.23448845667008 42.32043709393474,119.1639099588865 42.36828115771641,118.92192603134754 42.44802126401919,118.8815953004887 42.49586532782996,118.8311818562579 42.567631423531566,118.34721105973586 42.62344949794351,117.88340276884264 42.647371529834345,117.64141469055903 42.67129356175428,117.55066895893106 42.647371529834345,117.37926005383633 42.687241582985735,117.20785075518506 42.687241582985735,117.03644106291176 42.71116361487657,116.86503097708191 42.71116361487657,116.76420133095962 42.687241582985735,116.69362049765186 42.75900767868734,116.64320557586325 42.918487891322,116.65328856295673 42.99025398702361,116.63312258740189 43.05404607206583,116.31046623807197 43.08594211458694,115.80631290029123 43.125812167767435,115.30215615755878 43.18163024217938,114.89882831182331 43.25339633785188,114.39466544002062 43.30921441229293,113.96108264686336 43.36503248673398,113.57791436132538 43.40490253988537,113.40649633359135 43.42882457180531,112.9829912833884 43.49261665684753,112.54940029022691 43.56438275252003,112.04522154975712 43.6122268163017,111.53095572601887 43.64412285882281,111.25869591432274 43.71588895452442,110.81501113035483 43.771707028965466,110.36123987326573 43.83549911400769,109.87721415831766 43.90726520968019,109.443605123226 43.91523922031047,109.37301736747759 43.97903130535269,109.312513523706 44.441523922025226,109.4536890829113 44.94388659184915,109.62511618866847 45.390431187232025,109.7662911565858 45.829001772013726,109.89738195913378 46.25162433550577,110.02847253142681 46.66627288836753,110.15956287351582 47.08092144120019,110.29065298532078 47.48759598346078,110.43182669445378 47.97401063199504,110.60325155369355 48.4285292380373,110.74442467155313 48.572061429411406,110.78475979905488 48.60395747196162,110.93601633298385 48.572061429411406,110.2402337388121 48.63585351448273,110.15956287351582 48.70761961018434,110.17973059800715 48.69167158889468,110.26040144150465 48.69167158889468,110.26040144150465" stroke="#4dd2ff" stroke-linecap="round" stroke-linejoin="round" stroke-width="0.5"><title>2021-09-23 13.8km</title><desc>9223370404454820016</desc></polyline><polyline fill="none" points="162.4644031021744,107.31589985705068 162.14928270553355,107.21372601910116 161.42208179010777,106.97872566813021 160.84032105782535,106.80502928723581 160.0323200406856,106.53937522727938 159.45863931856002,106.36567783746432 158.52943814889295,106.01828186112834 157.63255701991147,105.77306021127151 157.48711683682632,105.77306021127151 157.349756663898,106.06936960474559 157.15583641981357,107.00937792922196 157.042716277414,107.47937771061697 157.10735635875608,107.63263787747564 157.1962364706851,107.5713338479909 157.23663652152754,107.08089982347883 157.4143967452983,106.27372023427597 157.50327685714,106.06936960474559 157.98807746739476,106.23285015255533 158.56175818957854,106.39633034697181 158.9819187184621,106.4985052891061 159.91919989831513,106.80502928723581 160.4605605797551,106.97872566813021 160.5413606814691,107.12176944698876 160.37976047801203,108.11285105604475 160.21008026445634,109.05283398528991 160.05656007124344,109.84976688407914 159.95151993897161,110.42191865924542 159.80607975594467,111.22905398327566 159.65255956264446,112.17921491038578 159.43439928803127,113.20088001098338 159.3212791456608,113.69127435819246 159.23239903379,114.0284186278077 159.2000789931044,114.25318063949817 159.02231876933365,115.19308727133466 158.86879857606255,116.11254985084815 158.6587183116062,117.0524333821304 158.61023825060693,117.27718640966486 158.44863804717897,118.2681349782506 158.26279781322228,119.15691285941284 158.09311759966658,120.06611161258479 157.907277365739,120.96508390709641 157.7375971521542,121.85383010765509 157.5194368774828,122.80385760559875 157.49519684701227,122.98773251772218 157.7052771114686,123.24311359885905 158.39207797599374,123.40655703839002 158.61831826076377,123.45763304088177 159.15967894223286,123.54956975841196 159.80607975594467,123.66193670592475 160.54944069162593,123.76408833158348 161.2039215155237,123.88667010034987 161.68872212577844,123.9990365472695 162.48864313270315,124.13183304213453 163.1108039158571,124.24419912493613 163.6360045769834,124.34634996455134 164.04808509568102,124.49957596532477 164.05616510586697,124.68344675675326 163.90264491265407,125.44957024496398 163.71680467866827,126.12375249822071 163.52288443458383,127.00222339130414 163.33704420065624,127.76832340333931 163.20776403794298,128.42205594725237 163.1431239565427,128.9327805676803 163.1269639361999,129.4843592862162 163.16736398707144,130.50579074164125 163.19160401754198,131.40463901826297 163.11888392601395,132.30347661921405 163.0057637836435,132.91631431735732 162.81184353952995,133.8764167338377 162.58560325475992,134.83650697061967 162.44016307167476,135.41868341647933 162.35128295980394,135.64338189958653 162.22200279703247,136.27661949017056 162.07656261397642,136.51152886202908 161.74528219696367,137.11411913411575 161.48672187147895,137.64521166764462 161.31704165789415,138.04352862222004 161.07464135278133,138.5031225036364 160.9696012205386,138.62568040069164 160.6464008137118,139.3712366656473 160.19392024411354,140.2801925886015 159.74143967451528,141.15849917853484 159.28895910497522,142.04700826617045 159.07887884051888,142.31253769357136 158.90111861677724,142.7618930641911 158.64255829129252,143.354221068068 158.3839979658078,143.86484493758326 158.11735763016623,144.3448282343743 157.72951714193914,144.27334155327844 157.44671678598388,144.0793059356729 156.83263601298677,143.74229552300676 156.30743535183137,143.50740859057987 155.5802344364638,143.11933293142647 156.06503504671855,143.43592111863836 156.8730360638292,143.8546324939598 157.75375717246789,144.32440347523516 158.10119760985253,144.42652721582272 158.1819977115374,144.1201555807129 158.3355179047503,143.9567568683051 158.22239776237984,144.1916424065057 157.85071729449555,144.85544542191928 157.7052771114686,145.17202634851856 157.25279654187034,146.08091261988739 157.06695630791364,146.47918518791266 156.89727609435795,146.7753352263826 157.00231622654246,147.0 157.15583641981357,146.95915190892265 157.33359664358431,146.60173017191846 157.78607721315348,145.75412330681866 158.214317752223,144.89629464809695 158.64255829129252,144.0793059356729 159.07887884051888,143.20103323552758 159.32935915581766,142.71083008823916 159.61215951180202,142.13892240417044 160.09696012208587,141.20956320168625 160.56560071202694,140.29040551448998 161.0180812815379,139.36102361575468 161.4948018816358,138.42141712867306 161.8341623088345,137.85969028829277 162.1573627156904,137.052838986594 162.50480315304594,136.3787540892663 162.7552834683156,135.3778290751652 162.9249636819295,134.58116501136828 163.1108039158571,133.75385114610253 163.22392405825667,133.19208966253063 163.36936424134183,132.77331929834327 163.49864440405509,132.01748399505595 163.53096444474068,131.27185528581322 163.4824843837414,130.71007537833066 163.45824435321265,130.01550536360446 163.434004322713,129.07578284371266 163.6198445566406,128.11561952048214 163.72488468888332,127.75810878753691 163.8056847905973,127.49252829249599 163.9107249227818,126.78771399804828 164.03192507536733,126.35869338725024 164.15312522792374,126.00117435349239 164.20160528895212,125.73558769208466 164.2662453703233,125.38828065137932 164.3874455228506,124.92860711694811 164.44400559409405,124.66301669089444 164.47632563475054,124.32591980766301 164.6379258381785,123.65172153580352 164.78336602123454,123.00816303594183 164.95304623484844,122.35438371700002 165.10656642809045,121.73124504549924 165.22776658067596,121.0876702106325 165.30856668238994,120.83228185419284 165.3893667841039,120.58710822102148 165.51056693668943,120.04568029992515 165.68024715024512,119.23863903696474 165.55096698750276,119.00367603858467 164.83184608229203,118.72784897895326 163.90264491265407,118.58482714474667 163.44208433286985,118.554179573679 163.25624409894226,118.51331612625654 162.38360300046043,118.37029388648807 162.1573627156904,118.32943033971969 161.19584150530864,118.09446451769327 160.9372811798239,118.06381674795557 160.33128041704185,118.05360082194238 160.0484800610575,118.00252117130003 159.63639954233076,117.91057771311898 159.12735890154727,117.79820222366106 158.61831826076377,117.76755433391372 158.20623774206615,117.71647449010925 157.71335712159635,117.56323475176032 157.43863677576883,117.56323475176032 156.86495605364325,117.50193876949197 156.18623519927496,117.34869859655737 155.51559435512172,117.27718640966486 154.92575361259514,117.2465383088711 154.7479933888535,117.20567415514233 154.4086329616839,117.13416183304798 154.1177525955136,117.09329761862318 153.4067117004306,116.99113698602014 153.04311124276137,116.94005661801202 152.3159103273938,116.78681530695758 151.62910946278134,116.58249307610095 150.89382853725692,116.40881874595652 150.37670788631658,116.24536018868821 150.20702767270268,116.23514401711873 149.55254684889223,116.06146888961666 149.33438657424995,115.98995548592211 149.0031061572372,115.9490906534702 148.6152656690101,115.83671225037688 148.27590524184052,115.7447661600454 147.62142441800097,115.49957603950315 147.20934389924514,115.43827838521247 147.03966368568945,115.3871969686952 146.78918337039067,115.32589922333864 146.11046251599328,115.19308727133466 145.43174166162498,115.01940975150501 145.10854125479818,114.88659726147307 145.00350112255546,114.69248627962224 145.0762212141126,114.41664350128121 145.13278128526872,113.78322294434474 145.2459014277265,113.13958049407665 145.31862151925452,112.87394868004776 145.37518159043975,112.41419910538389 145.4155816412822,111.89314620954974 145.504461753153,111.56620922675938 145.520621773554,111.38230655297957 145.47214171246742,111.13710229242133 145.48022172268247,110.9736323438483 145.68222197692376,110.45256952506315 145.69838199729566,110.13584331262973 145.66606195661006,109.99280523361085 145.68222197692376,109.42065021267626 145.81958214985207,108.42958573924989 145.93270229225163,107.47937771061697 146.02158240412246,106.79481184062752 146.10238250580733,106.23285015255533 146.19126261770725,105.60957866966783 146.22358265839284,105.36435569472815 146.23974267873564,105.10891425035516 146.28014272960718,104.93521357543796 146.369022841478,104.39367361656332 146.45790295337792,103.7806048326529 146.5548630754347,103.30036414750793 146.59526312627713,102.8916462687921 146.5548630754347,102.67706849825481 146.63566317714867,102.54423433521151 146.65182319746236,102.20703887356649 146.61950315677677,101.82896944695676 146.65182319746236,101.1341342207379 146.61142314659082,100.5619121821801 146.6599032076192,99.94881233623164 146.6760632279911,99.28461522742873 146.6922232483339,98.7225977328344 146.7083832686476,97.71095571684418 146.75686332967598,97.30220762931276 146.7245432889904,96.74017540144268 146.74878331951913,95.78982049450133 146.82150341104716,95.13580587868637 146.97502360431827,94.15477334881871 147.11238377721747,93.18394737799827 147.24166393995984,93.0 148.19510514012654,93.29635944426991 149.07582624876522,93.64381386527384 149.6656669912918,93.87885565651959 149.90806729637552,93.92995160144346 150.42518794734497,94.08323922895215 150.57062813043012,94.19564995831752 150.73222833379987,94.2160882547978 151.13622884239885,94.33871791766433 151.4513492390688,94.461347381628 151.52406933059683,94.61463393194572 151.7745496458956,94.6861675490727 152.2835902866791,94.83945364364627 152.95423113089055,95.11536783081829 153.1319913546322,95.13580587868637 153.29359155803104,95.20733900279447 153.6087119547592,95.35040504801145 153.7783921683149,95.40149999858113 153.9319123615569,95.76938262337353 153.87535229037167,96.44382945387042 153.83495223952923,97.0160826534775 153.81879221915733,97.49636324637686 153.75415213778615,98.43647813114512 153.64911200560164,99.11090117508866 153.6087119547592,99.76488141321897 153.5440718733298,100.76627769298648 153.4713517818309,101.51220712086797 153.43095173098845,102.0231134426358 153.39863169030286,102.44205405107641 153.37439165974502,102.93251815606345 153.30975157840294,103.76016912092746 153.2370314868458,104.34258474102535 153.4067117004306,104.65933521297848 154.02887248361367,104.98630205066002 154.43287299218355,105.1600026082524 154.8691935414099,105.28261452641163 155.09543382620905,105.36435569472815 155.4105542228499,105.48696728156938 155.81455473144888,105.51762014721317 156.08119506706134,105.57892584126239 156.3639954230457,105.73218985895801 156.8568760434864,105.86501842310827 157.1962364706851,106.12045731391845 157.45479679614073,106.18176251931436 157.71335712159635,106.20219757674204 158.46479806755087,106.46785282096243 159.14351892186096,106.61089756597357 159.62831953214481,106.79481184062752 160.14544018308516,106.9072036772559 160.37976047801203,106.97872566813021 160.57368072215468,107.10133463799866 161.1069613934378,107.244378184987 161.57560198334977,107.45894299826614 162.0038425224193,107.41807355691708 162.22200279703247,107.5202471188095 162.55328321404522,107.7041591823945 162.96536373277195,107.84720158933487 163.44208433286985,108.01067829463864 163.67640462779673,108.07198196803802 164.15312522792374,108.20480642328039 164.64600584833534,108.32741340570647 165.14696647893288,108.49088907313853 165.17120650949073,108.65436438727193 165.30856668238994,108.88935953236069 165.48632690616068,108.93022817870951 165.73680722145946,108.83827369333449 165.7772072723019,108.70545035045507 166.32664796392783,108.90979385826358 166.84376861489727,109.03239969799324 166.95688875726773,109.12435394735803 167.13464898100938,109.15500533895829 167.7648897743784,109.36956473247119 167.98305004899157,109.4308673045598 168.62137085251743,109.65564297712262 168.79105106607312,109.70672826409282 169.46977192047052,110.02345627330214 170.0111326019396,110.14606030791037 170.34241301895236,110.18692827528866 170.78681357836467,110.3401829563154 171.20697410724824,110.47300342870585 171.37665432083304,110.49343732684792 171.53017451404594,110.60582366789458 172.12001525657251,110.81016204199841 172.75025604991242,111.04515048983012 173.58249709749362,111.28013820767956 174.188497860363,111.47425794573064 174.30161800273345,111.37208972464578 174.4470581858477,111.17796972439828 174.64097842993215,110.62625753013708 174.802578633331,109.94172013984644 174.9884188672877,109.4104331194103 174.96417883678805,109.24695943928964 174.73793855195981,109.12435394735803 174.52785828753258,108.97109680297581 174.4470581858477,108.86892520089168 174.47129821631825,108.73610191183252 174.58441835874692,108.45002018941886 174.57633834856097,108.14350285753608" stroke="#4dd2ff" stroke-linecap="round" stroke-linejoin="round" stroke-width="0.5"><title>2021-04-05 19.9km</title><desc>9223370419237889829</desc></polyline><polyline fill="none" points="33.75601999100763,181.7658379352215 33.87869150401093,182.1220964784734 35.007269423105754,181.0533190802671 35.350749659352005,179.0129111348797 35.57155838259496,176.68099266535137 35.080872330931015,174.1223308441986 35.915038618957624,173.02112525890698 36.381190368090756,172.72962872017524 36.77373920951504,173.377398270517 37.6815084052505,172.92395978984132 36.23398455255665,172.76201724394923 35.32621535670478,171.49886120574956 35.54702408006415,170.1061421130289 35.129940935992636,169.10208322548715 34.41844616085291,168.9401378050825 33.75601999100763,168.3571332832944 33.903225806425326,167.4502342227497 33.82962289871648,166.93200447321578 33.70695138571318,165.63642464234727 33.0199909133371,165.0534111752204 32.84825079503935,163.20719144748 32.08768741495442,162.59178135357797 31.17991821898613,162.49461117800092 29.53611994558014,162.59178135357797 28.97183098597452,162.33266078789893 28.333939118660055,162.59178135357797 26.10131758300122,162.59178135357797 24.97273966378998,162.26788059774844 24.13857337576337,163.20719144748 24.35938209912274,164.92385241252487 24.629259427660145,167.4826235407818 24.58019082248211,168.97252689886955 24.482053612009622,170.8834748105146 24.60472512501292,171.72558206593385 24.531122217187658,172.98873677411757 24.334847796475515,173.83083579622325 24.13857337576337,175.3530833633704 24.040436165523715,175.9360689433379 23.819627442164347,177.91173056012485 23.7460245344555,179.0129111348797 23.20626987738069,181.7334507656342 22.691049523069523,184.58350303809857 22.200363471289165,186.88294953666627 22.10222626081668,188.27556012575224 21.979554747929797,189.5062317551201 21.709677419508807,190.089179019531 21.415265788324177,190.5101955068967 21.36619718314614,191.1579115724453 20.97364834183827,192.9067352184793 21.636074511683546,193.55444407598407 23.868696047342382,193.61921485458151 24.629259427660145,193.78114171582274 26.273057701066136,193.97545378866198 27.548841435695067,194.20215098535118 28.01499318506103,194.2669215691858 29.119036801508628,194.49361845904787 31.204452521633357,194.78508553821302 33.633348478004336,194.59077419589448 35.17900954117067,195.1413225437136 35.64516129042022,195.30324826049036 38.02498864172958,195.85379478691902 40.60109041351825,196.08049000633764 41.92594275344163,196.37195493778563 42.61290322593413,196.4043399058719 44.60018173570279,196.7605742327869 46.61199454800226,196.95488361733442 48.99182189931162,197.37588668236276 51.07723761931993,197.5701955116383 51.66606088145636,197.50542592145212 52.37755565647967,197.63496508249955 53.67787369375583,197.69973463394854 54.1685597456526,197.60258029957185 57.1617446616292,197.34350186037773 59.909586551599205,197.08442310961254 62.82916855986696,196.37195493778563 64.57110404374544,195.4004036320839 65.38073602912482,194.55838895516354 66.48477964568883,192.68003665813012 66.7055883690482,191.7408543657948 66.92639709229115,190.86643958404602 66.92639709229115,190.31588030737475 66.9754656975856,189.57100375131995 66.77919127664063,188.43749100517016 66.53384825086687,187.53067651229503 66.1903680145042,186.72101748843852 65.28259881888516,185.03691696719034 64.81644706963561,184.03292769780091 64.3993639255641,183.35280327507644 64.08041799184866,182.38119323077262 63.81054066342767,181.9277737097873 62.92730577022303,180.4379599900858 61.92139936401509,178.55948452137818 61.43071331223473,177.52307724802813 60.792821444920264,176.2923371319339 60.30213539302349,175.22353079779714 59.78691503859591,174.83487263369898 58.73194002720993,175.32069522926759 57.60336210823152,175.741740592086 56.81826442538295,176.13039711931197 56.27850976830814,176.61621679193922 55.22353475703858,177.32875032888842 53.8986824171152,178.42993388490868 52.205815538414754,179.72543674125336 50.97910040896386,180.9885445219843 50.120399818290025,181.70106359127385 49.237164925201796,181.9277737097873 48.47660154476762,182.54312854257296 47.004543389426544,183.77383293291496 46.02317128586583,184.58350303809857 44.40390731499065,186.75340390780184 43.49613811902236,189.6033897420857 43.32439800107386,192.03232517070137 43.20172648795415,193.10104808032338 43.22626079060137,194.20215098535118 42.784643343882635,195.4004036320839 41.99954566115048,196.46910982724512 39.10449795552995,196.01571996798157 36.47932757856324,195.65948440888315 33.854157201363705,194.65554466287722 31.96501590195112,194.78508553821302 30.713766469853,194.62315943172143 29.045433893799782,194.4612332036777 26.910949568497017,194.23453627976414 25.31621990003623,193.94306845532265 23.255338482675143,193.5868294677639 22.715583825600334,193.42490246033412 21.734211722039618,193.4572878715844 21.047251249547116,193.16581899527228 21.120854157255962,193.03627714586037 19.256247160490602,192.87434972453048 18.422080872463994,192.42095229691768 17.0726942300098,192.06471079141193 15.527033166843466,191.5789259704179 14.594729668460786,191.35222601226997 13.736029077786952,190.44542379314953 13.662426170078106,190.86643958404602 13.490686051780358,190.672124705874 13.932303498499095,190.73689635141636 14.422989550279453,191.2550688143092 15.281690140953287,191.61131165917323 17.68605179467704,192.35618115800025 19.05997273977846,192.7124221814156 19.796001817448996,192.74480769972433 19.99227623816114,191.61131165917323 20.065879145869985,190.44542379314953 20.237619264051318,189.5062317551201 20.65470240812283,188.6641940317204 21.26805997279007,186.2676071052265 21.439800090971403,184.03292769780091 21.783280327217653,182.34880615380825 22.200363471289165,179.59588680640445 22.617446615244262,177.97650604388036 22.813721035956405,177.84695505685522 24.60472512501292,177.65262843001983 26.56746933213435,176.94009596464457 28.481144934194162,177.0048717407335 29.168105406686664,176.45427702285815 29.2171740118647,173.60411715276132 30.44388914143201,173.02112525890698 32.921853702981025,172.56768602805096 34.46751476614736,172.95634828446782 35.59609268512577,172.8591827860946 36.945479327696376,172.43813178670825 35.86597001366317,172.79440576287743 35.39981826453004,173.40978669682227 33.48614266247023,172.53529747505672 30.66469786479138,172.72962872017524 29.364379827515222,173.11829068412771 28.87369377561845,173.63650554494234 28.898228078265674,176.51905294503376 28.9227623809129,179.46633679354272 29.2171740118647,181.66867641193676 30.591094956966117,182.2192577971582 31.351658337167464,183.51473785637063 31.32712403452024,185.65226291534782 31.228986824280582,188.27556012575224 31.30258973198943,190.54258135645068 31.498864152817987,193.26297533117759 32.921853702981025,193.55444407598407 33.92776010907255,193.52205867932935 35.32621535670478,191.9351682796405 37.06815084058326,190.1863367435435 37.6815084052505,189.37668770423625 38.7610177192837,188.11362912463665 39.54611540224869,186.85056313675886 40.527487505809404,184.324408935674 40.625624716165476,182.47835443244549 40.57655611098744,180.9885445219843 40.625624716165476,178.17083237842598 40.650159018696286,176.68099266535137 40.552021808340214,174.05755420101923 40.625624716165476,171.14258508602506 40.625624716165476,168.68102487911528 40.674693321227096,166.47855241921206 39.66878691513557,165.18296985985944 39.05542935046833,165.2477491730533 36.77373920951504,165.1505801960011 34.197637437609956,165.21535951888654 32.57837346661836,165.11819052729697 29.78146297147032,165.18296985985944 27.475238528102636,165.21535951888654 25.733303044107743,165.96032033093798 25.757837346754968,167.96846272514085 25.83144025458023,169.52314074832248 25.806905951933004,171.5636386187689 25.61063153122086,173.8632241543528 25.144479781971313,176.58382884779712 25.29168559750542,177.8145672978426 27.94139027723577,177.9441183044546 29.045433893799782,179.20723653413006 28.97183098597452,180.9885445219843 29.437982735107653,181.79822509983205 31.204452521633357,182.3164190719399 31.32712403452024,185.06930363982974 31.449795547523536,187.1420405607496 31.547932757879607,189.37668770423625 31.498864152817987,191.67608302224835 31.670604270882905,193.39251704423805 33.854157201363705,193.4572878715844 35.42435256706085,191.83801134464738 36.601999091450125,190.73689635141636 38.19672875967808,188.63180789962644 39.742389822844416,186.2676071052265 40.35574738762807,184.84259682874836 40.35574738762807,183.67667231576343 40.45388459798414,181.34480435136356 40.625624716165476,178.62425981028355 40.47841890051495,177.0048717407335 40.60109041351825,173.96038919956482 40.50295320316218,171.72558206593385 40.625624716165476,169.36119564464025 40.625624716165476,167.83890571647498 40.42935029533692,165.76598297625605 39.25170377106406,165.11819052729697 36.381190368090756,165.2477491730533 34.32030895061325,165.11819052729697 34.00136301689781,166.83483625634108 33.95229441171978,168.06563043041388 32.77464788744692,168.87535960282548 30.640163562027737,168.74580313985643 28.72648796008434,168.74580313985643 27.916855974588543,168.97252689886955 26.861880963202566,168.9077487064351 25.757837346754968,169.4259737006796 25.586097228573635,172.4057432141999 25.242616992327385,175.45024773629848 24.99727396655362,177.58785284873738 26.371194911422208,178.00889377851854 28.824625170440413,178.073669233112 29.045433893799782,180.27602309508075 29.143571104155853,181.53912764621782 30.983643798390403,182.25164489359304 33.75601999100763,182.1868706958776 35.59609268512577,181.21525539067807 36.626533393980935,179.98453637724742 37.23989095876459,178.33277085651935 37.11721944576129,176.0008450215828 36.50386188097764,174.4138254976133 35.71876419824548,173.53934035349812 32.77464788744692,172.43813178670825 30.49295774649363,172.8591827860946 29.094502498861402,173.5717287555599 28.996365288621746,175.80651672869863 29.045433893799782,178.7538103297702 29.045433893799782,181.18286813834857 30.026805997360498,181.79822509983205 32.30849613819737,182.54312854257296 34.76192639709916,181.83061225968413 36.77373920951504,179.85498659820587 37.3870967742987,177.879342810862 36.896410722401924,175.41785961682035 35.64516129042022,173.5717287555599 34.124034529784694,172.63246311951661 31.376192639931105,172.5029089172167 29.87960018182639,173.08590221393388 29.119036801508628,173.4421751183254 29.045433893799782,175.1263663226564 29.069968196447007,177.19919895213388 29.045433893799782,180.308410483849 29.29077691968996,181.6362892278412 32.11222171748523,182.41358030290576 35.05633802828379,181.6362892278412 36.55293048627209,180.27602309508075 37.09268514311407,178.65664744746755 37.19082235347014,176.45427702285815 36.47932757856324,174.7377079831349 35.52248977741692,173.4421751183254 34.173103135079145,172.76201724394923 32.333030440844595,172.34096605457307 29.904134484473616,173.02112525890698 29.143571104155853,173.5717287555599 28.898228078265674,175.57980016540387 28.947296683327295,178.3003831706883 29.069968196447007,180.5027347139112 29.65879145846702,181.7334507656342 32.259427533019334,182.41358030290576 33.68241708306596,182.1544835896202 36.08677873702254,180.7618334146391 36.77373920951504,179.69304926485347 37.215356656117365,178.72142270725453 37.36256247165147,177.2639746502973 36.871876419871114,175.41785961682035 35.473421172238886,173.4421751183254 33.53521126776468,172.4057432141999 31.204452521633357,172.5029089172167 29.143571104155853,173.53934035349812 28.996365288621746,176.48666498636885 29.143571104155853,178.85097316814063 29.119036801508628,181.31241711850453 29.977737392182462,181.7658379352215 32.40663334855344,182.41358030290576 35.25261244899593,181.5715148449235 35.86597001366317,181.0533190802671 36.84734211722389,179.69304926485347 37.288959563942626,178.88336077127315 37.3870967742987,176.94009596464457 36.74920490698423,174.86726084089605 35.42435256706085,173.40978669682227 33.854157201363705,172.6972401914536 32.11222171748523,172.4057432141999 30.12494320771657,172.92395978984132 29.119036801508628,173.53934035349812 29.069968196447007,175.70935251645278 29.020899591152556,178.46232155135658 28.996365288621746,181.2800298807415 30.713766469853,182.1544835896202 33.24079963658005,182.34880615380825 35.620626987772994,181.2800298807415 36.77373920951504,179.9197614974837 37.2644252612954,178.7538103297702 37.09268514311407,175.87129284573894 35.620626987772994,173.53934035349812 32.995456610573456,172.4705203543126 30.54202635178808,172.8591827860946 29.168105406686664,173.50695194666332 29.045433893799782,175.8389047896344 29.094502498861402,178.62425981028355 29.094502498861402,181.21525539067807 30.19854611554183,181.83061225968413 32.50477055890951,182.41358030290576 34.61472058168147,181.83061225968413 36.72467060433701,179.9521489397739 37.3870967742987,177.52307724802813 37.23989095876459,176.45427702285815 36.896410722401924,175.19114264426753 35.129940935992636,173.15067914947576 32.602907769265585,172.34096605457307 30.591094956966117,172.6000745761703 29.487051340402104,173.08590221393388 29.2171740118647,171.919914041835 30.14947751024738,171.59602731792256 32.08768741495442,171.5636386187689 32.57837346661836,172.24380027850566 34.73739209456835,172.98873677411757" stroke="#ff0000" stroke-linecap="round" stroke-linejoin="round" stroke-width="0.5"><title>2019-05-31 22.2km</title><desc>9223370477539874177</desc></polyline><polyline fill="none" points="164.1646635781508,168.51657223814982 162.49879814661108,167.35590427802526 158.98197112511843,166.8061130339629 158.19531244924292,166.86720098677324 156.1129806600511,167.47808000916848 154.1694709903095,168.27222136428463 152.92007191688754,168.69983529715682 152.5036055590026,171.75420743686846 152.6424276784528,174.5642095177027 152.54987959889695,176.82441447430756 152.6424276784528,178.35157286463073 152.6424276784528,181.34478665271308 152.73497575777583,183.78821012555272 154.40084118931554,184.70449013786856 156.57572105759755,185.68185320601333 156.80709125637077,188.00308106670855 156.8533652962651,190.93513940216508 156.76081721670926,193.68392486826633 156.94591337558813,195.88293984677875 156.76081721670926,197.59327659889823 156.76081721670926,199.73118741097278 156.89963933615945,203.51831608411158 157.31610569381155,204.73996296228142 157.9639422504697,206.9389180833241 161.5733173515182,206.9389180833241 162.31370198749937,206.75567227797 164.8125001345761,203.7015633500996 167.4963944402989,201.0750113046961 169.81009642849676,198.081942919438 171.9387022573501,195.21101986631402 173.14182729064487,192.76766511323513 174.39122636429965,189.83562000701204 174.80769272218458,188.91935157042462 174.7151446423959,187.6365722863993 174.6225965633057,185.0710015639197 174.76141868229024,182.44432903459528 174.7151446423959,180.55067085890914 174.7151446423959,178.7791761851404 174.7151446423959,177.31310578400735 174.7151446423959,173.64790662776795 174.437500404194,170.9600728903897 174.53004848374985,170.10484933434054 174.80769272218458,168.8830982731015 174.7151446423959,165.15673483593855 174.6225965633057,163.62952682803734 174.7151446423959,161.98013572880882 174.4837744438555,160.39182685740525 174.80769272218458,159.71984815731412 174.57632252341136,156.6042960190971 173.78966384776868,153.73307974784984 170.92067338270135,153.06109002939775 167.1262021223083,153.06109002939775 163.6093751010485,153.06109002939775 159.8149038408883,153.0 157.2235576142557,153.06109002939775 153.47536039398983,153.06109002939775 149.81971125327982,153.06109002939775 147.64483138453215,153.36654003939475 146.11778807244264,155.01596612256253 145.97896595322527,157.03192223754013 146.11778807244264,159.04786834528204 146.3954323111102,162.34666766313603 146.30288423155434,165.03455840682727 146.07151403278112,167.1115527060174 145.74759575445205,170.53246133736684 145.4699515157845,172.6094275197247 145.0997591977939,175.72485687726294 145.88641787366942,177.129846611846 148.43149006040767,177.37419215630507 152.31850940012373,177.4963648735138 152.68870171811432,179.63438147501438 152.59615363855846,183.17735563535825 152.8275238375645,184.03255166416056 154.77103350730613,184.70449013786856 158.14903840934858,185.62076808317215 161.61959139141254,185.43751265940955 164.67367801535875,183.78821012555272 167.0336540429853,181.34478665271308 168.23677907674573,177.8628828045912 168.14423099695705,174.1366017596447 167.0799280826468,171.50985851109726 165.13641841267236,169.06636116671143 165.59915881045163,167.96678256531595 166.24699536710978,167.661343536427 168.32932715606876,169.61614935097168 167.31129828165285,168.27222136428463 167.17247616220266,167.41699214818073 166.57091364520602,167.47808000916848 165.3215145720169,167.17264061278547 162.08233178895898,167.35590427802526 158.5655047672335,166.74502507210127 156.15925469994545,167.17264061278547 154.215745029971,168.0278703434451 153.10516807576641,168.76092296495335 152.54987959889695,172.12073054999928 152.59615363855846,174.93073009478394 152.68870171811432,178.84026233691839 152.68870171811432,181.6502153906622 152.8275238375645,183.72712471781415 154.53966330830008,184.76557539845817 156.80709125637077,185.7429383197159 156.89963933615945,189.34694376471452 156.89963933615945,192.82874916115543 157.08473549503833,195.27210354694398 156.89963933615945,198.32627585940645 156.8533652962651,201.31934244392323 156.80709125637077,203.76264575362438 157.2235576142557,206.20593436568743 159.16706728423014,206.87783615742228 162.08233178895898,206.81675422238186 164.5811299358029,203.76264575362438 167.0799280826468,201.4415079584869 169.25480795139447,198.75385815047775 171.3834137802478,195.944023426302 173.14182729064487,192.5233288294694 173.78966384776868,191.24056092830142 174.80769272218458,188.36958951628185 174.6225965633057,184.70449013786856 174.6225965633057,182.62758580874652 174.57632252341136,181.16152929951204 174.7151446423959,179.9398114992655 174.76141868229024,177.06876020261552 174.7151446423959,174.6863830802031 174.57632252341136,171.57094575639348 174.4837744438555,170.59354872978292 174.66887060296722,168.2111336228263 174.6225965633057,164.30149905904545 174.76141868229024,162.04122440741048 174.7151446423959,160.20856004947564 174.7151446423959,158.25370895196102 174.29867828497663,155.07705584861105 173.41947152954526,153.7941696671187 170.59675510437228,153.30545005571912 167.218750202097,153.24436006287578 163.6093751010485,153.36654003939475 159.53725960222073,153.18327006095205 155.83533642161638,153.30545005571912 152.8275238375645,153.24436006287578 149.81971125327982,153.1221800498315 147.5060092653148,153.36654003939475 146.07151403278112,155.07705584861105 146.11778807244264,157.58172671395005 146.25661019166,161.06380444570095 146.34915827121586,163.99605727376183 146.02523999288678,167.5391678608139 145.51622555567883,171.0211602183408 145.14603323768824,174.1366017596447 145.14603323768824,175.2972503413621 145.7013217145577,176.27463604783406 145.7938697943464,177.00767378421733 147.96874966286123,177.37419215630507 151.57812476390973,177.4352785195806 152.5036055590026,177.55745121839573 152.8275238375645,180.91718603344634 152.8275238375645,183.60495387486299 153.4290863540955,184.52123430080246 155.603966223076,185.0710015639197 158.84314900590107,185.68185320601333 162.31370198749937,185.0710015639197 165.41406265133992,183.29952660683193 166.478365565883,182.44432903459528 167.35757232131436,180.6728426204063 168.56069735484198,177.31310578400735 168.46814927551895,175.6026836273668 168.00540887773968,173.34247187149595 166.84855788387358,171.0211602183408 164.53485589614138,168.63874761990155 161.38822119263932,167.17264061278547 160.55528847686946,166.92828893035767 158.75060092634521,166.62284912061295 155.8816104612779,167.41699214818073 153.38281231443398,168.45548453342053 152.68870171811432,170.71572348670452 152.73497575777583,174.25877545078401 152.78124979767017,177.9850553747674 152.73497575777583,181.34478665271308 152.8737978769932,183.66603930096608 153.52163443365134,184.39906369676464 155.3725960238371,184.94883112536627 157.45492781302892,185.55968295110506 158.75060092634521,185.8651085193851 161.89723562984727,185.31534233118873 162.82271642517298,184.94883112536627 165.55288477055728,183.17735563535825 167.72776463930495,180.42849906045012 168.46814927551895,177.06876020261552 168.14423099695705,173.83116737107048 167.45012040087022,172.12073054999928 166.52463960577734,170.2881116766075 165.27524053212255,169.12744877964724 162.40625006728806,167.5391678608139 159.67608172167093,166.86720098677324 155.97415854106657,167.35590427802526 153.29026423487812,168.33330909657525 152.78124979767017,168.8830982731015 152.68870171811432,172.36507910839282 152.8275238375645,175.84703009066288 152.78124979767017,179.32895122113405 152.78124979767017,183.29952660683193 153.15144211566076,184.2158077218046 156.6219950974919,185.43751265940955 160.50901443720795,185.62076808317215 162.96153854439035,184.8266606500256 163.97956741903909,184.4601490033092 166.80228384421207,187.27006317555788 168.46814927551895,189.16369002210558 169.81009642849676,190.38538007659372 170.6893031836953,190.62971764669055 171.10576954158023,190.812970727653 173.23437537043355,190.4464644829277 174.57632252341136,189.40802832721965 174.8539667618461,188.49175892595667 174.9927888812963,187.3311480502307 174.76141868229024,186.10944880871102 174.8539667618461,183.29952660683193 174.57632252341136,181.16152929951204 173.46574556920677,180.79501434546546 173.14182729064487,179.9398114992655 172.67908689333126,178.65700385373202 171.29086570069194,177.00767378421733 170.96694742236286,175.72485687726294 172.49399073445238,173.83116737107048 171.79988013813272,172.97594986096374 170.36538490536623,171.32659672014415 168.88461563340388,169.49397426325595 169.34735603095032,169.00527354463702 169.6712743092794,167.8446069813799 168.56069735484198,167.47808000916848 167.6352165597491,166.5006731323956 167.4963944402989,168.8830982731015 166.94110596366227,167.78351917554392 165.78425496956334,167.47808000916848 165.27524053212255,166.92828893035767 166.43209152622148,165.8287045402394 167.4963944402989,164.66802889836254 168.9308896730654,165.76761643122882 169.5787262294907,167.661343536427 169.53245218959637,168.94418591354042 168.74579351395369,169.3107115626044 167.86658675852232,168.63874761990155 169.25480795139447,167.60025570329162 169.6712743092794,166.98937686465797 169.11598583194427,166.1341449470783 167.6352165597491,164.484764020046 166.61718768510036,165.4621757485438 165.13641841267236,166.92828893035767" stroke="#4dd2ff" stroke-linecap="round" stroke-linejoin="round" stroke-width="0.5"><title>2019-05-27 11.1km</title><desc>9223370477886856384</desc></polyline><polyline fill="none" points="43.036769122845726,266.62649665385106 42.82928800265654,266.4770943715157 42.74440936258179,266.38994279109465 42.78213320262148,266.03510946167444 42.75384032257716,265.6117955450609 42.70197004254442,265.4001369629659 42.35302452222095,265.32543367553444 42.079526681947755,265.2258290824975 42.15497436202713,265.08264706001864 42.23042204210651,264.83363366702906 42.522781802370446,264.8025068875577 42.54164372239029,264.7713800846723 42.52749728236813,264.42275829269784 42.414325762249064,264.0367807400071 42.31530068218126,263.57609314172805 42.20212916206219,263.14652846314857 42.13611244200729,262.89127777392787 42.02294092188822,262.65470255848413 41.961639681831,262.46793169615194 41.91920036179363,262.24380554855816 41.815459801699035,261.93251721857087 41.63155608152738,261.4904837662252 41.41464400131372,260.8803453282053 41.26846412118175,260.59395071379913 41.16943904108484,260.2701978931036 41.084560401010094,259.9837990554188 40.96195792089566,259.6102323748273 40.796916120743845,259.0934595732906 40.55171116051497,258.37743839798713 40.41024676035158,257.92291417883825 40.29707524026162,257.574234680942 40.2027656401915,257.4559320408116 40.12731796011212,257.15706070626766 40.09902508009691,256.8083747538549 40.0330083600129,256.36005992534047 39.98585355997784,255.8307931107738 39.976422599953366,255.31397309894237 40.08487864007475,255.18321038576323 40.12731796011212,255.0275399502134 40.5752885605325,254.9901789585274 41.16943904108484,255.00885945858317 41.44293688135804,254.89677633163592 41.46651428137557,254.36749079604488 41.494807161419885,253.8693335175194 41.50895360141294,253.54552806955326 41.48537620136631,253.14076769526946 41.46179880137788,252.636368455278 41.45236784135341,252.2004629231742 41.45236784135341,251.73341618419 41.42879044136498,251.2601367759744 41.348627281258814,250.54398000647052 41.33919632123434,250.34469939585324 41.28261056120391,249.89631451157038 41.18830096110469,249.5226567283098 41.14114616106963,249.1489955694342 41.06569848099025,248.66323101619855 40.9808198409155,248.29578993610994 40.95724244089797,248.0466754826739 40.9148031208606,247.81624327737154 40.820493520761374,247.44256670195682 40.768623240699526,247.10002687531232 40.74033036068431,246.82599297132765 40.6413052805874,246.41493871089915 40.542280200490495,245.96028302802006 40.471548000437906,245.6426439002753 40.447970600420376,245.35614377087768 40.405531280383,245.0135866631099 40.34423004029668,244.66479832894402 40.38666936036316,244.49663147391402 40.35837648031884,244.24126568270367 40.627158840565244,244.2225803189831 40.66959816063172,244.23503722906025 40.768623240699526,244.06686862641436 41.23074028114206,243.70561524172444 41.523100041405996,243.3069871548214 41.6598489615717,242.88966925935893 41.77773596168845,242.43497481799204 41.86733008176088,242.235655130542 42.0983886019676,241.76849584843148 42.070095721952384,241.61900376351332 42.18798272204003,241.3324757568298 42.235137522104196,241.12692183331455 42.35302452222095,240.76564276427962 42.37188644224079,240.41681859903474 42.39546384222922,240.22994730003848 42.41904124227585,239.7752236113156 42.42847220227122,239.33295330869805 42.44733412229107,238.84707343846094 42.414325762249064,238.5293796669721 42.40489480225369,238.22414217542973 42.41904124227585,237.8815259803523 42.40961028225138,237.5700542483828 42.381317402236164,237.15267844881237 42.42847220227122,236.94710374512215 42.390748362231534,236.7539871832596 42.42847220227122,236.29922526484006 42.40489480225369,235.88806634796856 42.41904124227585,235.28377991286106 42.42375672227354,234.9099900676083 42.414325762249064,234.65456506296687 42.38603288223385,234.24961974826874 42.42847220227122,233.91320062423983 42.40961028225138,233.70137977125341 42.40017932225601,233.27150470392007 42.40489480225369,232.87277600781817 42.40017932225601,232.22483367413224 42.40961028225138,231.6204936900358 42.390748362231534,231.22797948319567 42.40017932225601,230.74823483551154 42.40961028225138,230.19994842035885 42.40017932225601,230.0192615312335 42.42375672227354,229.65788538351262 42.414325762249064,229.09089230179234 42.44733412229107,228.44912151789686 42.560505642410135,227.95065189771776 42.52749728236813,227.69518388743745 42.58879852242535,227.14685697279492 42.640668802458094,226.66083385338789 42.67839264249778,226.34304641592098 42.73026292255963,226.11249321622017 42.74440936258179,225.7323891870983 42.78213320262148,225.24634943401543 42.81514156263438,224.89116292279505 42.862296362698544,224.62321318378963 42.96132144279545,224.2244010528957 42.98961432278156,223.88790032393445 43.00847624283051,223.57009156411732 43.003760762832826,223.35198609910003 43.02262268285267,223.17750089830952 43.065062002890045,222.8970767107894 43.0792084428831,222.4920161916416 43.121647762920475,222.18666025259154 43.16880256298464,221.96231567590803 43.17823352298001,221.68811509483203 43.20652640299522,221.43884026051455 43.22067284301738,221.20825970002625 43.22067284301738,220.98390981163902 43.267827643081546,220.56636649870416 43.21124188302201,220.22983598194696 43.11693228292279,220.07403388862076 43.03205364284804,219.9556239048361 42.97546788278851,219.89953484671787 42.65481524250936,219.70010646791707 42.34830904219416,219.61285624953962 42.14554340203176,219.5754632424032 42.088957641943125,219.56923107126931 41.90033844177378,219.50067712663804 41.63155608152738,219.49444494420823 41.098706841032254,219.38849769919398 41.10342232102994,219.12674451747444 41.17887000110932,218.67802091972408 41.183585481107,218.67802091972408 41.17887000110932,218.54714228579542 41.24488672116422,218.01115879326244 41.292041521228384,217.59981790923484 41.34391180126113,217.0700546770713 41.40049756129156,216.39070129815445 41.4193594813114,215.99804241648235 41.33919632123434,215.3311370344345 41.30618796122144,214.73901575752825 41.273179601179436,214.47100017917546 41.325049881241284,214.15935197156432 41.35805824128329,213.4550183621286 41.315618921245914,213.0124663232673 41.310903441219125,213.11842991916637 41.3533427612565,213.83523534185952 41.25431768115959,214.31517636923672 41.296757001196966,214.57696003423916 41.315618921245914,215.05065959267085 41.33919632123434,215.39346509624738 41.39106660129619,216.02297325008112 41.40049756129156,216.30344409138706 41.348627281258814,216.93293838105456 41.296757001196966,217.46893586010992 41.23074028114206,218.05478561652853 41.183585481107,218.5035159823674 41.14586164109642,218.771505404442 41.084560401010094,219.28255018253913 41.10342232102994,219.4196586818107 40.99025080091087,219.86837422596 40.99496628090856,220.14881896673614 40.88179476081859,220.60999062428527 40.67431364062941,220.96521393263174 40.480978960433276,221.37652131698997 40.38195388033637,221.60086907386358 40.235774000233505,221.87507023383296 40.09902508009691,222.13057422261045 39.88682847988093,222.59795548003967 39.6274770796299,223.12764784849787 39.30682443935075,223.781964342219 39.0191801590845,224.26178985365914 38.740966838784516,224.72914700918045 38.722104918793775,224.77899812717442 38.65137271871208,224.90362565907708 38.58535599865718,225.0407155100911 38.41088323848089,225.38966944262938 38.146816358261276,225.74485166971863 37.85917207796592,226.17480501864338 37.712992197833955,226.34927756564502 37.56681231770199,226.5798294444976 37.28388351743342,226.95992568014844 36.93965347710764,227.42725232661178 36.718025916896295,227.76372424029978 37.01510115718702,227.9942682294677 37.316891877446324,228.243503527985 37.62339807776152,228.4865064970727 37.524372997664614,228.62981527067677 37.53851943768677,228.83543133886633 37.510226557642454,228.99743115704769 37.40648599754786,229.41488930083142 37.368762157537276,229.70773055721656 37.42063243757002,230.13141210711183 37.496080117620295,230.38686506073282 37.453640797612024,230.54262828206265 37.59510519774631,230.79807869445722 37.618682597763836,230.98499263021586 37.63754451775458,231.37127875257647 37.63754451775458,231.75756126525448 37.56681231770199,231.89462838594773 37.5290884776914,232.00054357704357 37.43477887759218,232.1936823445394 37.46778723760508,232.36189924551581 37.58567423772183,232.52388524394337 37.67055287779658,232.67341021760512 37.74600055787596,233.06591070025024 37.87803399801487,233.39610663276835 37.948766198038356,233.59546893776132 38.12323895821464,233.82598040445373 38.22697951833834,234.10010047556716 38.28356527836877,234.27453957448233 38.22226403831155,234.4053684156388 38.45332255854737,234.69817432182026 38.53348571862443,235.1841029512434 38.62307983869687,235.34607789184884 38.75511327883578,235.58903911287416 38.901293158967746,235.8319989061347 38.98617179901339,235.98151191540092 39.17950647920952,236.33660314542067 39.27853155930643,236.57332893780767 39.297393479326274,236.69792091570343 39.3917030794255,236.9595628471725 39.78308791978634,236.99071058585105 39.83967367984587,237.27103917819113 39.8632510798634,237.54513640847654 39.858535599836614,237.813002400635 39.858535599836614,238.0746372758149 39.83967367984587,238.4670864843647 39.84438915984356,238.82215636812543 39.787803399784025,239.03395098731562 39.82081175982603,239.28311973861491 39.78308791978634,239.28934893816768 39.88211299988325,239.85620216841926 39.91512135989615,240.2174891834111 40.0,240.491566882185 40.028292880015215,241.014801080717 40.04715480003506,241.35116242647564 40.03772384003969,241.55671523529963 40.12260248011444,241.81832642330846 40.2027656401915,242.07370717706362 40.231058520206716,242.39137371845572 40.19333468016703,242.77132461206565 40.22634304020903,243.0578426491993 40.27349784024409,243.33813011250095 40.35366100032115,243.66201548187018 40.34894552032347,243.85509978363552 40.301790720259305,243.94852734797314 40.36780744034331,244.32223549453556 40.35837648031884,244.47171780759527 40.405531280383,244.65856993911075 40.41024676035158,245.03227166942088 40.46683252044022,245.33745891087892 40.42439320037374,245.54922016311684 40.54699568048818,245.96651122183175 40.58471952052787,246.2654634214632 40.66016720063635,246.47099180516307 40.735614880686626,246.7450280613084 40.79220064074616,246.98169427588073 40.83463996075443,247.24949914854005 40.86293284082785,247.47370654553015 40.88179476081859,247.75396408259985 40.95724244089797,248.015536070503 41.02797464095056,248.432802245934 41.04212108097272,248.76287549222252 41.16472356108716,249.34205425632172 41.226024801144376,249.60361620112963 41.287326041201595,249.84649366882877 41.27789508117712,250.12673512867332 41.296757001196966,250.15164538877434 41.32976536123897,250.41320221404385 41.3533427612565,250.57511751515267 41.39106660129619,251.04217733261248 41.40992852131603,251.2040901716573 41.46179880137788,251.52168659201197 41.47122976137325,251.8890990164473 41.43350592133356,252.25650817750284 41.44765236135572,252.69864029915698 41.44765236135572,253.12208635159914 41.48537620136631,253.5766633189196 41.47594524137094,253.85687950867214 41.44293688135804,254.3861715772764 41.39578208129387,254.77223916778166 41.263748641184065,255.00885945858317 40.90065668083844,255.01508629005912 40.37723840036779,254.9901789585274 40.21691208021366,255.002632626165 40.10374056009459,255.12094228184287 40.10374056009459,255.34510701735053 40.10374056009459,255.69380530277704 40.11788700008765,255.93664701537637 40.2027656401915,256.291566954289 40.22162756018224,256.61535090933467 40.31122168028378,257.0574364483182 40.41496224037837,257.37498793421764 40.47626348043559,257.61159333913747 40.60358144057682,257.95404613395294 40.67902912062709,258.2653643968042 40.811062560766004,258.68875347503854 40.96195792089566,259.06232847550564 41.037405600975035,259.34250751231957 41.12699972104747,259.67871985209786 41.22130932114669,259.94644253913793 41.33448084126576,260.214163493878 41.40992852131603,260.3324582476671 41.494807161419885,260.56282074498085 41.556108401448,260.8865712760671 41.68342636156012,261.16051205461554 41.80131336170598,261.4904837662252 41.78245144165703,261.4904837662252 41.90033844177378,261.70216234668624 42.018225441890536,262.0445812871476 42.14554340203176,262.3620944999602 42.1974136820354,262.48038311320124 42.272861362143885,262.65470255848413 42.27757684214157,262.9286316316793 42.43318768229801,263.3519729962136 42.4379031622957,263.6009953051944 42.513350842375075,263.8064375819522 42.584083042427665,264.14261365299535 42.71611648256658,264.5036886132948 42.6736771625001,264.7838308086393 42.38603288223385,264.7838308086393 42.12668148201192,265.03906982441185 42.07481120195007,265.3129831145088 42.24928396209725,265.61802078108667 42.26343040211941,265.96040732045003 42.51806632237276,266.0973611430418 42.75384032257716,266.12848694859713 42.918882122728974,266.5331202905945 43.06977748288773,266.9190745610613 43.098070362902945,266.98132491275464 42.90473568273592,266.81324874828715" stroke="#ff0100" stroke-linecap="round" stroke-linejoin="round" stroke-width="0.5"><title>2019-04-30 22.2km</title><desc>9223370480227403463</desc></polyline></svg>