<?xml version="1.0" encoding="utf-8" ?>
<svg baseProfile="full" height="200mm" version="1.1" viewBox="0,0,200,200" width="200mm" xmlns="http://www.w3.org/2000/svg" xmlns:ev="http://www.w3.org/2001/xml-events" xmlns:xlink="http://www.w3.org/1999/xlink"><defs /><rect fill="#1a1a1a" height="200" width="200" x="0" y="0" /><text alignment-baseline="middle" fill="#e1ed5e" style="dominant-baseline: central; font-size:9.0px; font-family:Arial;" text-anchor="middle" x="100.0" y="100.0">2021</text><line stroke="#e1ed5e" stroke-width="0.3" x1="100.0" x2="100.0" y1="15.0" y2="10.0" /><path d="M 100.0 14.0 a86.0,86.0 0 0,1 42.46469731375804,11.215312516191453" fill="none" id="id49" stroke="none" /><text fill="#e1ed5e" style="font-size:6.75px; font-family:Arial;" text-anchor="middle"><textPath startOffset="22.20632615414155" xlink:href="#id49">January</textPath></text><line stroke="#e1ed5e" stroke-width="0.3" x1="143.23703022742887" x2="145.7803849466894" y1="26.81831364943548" y2="22.513508569990506" /><path d="M 143.74570117128098 25.957352633546492 a86.0,86.0 0 0,1 28.547481713284135,27.462654790039103" fill="none" id="id50" stroke="none" /><text fill="#e1ed5e" style="font-size:6.75px; font-family:Arial;" text-anchor="middle"><textPath startOffset="19.985693538727396" xlink:href="#id50">February</textPath></text><path d="M 112.77801427241765 83.33499621200491 l 5.535508007514863 -7.219373835951935 a30.097318697533275,30.097318697533275 0 0,0 0.40841695265658856,0.31877590975082504 l -5.658957515330881 7.123019536977886" fill="#ff5c08" stroke="none" /><path d="M 116.38621287248628 86.86637796730983 l 9.565060264068226 -7.666438072405852 a33.258248266913625,33.258248266913625 0 0,0 0.3541938814994333,0.44979026055245946 l -9.695608226161623 7.500655417900354" fill="#ff880c" stroke="none" /><line stroke="#e1ed5e" stroke-width="0.3" x1="172.23445277983987" x2="176.4835382374775" y1="55.19839476539836" y2="52.563006222186495" /><path d="M 173.08426987136738 54.67131705675599 a86.0,86.0 0 0,1 12.851231095245387,41.99856678651699" fill="none" id="id51" stroke="none" /><text fill="#e1ed5e" style="font-size:6.75px; font-family:Arial;" text-anchor="middle"><textPath startOffset="22.20632615414155" xlink:href="#id51">March</textPath></text><line stroke="#e1ed5e" stroke-width="0.3" x1="184.98032266829074" x2="189.97916517819016" y1="98.17113171792111" y2="98.06355123074" /><path d="M 185.9800911702706 98.14961562048488 a86.0,86.0 0 0,1 -9.607161424134198,41.387399972396054" fill="none" id="id52" stroke="none" /><text fill="#e1ed5e" style="font-size:6.75px; font-family:Arial;" text-anchor="middle"><textPath startOffset="21.466115282336823" xlink:href="#id52">April</textPath></text><path d="M 120.9764740272857 100.99374915477107 l 56.0606506289223 2.655843117672728 a77.1235249392247,77.1235249392247 0 0,0 -0.07423561292563671,1.325526737451264 l -56.00662866510914 -3.620441571459415" fill="#44ffe9" stroke="none" /><path d="M 120.95626037817324 101.35467743843564 l 2.8106410049938244 0.18168852115298595 a23.816507336697608,23.816507336697608 0 0,0 -0.02996733735388574,0.4088805090333928 l -2.8070971089756007 -0.23004216668314897" fill="#ff0000" stroke="none" /><path d="M 120.92983693683757 101.71520430193887 l 6.348940096417707 0.5202969043185122 a27.370223639445,27.370223639445 0 0,0 -0.042522123629696644,0.4692280909422895 l -6.3390433765109355 -0.6295063838093722" fill="#ff3505" stroke="none" /><path d="M 120.5718875245553 104.21870165774334 l 4.7362943724424635 0.9712775697773698 a25.83485930508663,25.83485930508663 0 0,0 -0.09308664113038792,0.4348697972226533 l -4.718873692587633 -1.052661186416192" fill="#ff1e03" stroke="none" /><path d="M 119.67450827220406 107.3425965602758 l 12.328544058763331 4.60105655229894 a34.15913067061505,34.15913067061505 0 0,0 -0.21033195237254368,0.5491103567555613 l -12.247517826797282 -4.812590475887645" fill="#ff940d" stroke="none" /><path d="M 119.41010516605496 108.01547362559984 l 5.67981875851248 2.345501843888107 a27.14505655215904,27.14505655215904 0 0,0 -0.18206450385004222,0.43034670611649356 l -5.638603273470129 -2.442923075670764" fill="#ff3104" stroke="none" /><line stroke="#e1ed5e" stroke-width="0.3" x1="174.80103733775053" x2="179.2010983576182" y1="140.37084112569926" y2="142.7455964860345" /><path d="M 175.68104954172406 140.8457921977663 a86.0,86.0 0 0,1 -30.038265399797805,32.042727171017184" fill="none" id="id53" stroke="none" /><text fill="#e1ed5e" style="font-size:6.75px; font-family:Arial;" text-anchor="middle"><textPath startOffset="22.206326154141568" xlink:href="#id53">May</textPath></text><path d="M 117.35343817320211 111.8261652097733 l 12.125924176401341 8.263675543717644 a35.674003224194536,35.674003224194536 0 0,0 -0.35018126964430907,0.5044622366758573 l -11.981881999594895 -8.471179042580522" fill="#ffa90f" stroke="none" /><path d="M 117.14729908036423 112.12312394758627 l 18.585595763049096 13.139998318055369 a43.761457019838744,43.761457019838744 0 0,0 -0.44015733512745114,0.6113400412435894 l -18.35665863554604 -13.457971964750088" fill="#edff1a" stroke="none" /><path d="M 116.498646956653 112.99209946851258 l 8.388007052249922 6.6052581312718575 a31.676520841984406,31.676520841984406 0 0,0 -0.341023522418751,0.42547927898105947 l -8.273065617776316 -6.748665243831167" fill="#ff720a" stroke="none" /><path d="M 114.0293411484842 115.62618273729858 l 9.784355229687854 10.898025870749075 a35.645838150827565,35.645838150827565 0 0,0 -0.46009890561123384,0.4059837894194487 l -9.595313971170032 -11.064832801940813" fill="#ffa80f" stroke="none" /><path d="M 112.63410532772338 116.77436683061366 l 18.7090856277417 24.84014951944784 a52.097635170133046,52.097635170133046 0 0,0 -0.7209693231471933,0.5333558693220817 l -18.27873133417594 -25.15851533750969" fill="#8bff24" stroke="none" /><path d="M 112.34349029814194 116.9893568818739 l 17.142192488022854 23.59420381775141 a50.164039793725806,50.164039793725806 0 0,0 -0.7029479064759324,0.5015346668460791 l -16.733517253698036 -23.88578274644171" fill="#a1ff22" stroke="none" /><path d="M 112.04921762599082 117.19931262002967 l 36.14765287797247 51.597937860089026 a84.0,84.0 0 0,0 -1.1913724615084669,0.8194368425396235 l -35.25412353184112 -52.21251549199374" fill="#4dd2ff" stroke="none" /><path d="M 111.7513745106137 117.40417183066458 l 32.06288268822808 47.486182930205985 a78.29717284090081,78.29717284090081 0 0,0 -1.1234723425758826,0.7445762075849034 l -31.240735646912235 -48.031057158882206" fill="#46fff5" stroke="none" /><path d="M 111.45004920935366 117.60387380957326 l 27.853277811386548 42.82301139580111 a72.08439477808453,72.08439477808453 0 0,0 -1.0459727084435988,0.6675892710145629 l -27.11202330089602 -43.296115095639486" fill="#3effb3" stroke="none" /><path d="M 111.1453310114006 117.79835938074945 l 14.605950402602609 23.324740565982953 a48.52048890615314,48.52048890615314 0 0,0 -0.7116818958356586,0.4371731474366622 l -14.202289306834642 -23.572702180247994" fill="#b4ff20" stroke="none" /><line stroke="#e1ed5e" stroke-width="0.3" x1="143.8653032363475" x2="146.44561519142675" y1="172.8068346515853" y2="177.08958963109032" /><path d="M 144.38136562736335 173.6633856474863 a86.0,86.0 0 0,1 -40.68145358897372,12.25698825130547" fill="none" id="id54" stroke="none" /><text fill="#e1ed5e" style="font-size:6.75px; font-family:Arial;" text-anchor="middle"><textPath startOffset="21.466115282336833" xlink:href="#id54">June</textPath></text><path d="M 110.21172684928248 118.3499491758327 l 6.81410202272359 12.244591697505331 a35.01292304320202,35.01292304320202 0 0,0 -0.5291572887481358,0.2885387448496121 l -6.602321922106806 -12.360071094114714" fill="#ffa00e" stroke="none" /><path d="M 109.89434966115114 118.52300852407294 l 9.912340039899433 18.556687942156803 a42.03818320219646,42.03818320219646 0 0,0 -0.6412005962343514,0.33544584693811935 l -9.591448541138586 -18.724563208039637" fill="#fffb17" stroke="none" /><path d="M 109.57404056367764 118.69057910512821 l 3.1412379191593014 6.132369653708949 a27.890089493939442,27.890089493939442 0 0,0 -0.4291701635402203,0.21519482942551418 l -3.0352138479363204 -6.185532324043765" fill="#ff3c05" stroke="none" /><path d="M 109.2508944713604 118.85261126421891 l 7.332363508087472 14.94279275305466 a37.64483733400467,37.64483733400467 0 0,0 -0.584189314397334,0.2804463720368921 l -7.074061525689905 -15.066793401591113" fill="#ffc312" stroke="none" /><path d="M 108.92500713936063 119.00905698771935 l 7.37151846890907 15.700336422538317 a38.34473546406375,38.34473546406375 0 0,0 -0.5998796568465226,0.2753753282190653 l -7.100170816295128 -15.824898821091457" fill="#ffcc13" stroke="none" /><path d="M 108.59647513512805 119.15986991738527 l 13.6257688208554 30.369186675727516 a54.28586900329599,54.28586900329599 0 0,0 -0.8558537564394664,0.37518113559962324 l -13.10099438975818 -30.599232364621592" fill="#73ff27" stroke="none" /><path d="M 108.2653958097858 119.30500536409082 l 11.360888421681508 26.534967830788318 a49.86475885073125,49.86475885073125 0 0,0 -0.791967630571212,0.33104253380924326 l -10.902449331612836 -26.726595407617538" fill="#a5ff21" stroke="none" /><path d="M 107.93186726928326 119.44442032107085 l 10.512129248857345 25.769752902417782 a48.83136766305874,48.83136766305874 0 0,0 -0.7810203440986752,0.31078411333977357 l -10.066987828716803 -25.946883860163624" fill="#b1ff20" stroke="none" /><path d="M 107.59598834532513 119.57807347666477 l 15.460332633786576 39.84781367710171 a63.74190145503988,63.74190145503988 0 0,0 -1.0263350032053786,0.3880720782170257 l -14.772127409820921 -40.10803400542537" fill="#33ff53" stroke="none" /><path d="M 106.2309692047433 120.05430185196036 l 8.257719403539975 26.577373773780824 a48.83067959031639,48.83067959031639 0 0,0 -0.8048342962523061,0.24248997130441544 l -7.799010132847424 -26.715579114190966" fill="#b1ff20" stroke="none" /><path d="M 105.88484417918355 120.15858648285463 l 7.533683489131894 25.806700317966474 a47.88386445836516,47.88386445836516 0 0,0 -0.7932049521794702,0.22416764259603242 l -7.088347368847818 -25.932556753901025" fill="#bcff1f" stroke="none" /><path d="M 105.53697534728816 120.25689768951611 l 3.5583117524466137 13.018002175504828 a34.4955534591601,34.4955534591601 0 0,0 -0.5741202673563507,0.1516303807067217 l -3.3337010422787654 -13.077323905515133" fill="#ff990e" stroke="none" /><path d="M 105.18746579009965 120.34920634021253 l 5.960333709156693 23.38098513066508 a45.128738955960614,45.128738955960614 0 0,0 -0.7543950273414791,0.18541194338070952 l -5.556985397072002 -23.480118332359822" fill="#dcff1b" stroke="none" /><path d="M 101.62511606390274 120.93702456842531 l 2.1774162693572467 28.052530486801142 a49.13690829360911,49.13690829360911 0 0,0 -0.8438380452793367,0.058196012124454105 l -1.6942154632989799 -28.085854843441883" fill="#adff20" stroke="none" /><path d="M 100.90346689309514 120.98055641714683 l 1.0501365933080793 24.38656049269349 a45.409160565828635,45.409160565828635 0 0,0 -0.7812097885700865,0.0269064446772609 l -0.6302064530633406 -24.401023735796848" fill="#d9ff1c" stroke="none" /><line stroke="#e1ed5e" stroke-width="0.3" x1="102.19456741930631" x2="102.32365962044197" y1="184.97166512339345" y2="189.96999836594603" /><path d="M 102.22038585953345 185.97133177190398 a86.0,86.0 0 0,1 -42.740103519485714,-10.115201625700543" fill="none" id="id55" stroke="none" /><text fill="#e1ed5e" style="font-size:6.75px; font-family:Arial;" text-anchor="middle"><textPath startOffset="22.20632615414155" xlink:href="#id55">July</textPath></text><path d="M 100.54218724476979 120.99299961872073 l 0.4957791158396233 19.19611885043508 a40.20252003909205,40.20252003909205 0 0,0 -0.6919433957155077,0.011912433065632826 l -0.16527603023144766 -19.201808760779873" fill="#ffe415" stroke="none" /><path d="M 99.81925306533755 120.99922214144158 l -0.10243241733025038 11.900622768623183 a32.901063594536105,32.901063594536105 0 0,0 -0.5662747918319134,-0.009748934083657802 l 0.3072668990548318 -11.897096357260365" fill="#ff830c" stroke="none" /><path d="M 99.09653310690486 120.98055641714683 l -0.3585822785872845 8.327096193105737 a29.33481327083894,29.33481327083894 0 0,0 -0.5042960762683422,-0.026066346868027567 l 0.5018664232691156 -8.319690039475507" fill="#ff5107" stroke="none" /><path d="M 98.73552117531835 120.96189622390904 l -1.1533431632079199 19.119544926982968 a40.15429974358339,40.15429974358339 0 0,0 -0.6895778953514872,-0.047557329019629765 l 1.482283819338337 -19.096859253447054" fill="#ffe415" stroke="none" /><path d="M 97.2962882734958 120.8252237178851 l -1.81070219937528 13.946856101117069 a35.063905487455784,35.063905487455784 0 0,0 -0.597875335065957,-0.08286007358767755 l 2.0505061256280683 -13.913621462036787" fill="#ffa10e" stroke="none" /><path d="M 94.81253420990036 120.34920634021253 l -3.6248042728248087 14.219253306956123 a35.674003224194536,35.674003224194536 0 0,0 -0.5937335747633208,-0.1568104334554798 l 3.8690282903996187 -14.154751524197062" fill="#ffa90f" stroke="none" /><path d="M 94.46302465271185 120.25689768951611 l -6.67253391282745 24.41131273379645 a46.306815252122206,46.306815252122206 0 0,0 -0.7670808443119619,-0.21678470876601413 l 7.091745925244025 -24.292839231691914" fill="#ceff1d" stroke="none" /><path d="M 92.7421414339146 119.70592522655815 l -10.889080836371521 29.565113565339164 a52.50663456468233,52.50663456468233 0 0,0 -0.8454312739988825,-0.319669767147913 l 11.396382331130686 -29.373295548084617" fill="#87ff25" stroke="none" /><line stroke="#e1ed5e" stroke-width="0.3" x1="58.666819895761336" x2="56.23545636021788" y1="174.27360380694188" y2="178.64263932499728" /><path d="M 58.180547188652646 175.14741091055294 a86.0,86.0 0 0,1 -31.652253787137756,-30.449443065178592" fill="none" id="id56" stroke="none" /><text fill="#e1ed5e" style="font-size:6.75px; font-family:Arial;" text-anchor="middle"><textPath startOffset="22.20632615414155" xlink:href="#id56">August</textPath></text><path d="M 88.8546689885994 117.79835938074946 l -6.493846108589564 10.370244426633128 a33.2356857899408,33.2356857899408 0 0,0 -0.48226277531644923,-0.30780292068043863 l 6.671390685952936 -10.256927077128886" fill="#ff880c" stroke="none" /><path d="M 88.54995079064634 117.60387380957326 l -4.929512562278829 7.578877217241329 a30.040988550799323,30.040988550799323 0 0,0 -0.43105285358185547,-0.2856783267603653 l 5.059240114600645 -7.492900869389645" fill="#ff5b08" stroke="none" /><path d="M 87.95078237400918 117.19931262002967 l -2.0875890719414194 2.9798695803309956 a24.638358262880562,24.638358262880562 0 0,0 -0.34525692968734856,-0.24633165219188893 l 2.138573329477655 -2.9434936662948874" fill="#ff0c01" stroke="none" /><path d="M 87.07902340077011 116.55440617244103 l -3.50203874237199 4.48682584691825 a26.69173800641316,26.69173800641316 0 0,0 -0.3597569737650746,-0.2858126978048869 l 3.578753208854423 -4.425879235108232" fill="#ff2b04" stroke="none" /><path d="M 86.79598089348748 116.32954008644616 l -5.362774831715914 6.632196294376555 a29.52909031390967,29.52909031390967 0 0,0 -0.3924976754054229,-0.3229988657529618 l 5.476142635666025 -6.538902309766412" fill="#ff5407" stroke="none" /><path d="M 86.51685102203217 116.09983520530335 l -6.320097713048282 7.546644469163754 a30.843550063185436,30.843550063185436 0 0,0 -0.4041012117764867,-0.3443838194644918 l 6.449064401401826 -7.4367362594763105" fill="#ff6609" stroke="none" /><path d="M 85.70375840098266 115.38237550388516 l -5.792105509515777 6.232151386670597 a29.508125359898223,29.508125359898223 0 0,0 -0.3690822441118496,-0.34899029875989207 l 5.898523588018444 -6.131526451164774" fill="#ff5307" stroke="none" /><path d="M 85.18274418774928 114.88116024355367 l -5.961844243561349 5.987556714934521 a29.449522010092824,29.449522010092824 0 0,0 -0.35614200962364234,-0.3607699754677154 l 6.064026878240525 -5.884046245486141" fill="#ff5307" stroke="none" /><line stroke="#e1ed5e" stroke-width="0.3" x1="26.63291911575756" x2="22.317208475507996" y1="142.92168965132927" y2="145.44649492493687" /><path d="M 25.769776987707644 143.4266507060508 a86.0,86.0 0 0,1 -11.730757126820373,-40.83630448921669" fill="none" id="id57" stroke="none" /><text fill="#e1ed5e" style="font-size:6.75px; font-family:Arial;" text-anchor="middle"><textPath startOffset="21.46611528233685" xlink:href="#id57">September</textPath></text><path d="M 79.76711848015287 105.62410040840567 l -5.4950902541321724 1.5274610940698228 a26.703433553128797,26.703433553128797 0 0,0 -0.11929049856660026,-0.44392432232103796 l 5.520568829040548 -1.432645838573246" fill="#ff2b04" stroke="none" /><path d="M 79.67330655649465 105.27499134158121 l -17.612782392883 4.570702799342751 a39.19619267041787,39.19619267041787 0 0,0 -0.1638562971035069,-0.654524455768169 l 17.688850004281566 -4.2668505041771905" fill="#ffd714" stroke="none" /><path d="M 79.50377843672027 104.57218783832718 l -3.4509071200571797 0.769809963109968 a24.535727270387905,24.535727270387905 0 0,0 -0.08840568521470735,-0.4130019295550521 l 3.4636468439963277 -0.7102942141387522" fill="#ff0b01" stroke="none" /><path d="M 79.4281124754447 104.21870165774334 l -3.8355157759503533 0.7865538221997584 a24.915335002625074,24.915335002625074 0 0,0 -0.08254102505077858,-0.4208749084611689 l 3.8484867339767983 -0.7204151866706348" fill="#ff1001" stroke="none" /><path d="M 79.23777060512086 103.15116336523772 l -38.48174008783006 5.840521616877926 a59.92243585574425,59.92243585574425 0 0,0 -0.14599944266457754,-1.0211197619496228 l 38.576573581511234 -5.1772563829479035" fill="#38ff2e" stroke="none" /><path d="M 79.10278846688536 102.07522291339032 l -2.9846522221797374 0.29639450556136215 a23.99933302423879,23.99933302423879 0 0,0 -0.03728513947603376,-0.4114384071974757 l 2.9893119579328467 -0.2449747098153203" fill="#ff0300" stroke="none" /><path d="M 79.07016306316243 101.71520430193888 l -18.163426829058498 1.488496443100358 a39.224316059476266,39.224316059476266 0 0,0 -0.04935435306329239,-0.6734009353325104 l 18.186357740786125 -1.175622371271087" fill="#ffd814" stroke="none" /><path d="M 79.04373962182676 101.35467743843564 l -5.642751091304293 0.36476487007479896 a26.65452856468658,26.65452856468658 0 0,0 -0.02565644226975427,-0.45811301174954183 l 5.648193884461578 -0.2675801419898195" fill="#ff2a04" stroke="none" /><path d="M 79.0095281055655 100.63252640178507 l -26.280201102151615 0.7919269812004373 a47.29213034946169,47.29213034946169 0 0,0 -0.01751596311193188,-0.813897978156009 l 26.289939127948557 -0.33943918725429945" fill="#c3ff1e" stroke="none" /><line stroke="#e1ed5e" stroke-width="0.3" x1="15.007084014347285" x2="10.007500721073583" y1="101.09737516637583" y2="101.16192664675087" /><path d="M 14.007167355692545 101.11028546245083 a86.0,86.0 0 0,1 10.666146001902534,-42.60595125391555" fill="none" id="id58" stroke="none" /><text fill="#e1ed5e" style="font-size:6.75px; font-family:Arial;" text-anchor="middle"><textPath startOffset="22.20632615414155" xlink:href="#id58">October</textPath></text><path d="M 79.08570108090925 98.10471618934814 l -8.78990311984593 -0.796553647085698 a29.825921740473497,29.825921740473497 0 0,0 0.05073655494031515,-0.5109101842544297 l 8.774889439223385 0.947739362044558" fill="#ff5808" stroke="none" /><path d="M 79.91906864156998 93.8553929516997 l -2.9165889574601853 -0.8924532804341914 a24.050076065368934,24.050076065368934 0 0,0 0.12453875652697353,-0.3948218914746673 l 2.9007947171650077 0.9425253383352731" fill="#ff0400" stroke="none" /><path d="M 80.803312248108 91.48605970444005 l -20.481454274908543 -9.083748254728256 a43.40545584384411,43.40545584384411 0 0,0 0.3087940254390409,-0.6803867028557522 l 20.32205793250615 9.434956966426078" fill="#f1ff19" stroke="none" /><path d="M 80.95270993114464 91.15688171328213 l -13.86065591408279 -6.4351106817105155 a36.28163708031515,36.28163708031515 0 0,0 0.2678652639671496,-0.5641925600740291 l 13.747832456273887 6.672745657425076" fill="#ffb110" stroke="none" /><path d="M 81.10775173730289 90.83032412892265 l -23.727732914548305 -11.516661064183976 a47.37496523848762,47.37496523848762 0 0,0 0.3623958953449129,-0.7305680113180583 l 23.525977006249978 11.923388664000997" fill="#c2ff1e" stroke="none" /><path d="M 81.26839172434947 90.50648371742162 l -12.641657270375426 -6.407019481135104 a35.17255789098357,35.17255789098357 0 0,0 0.2783498730052983,-0.5376833576611052 l 12.529497964210014 6.623675561056546" fill="#ffa20f" stroke="none" /><path d="M 81.43458229118936 90.18545643968196 l -24.235270084389754 -12.811891316963745 a48.41337037252092,48.41337037252092 0 0,0 0.39581826583324947,-0.7333911322127217 l 24.011143719338033 13.22716343250894" fill="#b5ff1f" stroke="none" /><path d="M 81.6062741919709 89.86733742301443 l -16.980045971484625 -9.353900246553277 a40.386010704015426,40.386010704015426 0 0,0 0.3406701521380207,-0.6060141876564552 l 16.816518178054174 9.644797944144516" fill="#ffe715" stroke="none" /><line stroke="#e1ed5e" stroke-width="0.3" x1="26.266209847984243" x2="21.928928074336255" y1="57.711370442889674" y2="55.22380399835377" /><path d="M 25.398753493254645 57.213857153982495 a86.0,86.0 0 0,1 29.58750427330803,-30.492523968695096" fill="none" id="id59" stroke="none" /><text fill="#e1ed5e" style="font-size:6.75px; font-family:Arial;" text-anchor="middle"><textPath startOffset="21.46611528233685" xlink:href="#id59">November</textPath></text><path d="M 82.95767976084542 87.72973835380427 l -3.1906467770844738 -2.2972265645772048 a24.931599769193035,24.931599769193035 0 0,0 0.25375309526300094,-0.3461189367652721 l 3.150631069307839 2.3518079450139777" fill="#ff1101" stroke="none" /><path d="M 83.17141714833178 87.43820079747576 l -2.328769224337141 -1.7383241145728072 a23.906017348111526,23.906017348111526 0 0,0 0.24899148416437317,-0.32764360670660886 l 2.298501799948659 1.7781524971604428" fill="#ff0100" stroke="none" /><path d="M 83.39014120810768 87.1503855733568 l -5.261968416135575 -4.070730890591362 a27.65275593991115,27.65275593991115 0 0,0 0.29449647744247415,-0.37398061976641933 l 5.191117858099131 4.160703904310829" fill="#ff3905" stroke="none" /><path d="M 85.05521093208273 85.24692304244772 l -2.8473322748325063 -2.8108066285461812 a25.000991750351655,25.000991750351655 0 0,0 0.3049694784167826,-0.3036598425574799 l 2.7985269962484103 2.8594023217537705" fill="#ff1202" stroke="none" /><path d="M 85.31137513191541 84.99185889309783 l -3.6261913571619044 -3.7050705602240432 a26.184285063053014,26.184285063053014 0 0,0 0.3248307149025778,-0.3124868903732384 l 3.561877398646899 3.766940537359595" fill="#ff2303" stroke="none" /><path d="M 87.22198572758235 83.33499621200491 l -7.67182044324863 -10.00553873409993 a33.60823676304588,33.60823676304588 0 0,0 0.462119410987056,-0.34805875961533067 l 7.498454878503184 10.136114083221116" fill="#ff8d0d" stroke="none" /><path d="M 87.80319425747018 82.90503203632743 l -7.070930672930867 -9.910572971217205 a33.17446168005861,33.17446168005861 0 0,0 0.4677107173590707,-0.3276612469329009 l 6.899288815988136 10.030819060914048" fill="#ff870c" stroke="none" /><line stroke="#e1ed5e" stroke-width="0.3" x1="56.762969772571076" x2="54.21961505331055" y1="26.818313649435495" y2="22.513508569990535" /><path d="M 56.25429882871897 25.957352633546506 a86.0,86.0 0 0,1 42.265352541879196,-11.944610805530505" fill="none" id="id60" stroke="none" /><text fill="#e1ed5e" style="font-size:6.75px; font-family:Arial;" text-anchor="middle"><textPath startOffset="22.20632615414155" xlink:href="#id60">December</textPath></text></svg>