<?xml version="1.0" encoding="utf-8" ?>
<svg baseProfile="full" height="200mm" version="1.1" viewBox="0,0,200,200" width="200mm" xmlns="http://www.w3.org/2000/svg" xmlns:ev="http://www.w3.org/2001/xml-events" xmlns:xlink="http://www.w3.org/1999/xlink"><defs /><rect fill="#1a1a1a" height="200" width="200" x="0" y="0" /><text alignment-baseline="middle" fill="#e1ed5e" style="dominant-baseline: central; font-size:9.0px; font-family:Arial;" text-anchor="middle" x="100.0" y="100.0">2020</text><line stroke="#e1ed5e" stroke-width="0.3" x1="100.0" x2="100.0" y1="15.0" y2="10.0" /><path d="M 100.0 14.0 a86.0,86.0 0 0,1 42.35913384403234,11.155469271406648" fill="none" id="id37" stroke="none" /><text fill="#e1ed5e" style="font-size:6.75px; font-family:Arial;" text-anchor="middle"><textPath startOffset="22.145653131862478" xlink:href="#id37">January</textPath></text><line stroke="#e1ed5e" stroke-width="0.3" x1="143.13028292997686" x2="145.6673583964461" y1="26.7553504044142" y2="22.446841604673864" /><path d="M 143.63769802327073 25.89364864446614 a86.0,86.0 0 0,1 29.32050498858742,28.57503671076993" fill="none" id="id38" stroke="none" /><text fill="#e1ed5e" style="font-size:6.75px; font-family:Arial;" text-anchor="middle"><textPath startOffset="20.669276256404974" xlink:href="#id38">February</textPath></text><line stroke="#e1ed5e" stroke-width="0.3" x1="172.87174338648825" x2="177.1583165268699" y1="56.24261187166439" y2="53.66864786411523" /><path d="M 173.72905801456457 55.72781907015455 a86.0,86.0 0 0,1 12.242430191666344,42.057860355516425" fill="none" id="id39" stroke="none" /><text fill="#e1ed5e" style="font-size:6.75px; font-family:Arial;" text-anchor="middle"><textPath startOffset="22.145653131862474" xlink:href="#id39">March</textPath></text><line stroke="#e1ed5e" stroke-width="0.3" x1="184.99686870605535" x2="189.99668451229388" y1="99.2704041080226" y2="99.22748670261217" /><path d="M 185.99683186730306 99.26182062694052 a86.0,86.0 0 0,1 -10.086455211305974,41.156179273409016" fill="none" id="id40" stroke="none" /><text fill="#e1ed5e" style="font-size:6.75px; font-family:Arial;" text-anchor="middle"><textPath startOffset="21.40746469413373" xlink:href="#id40">April</textPath></text><path d="M 118.5362547648365 109.86951160357373 l 3.317406245532133 1.766331972095989 a24.758339105714665,24.758339105714665 0 0,0 -0.20296491489758045,0.3734325829967539 l -3.2865959810192136 -1.8230193885673462" fill="#ff0000" stroke="none" /><line stroke="#e1ed5e" stroke-width="0.3" x1="174.33088141563837" x2="178.70328620479359" y1="141.23008692659167" y2="143.65538615756765" /><path d="M 175.20536237346943 141.71514677278685 a86.0,86.0 0 0,1 -30.301960400862466,31.631185727798858" fill="none" id="id41" stroke="none" /><text fill="#e1ed5e" style="font-size:6.75px; font-family:Arial;" text-anchor="middle"><textPath startOffset="22.145653131862474" xlink:href="#id41">May</textPath></text><path d="M 117.21940702142032 112.02048342749411 l 12.683511890025867 8.854076350412258 a36.46823008244179,36.46823008244179 0 0,0 -0.3627458403598847,0.5102474523723305 l -12.529650951136022 -9.070501029494094" fill="#ffa90f" stroke="none" /><line stroke="#e1ed5e" stroke-width="0.3" x1="143.1302829299769" x2="145.66735839644613" y1="173.24464959558577" y2="177.55315839532614" /><path d="M 143.63769802327073 174.10635135553383 a86.0,86.0 0 0,1 -40.68552437913181,11.842963189579606" fill="none" id="id42" stroke="none" /><text fill="#e1ed5e" style="font-size:6.75px; font-family:Arial;" text-anchor="middle"><textPath startOffset="21.407464694133747" xlink:href="#id42">June</textPath></text><line stroke="#e1ed5e" stroke-width="0.3" x1="101.45913802915013" x2="101.54496967792366" y1="184.9874750549273" y2="189.98673829345242" /><path d="M 101.47630435890484 185.9873277026323 a86.0,86.0 0 0,1 -42.54439059252881,-10.42667462771756" fill="none" id="id43" stroke="none" /><text fill="#e1ed5e" style="font-size:6.75px; font-family:Arial;" text-anchor="middle"><textPath startOffset="22.145653131862474" xlink:href="#id43">July</textPath></text><path d="M 100.36049292484886 120.99690560180557 l 0.23257640202212243 13.546409435118763 a34.54840582381013,34.54840582381013 0 0,0 -0.593069326870973,0.005090786885800125 l -1.6592011825678432e-15 -13.548405823810128" fill="#ff8f0d" stroke="none" /><path d="M 92.25597844496254 119.51999308798841 l -19.405829672241943 48.91536760024045 a73.62413336801585,73.62413336801585 0 0,0 -1.1707833755699473,-0.4761474064134464 l 20.242667509002334 -48.57503293724771" fill="#40ffc2" stroke="none" /><path d="M 91.92203290615298 119.3841803445677 l -21.02768565753499 50.45879071790349 a75.66491676409365,75.66491676409365 0 0,0 -1.194658687577252,-0.5099287549300189 l 21.890779420282673 -50.09038731331407" fill="#42ffd8" stroke="none" /><path d="M 91.59046798132341 119.24265499422711 l -19.62990295826953 44.9170595173716 a70.01913224281088,70.01913224281088 0 0,0 -1.097255141180377,-0.4907882681280285 l 20.39807150230554 -44.57346749833372" fill="#3bff9a" stroke="none" /><path d="M 91.26138138417905 119.09545874513695 l -16.716316889173992 36.528169217723686 a61.17141268038678,61.17141268038678 0 0,0 -0.9511026965986161,-0.4451640859986278 l 17.3409082996441 -36.23582890015453" fill="#2fff2f" stroke="none" /><path d="M 90.93487009805054 118.94263497670748 l -10.205948391067839 21.326506851439365 a44.64278488346139,44.64278488346139 0 0,0 -0.6884337299479615,-0.3367474351716944 l 10.57054237027787 -21.14816566617045" fill="#eaff1a" stroke="none" /><path d="M 90.28995756902619 118.62028667847754 l -27.94062134872482 53.57982554519788 a81.42744431801378,81.42744431801378 0 0,0 -1.2338630230432839,-0.656962562159395 l 28.856273187554667 -53.09229251531591" fill="#4aebff" stroke="none" /><path d="M 89.97174638481275 118.45085714620012 l -30.084760845561753 55.35257143860034 a84.0,84.0 0 0,0 -1.2610232473755896,-0.6994683382674065 l 31.030528281093442 -54.82797018489979" fill="#4dd2ff" stroke="none" /><line stroke="#e1ed5e" stroke-width="0.3" x1="58.13341422392154" x2="55.67067388415222" y1="173.97424548756322" y2="178.32567169271397" /><path d="M 57.64086615596768 174.84453072859336 a86.0,86.0 0 0,1 -31.369924170532247,-30.572349798747897" fill="none" id="id44" stroke="none" /><text fill="#e1ed5e" style="font-size:6.75px; font-family:Arial;" text-anchor="middle"><textPath startOffset="22.145653131862474" xlink:href="#id44">August</textPath></text><path d="M 89.65649057296885 118.27599006163327 l -28.60202574428974 50.53703889698634 a79.06951159733069,79.06951159733069 0 0,0 -1.1755284325374342,-0.6786916569655517 l 29.465346644687575 -50.038600342744616" fill="#47fffc" stroke="none" /><path d="M 85.60350026404147 115.28858382429668 l -30.00551786324648 31.864820161658002 a64.76868590872257,64.76868590872257 0 0,0 -0.8029081426851422,-0.7691678381753886 l 30.54809849179694 -31.34504019317703" fill="#34ff5c" stroke="none" /><path d="M 85.08716467003676 114.78537596483092 l -40.891545977278376 40.54204768441713 a78.5827766164278,78.5827766164278 0 0,0 -0.941545895186227,-0.9661090341272233 l 41.581478673615415 -39.834115958222164" fill="#46fff7" stroke="none" /><path d="M 84.3458050057657 113.99807769240083 l -29.38372004856952 26.275103656440088 a60.41806788833488,60.41806788833488 0 0,0 -0.6847062711629688,-0.7790700467868777 l 29.83043738369108 -25.766821331841907" fill="#37ff2e" stroke="none" /><path d="M 84.1078160697243 113.72728997021213 l -21.339748898539906 18.43276684356182 a49.19843571125617,49.19843571125617 0 0,0 -0.5465839294467572,-0.6438744945225372 l 21.653027391493776 -18.063725566589728" fill="#b3ff20" stroke="none" /><path d="M 83.8745106332314 113.45245675266167 l -19.119794293235834 15.95041241846571 a45.89944156270977,45.89944156270977 0 0,0 -0.4995458744918071,-0.6093647418569875 l 19.39078698696627 -15.619845394910227" fill="#daff1b" stroke="none" /><path d="M 83.64595745247003 113.17365903436017 l -44.0394928299668 35.47509803169473 a77.55050405680791,77.55050405680791 0 0,0 -0.826221479913128,-1.0439038493439643 l 44.64198074052149 -34.713874238436084" fill="#45ffec" stroke="none" /><path d="M 83.4222238831116 112.89097897827486 l -24.44623646680182 19.00954133832448 a51.96742061076864,51.96742061076864 0 0,0 -0.5415698686983033,-0.7089323427524084 l 24.76895831285442 -18.5870880823312" fill="#93ff23" stroke="none" /><path d="M 83.20337586046588 112.60449989151573 l -11.35111983881902 8.518091944453358 a35.191751546915974,35.191751546915974 0 0,0 -0.35844974205680663,-0.4863059173662933 l 11.495671600459659 -8.321979717818186" fill="#ff980e" stroke="none" /><path d="M 82.98947788004972 112.3143062007846 l -22.838003343834544 16.532953204339577 a49.19420043891793,49.19420043891793 0 0,0 -0.489329795789559,-0.6883036382272096 l 23.118448238154066 -16.138472339402863" fill="#b3ff20" stroke="none" /><path d="M 82.78059297857968 112.02048342749411 l -10.310512653655373 7.197538587017492 a33.57422891841855,33.57422891841855 0 0,0 -0.32584630628978145,-0.47541949891163265 l 10.43254869676048 -7.019484353035809" fill="#ff810b" stroke="none" /><line stroke="#e1ed5e" stroke-width="0.3" x1="26.387840678322732" x2="22.057713659400548" y1="142.50000000000003" y2="145.00000000000006" /><path d="M 25.521815274538298 143.00000000000003 a86.0,86.0 0 0,1 -11.493303480769221,-40.785679425670985" fill="none" id="id45" stroke="none" /><text fill="#e1ed5e" style="font-size:6.75px; font-family:Arial;" text-anchor="middle"><textPath startOffset="21.40746469413373" xlink:href="#id45">September</textPath></text><path d="M 81.81346652052679 110.50000000000001 l -10.079823676872934 5.819588913226559 a32.63917782645311,32.63917782645311 0 0,0 -0.2759823321481963,-0.4876343367895491 l 10.178239374042509 -5.645697806337888" fill="#ff740a" stroke="none" /><path d="M 81.63589988554817 110.18625677009913 l -10.61728652867812 5.889229862002313 a33.141243824236035,33.141243824236035 0 0,0 -0.2716866306606891,-0.4998727997127123 l 10.71681850895414 -5.706102228815014" fill="#ff7b0b" stroke="none" /><path d="M 81.4637452351635 109.86951160357371 l -10.51708345024189 5.599754560172664 a32.914960991691345,32.914960991691345 0 0,0 -0.26126944796758333,-0.5010186161458513 l 10.611660967184422 -5.41838970092231" fill="#ff780b" stroke="none" /><path d="M 80.83023694016515 108.57439118712176 l -10.258045036363544 4.588293067700104 a32.237433926086844,32.237433926086844 0 0,0 -0.22161872331636437,-0.5071070094705401 l 10.335297641696876 -4.411523988453715" fill="#ff6e0a" stroke="none" /><path d="M 80.68587082218212 108.24405325689762 l -5.012100863030258 2.1393678204875877 a26.449591703286263,26.449591703286263 0 0,0 -0.1746607043718096,-0.4191221074954893 l 5.048087411938553 -2.053013203550817" fill="#ff1a02" stroke="none" /><path d="M 80.5471966667186 107.91128576633889 l -36.86260623463585 14.9917010426608 a60.79450764317019,60.79450764317019 0 0,0 -0.3848620190888153,-0.9701036985823076 l 37.11452692869079 -14.356696326864927" fill="#33ff2f" stroke="none" /><path d="M 80.41425534168474 107.57618678355246 l -34.922913627516145 13.508933220754598 a58.44464144570969,58.44464144570969 0 0,0 -0.3539221470172084,-0.9388205434437051 l 35.14966645834779 -12.907444397116748" fill="#4cff2c" stroke="none" /><path d="M 80.28708602549918 107.23885506374661 l -52.119663696317474 19.139062441853508 a76.5226355189521,76.5226355189521 0 0,0 -0.4422273349699684,-1.2369885621089487 l 52.44053120133139 -18.24153892336364" fill="#43ffe1" stroke="none" /><path d="M 80.16572619554312 106.89939002012753 l -52.28506167750343 18.187458552602013 a76.35802853446782,76.35802853446782 0 0,0 -0.42002216551067606,-1.2417208992845212 l 52.589569264586466 -17.28723597884333" fill="#43ffe0" stroke="none" /><path d="M 79.17382384314188 102.69636545807758 l -19.40687202832702 2.5126081231806547 a40.56884977469384,40.56884977469384 0 0,0 -0.08349052619559412,-0.6914213263956026 l 19.447144640782273 -2.1790931198616525" fill="#ffe015" stroke="none" /><path d="M 79.06263194458094 101.62068470465958 l -5.558432626707271 0.43025783929196515 a26.57506009599144,26.57506009599144 0 0,0 -0.0313029389797689,-0.4551378627150871 l 5.564999526852105 -0.3347765524225347" fill="#ff1c02" stroke="none" /><line stroke="#e1ed5e" stroke-width="0.3" x1="15.003131293944662" x2="10.003315487706104" y1="100.72959589197737" y2="100.7725132973878" /><path d="M 14.003168132696942 100.73817937305945 a86.0,86.0 0 0,1 10.791469493833604,-42.45332614584628" fill="none" id="id46" stroke="none" /><text fill="#e1ed5e" style="font-size:6.75px; font-family:Arial;" text-anchor="middle"><textPath startOffset="22.145653131862435" xlink:href="#id46">October</textPath></text><path d="M 79.34024301695615 96.23510406497455 l -17.148649885399934 -3.1250552607034887 a38.431068907972275,38.431068907972275 0 0,0 0.12384632974106254,-0.648016329682901 l 17.09247726337671 3.418974155419704" fill="#ffc412" stroke="none" /><path d="M 80.5471966667186 92.08871423366112 l -18.30010297733769 -7.442492566582974 a40.755618557382775,40.755618557382775 0 0,0 0.2691309992304038,-0.645816424452825 l 18.169646133570808 7.7555415004770625" fill="#ffe315" stroke="none" /><line stroke="#e1ed5e" stroke-width="0.3" x1="26.387840678322718" x2="22.05771365940052" y1="57.49999999999999" y2="54.99999999999999" /><path d="M 25.521815274538284 56.99999999999999 a86.0,86.0 0 0,1 29.574782752854787,-30.34633250058573" fill="none" id="id47" stroke="none" /><text fill="#e1ed5e" style="font-size:6.75px; font-family:Arial;" text-anchor="middle"><textPath startOffset="21.40746469413373" xlink:href="#id47">November</textPath></text><line stroke="#e1ed5e" stroke-width="0.3" x1="56.869717070023135" x2="54.33264160355391" y1="26.7553504044142" y2="22.446841604673864" /><path d="M 56.362301976729285 25.89364864446614 a86.0,86.0 0 0,1 42.16139366436587,-11.88097634709845" fill="none" id="id48" stroke="none" /><text fill="#e1ed5e" style="font-size:6.75px; font-family:Arial;" text-anchor="middle"><textPath startOffset="22.145653131862474" xlink:href="#id48">December</textPath></text></svg>