<?xml version="1.0" encoding="utf-8" ?>
<svg baseProfile="full" height="200mm" version="1.1" viewBox="0,0,200,200" width="200mm" xmlns="http://www.w3.org/2000/svg" xmlns:ev="http://www.w3.org/2001/xml-events" xmlns:xlink="http://www.w3.org/1999/xlink"><defs /><rect fill="#1a1a1a" height="200" width="200" x="0" y="0" /><text alignment-baseline="middle" fill="#e1ed5e" style="dominant-baseline: central; font-size:9.0px; font-family:Arial;" text-anchor="middle" x="100.0" y="100.0">2023</text><line stroke="#e1ed5e" stroke-width="0.3" x1="100.0" x2="100.0" y1="15.0" y2="10.0" /><path d="M 100.0 14.0 a86.0,86.0 0 0,1 42.46469731375804,11.215312516191453" fill="none" id="id73" stroke="none" /><text fill="#e1ed5e" style="font-size:6.75px; font-family:Arial;" text-anchor="middle"><textPath startOffset="22.20632615414155" xlink:href="#id73">January</textPath></text><path d="M 100.72285384407766 79.0124445844662 l 0.5556756951848885 -16.13365487547323 a37.14322133649602,37.14322133649602 0 0,0 0.6387911857270344,0.027507692190359527 l -0.8333077133012544 16.121699456758677" fill="#ffa80f" stroke="none" /><path d="M 101.08401301168833 79.027996857942 l 0.5528655652400902 -10.69608782028578 a31.710366706723633,31.710366706723633 0 0,0 0.5448716072856542,0.032868143331287014 l -0.7368992213653565 10.684986407574188" fill="#ff5a08" stroke="none" /><path d="M 101.44485096284872 79.0497635885617 l 0.3437225707147585 -4.983952879280806 a25.995791379602455,25.995791379602455 0 0,0 0.44614944040469545,0.03462978324036918 l -0.4294622004817951 4.977297833851972" fill="#ff0400" stroke="none" /><path d="M 101.80526077348638 79.07773832637324 l 0.44161068950260807 -5.118094039012827 a26.13711072425557,26.13711072425557 0 0,0 0.44790901905331854,0.04253435842609191 l -0.5296448356461708 5.109734136071556" fill="#ff0601" stroke="none" /><path d="M 102.88285421437855 79.19881850522331 l 6.4954550345113145 -46.867836184757024 a68.31580079367333,68.31580079367333 0 0,0 1.163421404317821,0.17145807241843045 l -7.301245419257791 46.74908362817762" fill="#38ff83" stroke="none" /><path d="M 103.2404852339499 79.25152402106235 l 5.366190656161736 -34.35913756411601 a55.77565723761559,55.77565723761559 0 0,0 0.9473118069079212,0.15631456502058325 l -5.956831669208532 34.261676736155806" fill="#6dff28" stroke="none" /><path d="M 103.59715602781102 79.31037775812273 l 3.1164110400326908 -17.924540017222586 a39.19343707493039,39.19343707493039 0 0,0 0.6636846402186521,0.12128412583449855 l -3.424490801354244 17.86824041003735" fill="#ffc412" stroke="none" /><path d="M 103.95276090670814 79.375362276772 l 2.8853617647955985 -15.055183580259293 a36.3291834469111,36.3291834469111 0 0,0 0.6131563300102941,0.12299339152479752 l -3.144084504273018 15.003286232657286" fill="#ff9c0e" stroke="none" /><path d="M 104.307194497241 79.44645832069477 l 2.2403595896401374 -10.690792865703086 a31.92301529744697,31.92301529744697 0 0,0 0.5368497675834107,0.11733456576390211 l -2.4240520813770763 10.650644801843313" fill="#ff5d08" stroke="none" /><path d="M 105.36241919743992 79.69619591428918 l 3.4502310177925155 -13.063658780937123 a34.51159778933984,34.51159778933984 0 0,0 0.5730603331145293,0.15663903651969607 l -3.6745892401307554 13.002333203591133" fill="#ff830c" stroke="none" /><path d="M 105.71112130821622 79.79150937346287 l 5.176059402121882 -18.315203313874235 a40.03255798264763,40.03255798264763 0 0,0 0.6615090109301349,0.1931126200619572 l -5.490558630775444 18.223392364893574" fill="#ffcf13" stroke="none" /><path d="M 106.40334571778207 80.00007090966166 l 1.5803844880619748 -4.936103576125216 a26.18292713091194,26.18292713091194 0 0,0 0.42804993561986304,0.1411213338066535 l -1.6651172459242554 4.908168518059326" fill="#ff0701" stroke="none" /><path d="M 106.74666289553966 80.11325718540242 l 1.995091128539784 -5.88081319302116 a27.210020323830662,27.210020323830662 0 0,0 0.4422509336346417,0.1542926669204119 l -2.0960240662376997 5.84559967292854" fill="#ff1702" stroke="none" /><path d="M 107.08798089147638 80.2323363322302 l 5.057018330640219 -14.103513969973523 a35.98274142797871,35.98274142797871 0 0,0 0.5812372314059857,0.21407457758960197 l -5.299037887818781 14.014376124577597" fill="#ff980e" stroke="none" /><path d="M 108.09893153111575 80.62456947434976 l 10.467757551775229 -25.042477322416687 a48.14221101175255,48.14221101175255 0 0,0 0.7618304121472054,0.32617602417462294 l -10.89727172171275 24.858581770279272" fill="#c7ff1e" stroke="none" /><path d="M 109.41281617654863 81.2277094730956 l 8.790881511429552 -17.531945660566095 a40.612463292331135,40.612463292331135 0 0,0 0.6222206732140086,0.31872559600227923 l -9.091362672232316 17.378027539251313" fill="#ffd714" stroke="none" /><path d="M 109.73455568895987 81.39251694778311 l 15.057507345611455 -28.78223944620876 a53.483008404426435,53.483008404426435 0 0,0 0.8120629598247302,0.43377590961710943 l -15.550715351964495 28.518784810089894" fill="#87ff25" stroke="none" /><line stroke="#e1ed5e" stroke-width="0.3" x1="143.23703022742887" x2="145.7803849466894" y1="26.81831364943548" y2="22.513508569990506" /><path d="M 143.74570117128098 25.957352633546492 a86.0,86.0 0 0,1 28.547481713284135,27.462654790039103" fill="none" id="id74" stroke="none" /><text fill="#e1ed5e" style="font-size:6.75px; font-family:Arial;" text-anchor="middle"><textPath startOffset="19.985693538727396" xlink:href="#id74">February</textPath></text><path d="M 110.99172775467656 82.1063720568725 l 2.5128014663360463 -4.090633932816645 a25.800776726898633,25.800776726898633 0 0,0 0.37642208776386604,0.23571547682470423 l -2.5828427064721757 4.046774114668996" fill="#ff0100" stroke="none" /><path d="M 111.2981086023043 82.29822771554956 l 5.689825460381715 -8.914766018216826 a31.575782095389517,31.575782095389517 0 0,0 0.45564300769301713,0.29636288673836125 l -5.842435493859012 8.815504207318936" fill="#ff5808" stroke="none" /><path d="M 112.19680574252982 82.90503203632743 l 11.37903249173886 -15.948782001632303 a40.59198886748457,40.59198886748457 0 0,0 0.5653008220386062,0.4107150883274351 l -11.651878630131254 15.750547678488193" fill="#ffd714" stroke="none" /><path d="M 112.48926042617603 83.11751280151076 l 11.936574393195444 -16.135388126311806 a41.07068903229317,41.07068903229317 0 0,0 0.5647294964699071,0.42534254867085275 l -12.212550043423734 15.927528988135107" fill="#ffdd14" stroke="none" /><path d="M 112.77801427241765 83.33499621200491 l 13.75975208894798 -17.945379915498084 a43.6134348974425,43.6134348974425 0 0,0 0.5918290049259392,0.4619319257808196 l -14.06661364903335 17.70586960049404" fill="#fffe18" stroke="none" /><path d="M 113.06298171725822 83.55741782278167 l 13.485717273194387 -16.97468612317496 a42.67958808079254,42.67958808079254 0 0,0 0.5712898647703921,0.46194334009727006 l -13.77591053652927 16.74003668581356" fill="#fff216" stroke="none" /><path d="M 114.16331599549186 84.49514656593476 l 12.427507448129521 -13.604630553701828 a39.42631037066379,39.42631037066379 0 0,0 0.4971321979623449,0.46203019858181904 l -12.659847529886711 13.388695769045368" fill="#ffc712" stroke="none" /><path d="M 114.42810811169701 84.74124197986012 l 16.002132244673486 -16.923401310653986 a44.29097997718138,44.29097997718138 0 0,0 0.5494544019467916,0.5285746993406614 l -16.2910698902327 16.64544352455102" fill="#f7ff19" stroke="none" /><path d="M 114.68862486808459 84.99185889309783 l 44.06587460425377 -45.02442332070654 a84.0,84.0 0 0,0 1.0246567993307099,1.0202565973995252 l -44.8343672037518 44.25923087265689" fill="#4dd2ff" stroke="none" /><path d="M 114.94478906791727 85.2469230424477 l 28.85516340206347 -28.485008678193118 a61.5464693204787,61.5464693204787 0 0,0 0.7377831319459388,0.7603503704385047 l -29.34121079771252 27.9840941122045" fill="#30ff2f" stroke="none" /><path d="M 115.19652480421416 85.50635884689758 l 27.803506704584034 -26.517513323991615 a59.42152388909011,59.42152388909011 0 0,0 0.6995686896998029,0.7462511021554443 l -28.2558427162543 26.034992804958115" fill="#46ff2d" stroke="none" /><path d="M 115.4437574822437 85.77008943001954 l 15.030394208846316 -13.84903678197117 a41.43791990056012,41.43791990056012 0 0,0 0.47881784683401163,0.5287226256525128 l -15.266555696296363 13.588261369049109" fill="#ffe215" stroke="none" /><path d="M 115.9244219780498 86.31012108654704 l 34.06435353710255 -29.284383183941298 a65.92165714179092,65.92165714179092 0 0,0 0.732324902501,0.8668416973963834 l -34.56338905309067 28.693682536915805" fill="#35ff66" stroke="none" /><path d="M 116.15771136456269 86.58626213691792 l 15.235812744853629 -12.648400115544625 a40.80181848919825,40.80181848919825 0 0,0 0.44396557384792673,0.5442492984572053 l -15.451276810777964 12.38426664747932" fill="#ffda14" stroke="none" /><path d="M 116.38621287248628 86.86637796730983 l 22.43323070987501 -17.980333552870043 a49.74964755879528,49.74964755879528 0 0,0 0.5298240794482392,0.672822776421596 l -22.73940886991721 17.59151838249541" fill="#b3ff20" stroke="none" /><path d="M 116.60985879189232 87.15038557335679 l 18.5867012775458 -14.378926869398795 a44.49934046513309,44.49934046513309 0 0,0 0.46347982875634736,0.6098851261484987 l -18.83145704652626 14.056856967369262" fill="#f4ff19" stroke="none" /><path d="M 116.82858285166822 87.43820079747576 l 4.086558164289748 -3.050436483078855 a26.09952158220962,26.09952158220962 0 0,0 0.26564016941074803,0.36233289254383344 l -4.138460946214122 2.979641146863528" fill="#ff0600" stroke="none" /><path d="M 117.04232023915458 87.72973835380427 l 41.09232743163025 -29.585971989824678 a71.63505813496221,71.63505813496221 0 0,0 0.711872981541991,1.0068938480301068 l -41.59551303297612 28.874251641462777" fill="#3dffaa" stroke="none" /><path d="M 117.45458315368197 88.32363383020206 l 23.97061791053362 -16.035313451794796 a49.83958738453285,49.83958738453285 0 0,0 0.4708734204506684,0.7171725241148587 l -24.243087966342213 15.620322863702263" fill="#b2ff20" stroke="none" /><path d="M 117.65298651832404 88.62581576622439 l 7.008177035805755 -4.515513375905412 a29.336930275177778,29.336930275177778 0 0,0 0.26986120666766134,0.4268556216392805 l -7.084865838719372 4.394210106551925" fill="#ff3705" stroke="none" /><line stroke="#e1ed5e" stroke-width="0.3" x1="172.23445277983987" x2="176.4835382374775" y1="55.19839476539836" y2="52.563006222186495" /><path d="M 173.08426987136738 54.67131705675599 a86.0,86.0 0 0,1 12.851231095245387,41.99856678651699" fill="none" id="id75" stroke="none" /><text fill="#e1ed5e" style="font-size:6.75px; font-family:Arial;" text-anchor="middle"><textPath startOffset="22.20632615414155" xlink:href="#id75">March</textPath></text><path d="M 117.84615892207809 88.93136811851018 l 26.157775539434255 -16.22370334976947 a51.780477117042,51.780477117042 0 0,0 0.4632730289282802,0.761499050116945 l -26.433164366648757 15.77103652644544" fill="#9bff22" stroke="none" /><path d="M 118.03404312379186 89.2402003453031 l 29.161375355917425 -17.398791515094988 a54.957381507331355,54.957381507331355 0 0,0 0.47771134812412763,0.816563546352795 l -29.45654637851188 16.8942485563883" fill="#76ff27" stroke="none" /><path d="M 118.21658344932153 89.55222093294921 l 45.73115040961505 -26.22824182651673 a73.7186758852788,73.7186758852788 0 0,0 0.6218428631960441,1.1061890665344574 l -46.17585091410353 25.43716925004748" fill="#3fffc1" stroke="none" /><path d="M 118.3937258080291 89.86733742301442 l 40.34564291442329 -22.22544743626385 a67.06236441955929,67.06236441955929 0 0,0 0.5482888008618156,1.015895877359548 l -40.72223981450357 21.527670575571843" fill="#37ff74" stroke="none" /><path d="M 118.56541770881063 90.18545643968196 l 28.06310159164168 -14.835461142255266 a52.743165851032686,52.743165851032686 0 0,0 0.41740079189110074,0.8062854739299127 l -28.314311816692896 14.350202946065007" fill="#90ff24" stroke="none" /><path d="M 118.73160827565052 90.50648371742162 l 40.14902968973396 -20.348251014019013 a66.0110642437686,66.0110642437686 0 0,0 0.5049531669071777,1.0179547718249657 l -40.49334286959454 19.654136653695097" fill="#35ff67" stroke="none" /><path d="M 118.89224826269711 90.83032412892265 l 29.313802843042758 -14.22795566105869 a53.58425631211849,53.58425631211849 0 0,0 0.39560951810843464,0.8332545381420734 l -29.55437055499295 13.721258707276075" fill="#86ff25" stroke="none" /><path d="M 119.04729006885535 91.15688171328212 l 41.25153331359623 -19.151920681729653 a66.48060099121386,66.48060099121386 0 0,0 0.47295465499864614,1.0420928897742927 l -41.57509028555822 18.4390057831133" fill="#36ff6d" stroke="none" /><path d="M 119.196687751892 91.48605970444005 l 55.06929956360384 -24.423834708496432 a81.242438996889,81.242438996889 0 0,0 0.5559663447091538,1.2832469767208965 l -55.48155661815567 23.472288587188935" fill="#49edff" stroke="none" /><path d="M 119.34039704204932 91.81776055985345 l 33.679555017557675 -14.248631131620545 a57.56960370725503,57.56960370725503 0 0,0 0.37825508600748403,0.9159746936914143 l -33.91983179045136 13.666781867475828" fill="#5aff2a" stroke="none" /><path d="M 119.61058180528143 92.48833698450437 l 24.19294965405295 -9.266899215767019 a46.90703059091729,46.90703059091729 0 0,0 0.2823254016050401,0.7564917129429032 l -24.348879644159616 8.849084365794782" fill="#d6ff1c" stroke="none" /><path d="M 119.7369772167798 92.82701384747503 l 10.368502191766469 -3.7682124180969208 a32.032010810752766,32.032010810752766 0 0,0 0.18387429612872003,0.5198373959348993 l -10.431829568704998 3.589177395735407" fill="#ff5f08" stroke="none" /><path d="M 119.85752413597 93.16781622104841 l 53.80695880012262 -18.5128331503829 a77.90266959090768,77.90266959090768 0 0,0 0.42535861512843376,1.2717681185675755 l -54.11765470902282 17.58389192889301" fill="#45ffef" stroke="none" /><path d="M 120.08093135843002 93.85539295169968 l 35.21269644039554 -10.77480814387038 a57.82431915379645,57.82431915379645 0 0,0 0.28304757202576747,0.9542957023855054 l -35.39294990953301 10.167083054738345" fill="#57ff2a" stroke="none" /><path d="M 120.18372546131832 94.20196356495316 l 25.02265551455684 -7.188081737094251 a47.034627096605966,47.034627096605966 0 0,0 0.21683686402044136,0.780077569792978 l -25.142679149143643 6.7562928638823205" fill="#d4ff1c" stroke="none" /><path d="M 120.28053869075195 94.5502522615342 l 17.40767577609755 -4.677757486589525 a39.02522097032593,39.02522097032593 0 0,0 0.16874443874655143,0.6502411576791907 l -17.485616546714404 4.377419903361483" fill="#ffc212" stroke="none" /><path d="M 120.45610955862082 95.25157060432595 l 38.814263079092356 -9.009865108906583 a60.84626315796356,60.84626315796356 0 0,0 0.22804487811823138,1.0222804734970143 l -38.963602344212624 8.340406465859605" fill="#37ff2e" stroke="none" /><path d="M 120.6074358757038 95.95851677861258 l 7.1134050371836945 -1.3950647367344475 a28.24891280418728,28.24891280418728 0 0,0 0.08947409454781066,0.47797419081791676 l -7.136364855641364 1.272412468453968" fill="#ff2703" stroke="none" /><path d="M 120.67395015179393 96.31383870115 l 54.102332917521515 -9.646435456881505 a75.95558337550528,75.95558337550528 0 0,0 0.21841982319963138,1.2891261605614937 l -54.26036460224137 8.713723508004174" fill="#42ffda" stroke="none" /><path d="M 120.73433829027371 96.67025291283417 l 4.782034548876693 -0.7679514719463149 a25.843305058523036,25.843305058523036 0 0,0 0.06675461873691446,0.4398295317446822 l -4.794545061052908 0.6855228278095504" fill="#ff0200" stroke="none" /><path d="M 120.83666639777658 97.38593545837742 l 5.550819268185142 -0.6963781801232132 a26.59433080160685,26.59433080160685 0 0,0 0.05307423885719645,0.4547076666370085 l -5.5619838600459275 0.600726775161352" fill="#ff0d01" stroke="none" /><path d="M 120.87857604477298 97.74499172005257 l 10.000411734331374 -1.080102934962674 a31.058571330276862,31.058571330276862 0 0,0 0.052833401910524574,0.5320251470886808 l -10.017522261924128 0.9078022571695583" fill="#ff5107" stroke="none" /><path d="M 120.96714384426684 98.82574320788733 l 25.284396440752616 -1.4160428561728748 a46.32401786335774,46.32401786335774 0 0,0 0.037735085608052624,0.7965280165264874 l -25.305025134594167 0.9806037330233877" fill="#ddff1b" stroke="none" /><path d="M 120.98425023603335 99.18683210126433 l 11.116709588101848 -0.4307874370030491 a32.12505325299952,32.12505325299952 0 0,0 0.016656542640349156,0.5527495598033509 l -11.122477825197842 0.23936772977469906" fill="#ff6008" stroke="none" /><line stroke="#e1ed5e" stroke-width="0.3" x1="184.98032266829074" x2="189.97916517819016" y1="98.17113171792111" y2="98.06355123074" /><path d="M 185.9800911702706 98.14961562048488 a86.0,86.0 0 0,1 -9.607161424134198,41.387399972396054" fill="none" id="id76" stroke="none" /><text fill="#e1ed5e" style="font-size:6.75px; font-family:Arial;" text-anchor="middle"><textPath startOffset="21.466115282336823" xlink:href="#id76">April</textPath></text><path d="M 120.99513854157772 99.54816195383933 l 7.297865624156416 -0.15705794644945184 a28.29955545679234,28.29955545679234 0 0,0 0.006289229708983994,0.48710777193512433 l -7.299487860983116 0.03141391645386481" fill="#ff2703" stroke="none" /><path d="M 120.99824983174949 100.27111621757518 l 22.359746818848848 0.28869501182423113 a43.36161046554727,43.36161046554727 0 0,0 -0.016060185146578636,0.7462536964757488 l -22.35146457101726 -0.6735385240900947" fill="#fffb17" stroke="none" /><path d="M 120.9904718944345 100.63252640178507 l 4.83671081773795 0.14574933357405265 a25.83890632298876,25.83890632298876 0 0,0 -0.0172233132371144,0.444457184577962 l -4.833485371649632 -0.22898376516602084" fill="#ff0100" stroke="none" /><path d="M 120.95626037817324 101.35467743843564 l 9.979698634421089 0.6451185630675821 a31.000528125768184,31.000528125768184 0 0,0 -0.039006696966942166,0.5322153891488981 l -9.967115378789808 -0.8168070887132505" fill="#ff5007" stroke="none" /><path d="M 120.81339534386255 102.79330883721812 l 4.776721133585587 0.6410706727533375 a25.819547322675398,25.819547322675398 0 0,0 -0.06290864957554557,0.43998294861121384 l -4.76497843299344 -0.7231990933449607" fill="#ff0100" stroke="none" /><path d="M 120.76222939487914 103.15116336523771 l 5.165553612416118 0.7839959281362955 a26.224709919036606,26.224709919036606 0 0,0 -0.0715787792830141,0.44572112692260923 l -5.151293078771816 -0.8727962847521097" fill="#ff0701" stroke="none" /><path d="M 120.70491114924044 103.5080841355445 l 12.306560001011686 2.08513079778463 a33.4819545545708,33.4819545545708 0 0,0 -0.10116900637738672,0.5674095149892507 l -12.26884455229511 -2.2966590635070987" fill="#ff740a" stroke="none" /><path d="M 120.64145759157962 103.86396538481128 l 11.040709343697829 2.0667590231231427 a32.232486620142375,32.232486620142375 0 0,0 -0.10678172640591974,0.5444777224267446 l -11.003497684316246 -2.2565004726178324" fill="#ff6209" stroke="none" /><path d="M 120.5718875245553 104.21870165774334 l 21.749971788176858 4.46029281120309 a43.20260085548896,43.20260085548896 0 0,0 -0.1556650630159414,0.7272153508425971 l -21.66997268643647 -4.834021981461857" fill="#fff917" stroke="none" /><path d="M 120.41448212921028 104.9243191809786 l 14.838959675359344 3.57940864199462 a36.26456322576334,36.26456322576334 0 0,0 -0.15160087348825865,0.6055701304613414 l -14.775147487576024 -3.8343066118533575" fill="#ff9c0e" stroke="none" /><path d="M 120.32669344350535 105.2749913415812 l 33.97995836631347 8.818157594975895 a56.10551913796786,56.10551913796786 0 0,0 -0.2506365084845713,0.9327116871408275 l -33.82313378148712 -9.40176021529227" fill="#6aff28" stroke="none" /><path d="M 120.23288151984713 105.62410040840565 l 18.476888720583847 5.135990011979603 a40.17742970775784,40.17742970775784 0 0,0 -0.19095253884882873,0.664730838352409 l -18.38574354484892 -5.453278325836593" fill="#ffd113" stroke="none" /><path d="M 120.13307415673323 105.97154293290107 l 30.278350961284207 8.98066888817803 a52.5821302418597,52.5821302418597 0 0,0 -0.2648467440087803,0.8655344833507465 l -30.119277444769295 -9.500530344080834" fill="#92ff23" stroke="none" /><path d="M 120.02730092923936 106.31721596034902 l 9.573232753781182 3.019686924263907 a31.038191793278273,31.038191793278273 0 0,0 -0.1651050732263387,0.5081411657728209 l -9.519835429538597 -3.184026990014523" fill="#ff5007" stroke="none" /><path d="M 119.9155931802556 106.66101706037122 l 24.632588994204003 8.238674793486592 a46.973836892346334,46.973836892346334 0 0,0 -0.2630739963960506,0.7646161757349926 l -24.48712416686472 -8.661463672310884" fill="#d5ff1c" stroke="none" /><path d="M 119.67450827220406 107.3425965602758 l 36.72749687205159 13.706832641975616 a60.20186586837019,60.20186586837019 0 0,0 -0.370687887424985,0.9677491023730432 l -36.486114705033096 -14.337005311181803" fill="#3dff2e" stroke="none" /><path d="M 119.54520255179757 107.68017299344265 l 35.01310590445834 13.75819512083987 a58.61921740360793,58.61921740360793 0 0,0 -0.37710966788119016,0.935955269142347 l -34.77109362231976 -14.35884975782503" fill="#4eff2b" stroke="none" /><path d="M 119.41010516605496 108.01547362559984 l 18.45189845217545 7.619778673034312 a40.96330592650985,40.96330592650985 0 0,0 -0.2747448308032471,0.6494156217078737 l -18.31800264017989 -7.936268820408349" fill="#ffdc14" stroke="none" /><path d="M 119.26925614724726 108.34839909993367 l 12.610887116124028 5.463662833951945 a34.743583427139036,34.743583427139036 0 0,0 -0.24247532855381054,0.54671785427158 l -12.514970702838944 -5.6799290247162135" fill="#ff860c" stroke="none" /><path d="M 119.12269723197855 108.67885076344098 l 35.36844699548252 16.05199671807521 a59.840618449110124,59.840618449110124 0 0,0 -0.4337743367598688,0.9343113310041616 l -35.08689804188282 -16.6584281163582" fill="#41ff2d" stroke="none" /><path d="M 118.81262510543309 109.33194174019688 l 9.997624893777243 4.959289441329853 a32.16006520050668,32.16006520050668 0 0,0 -0.2502686016584343,0.49380369406048213 l -9.91077762233254 -5.13064734709303" fill="#ff6108" stroke="none" /><path d="M 118.64920377521936 109.65438752849418 l 36.28669990263823 18.78503056820832 a61.86076312641073,61.86076312641073 0 0,0 -0.4976771795000531,0.9414176690721043 l -35.95797021491329 -19.40686325236656" fill="#30ff33" stroke="none" /><line stroke="#e1ed5e" stroke-width="0.3" x1="174.80103733775053" x2="179.2010983576182" y1="140.37084112569926" y2="142.7455964860345" /><path d="M 175.68104954172406 140.8457921977663 a86.0,86.0 0 0,1 -30.038265399797805,32.042727171017184" fill="none" id="id77" stroke="none" /><text fill="#e1ed5e" style="font-size:6.75px; font-family:Arial;" text-anchor="middle"><textPath startOffset="22.206326154141568" xlink:href="#id77">May</textPath></text><path d="M 118.48025628344425 109.97397251340804 l 6.788917656455727 3.6640443218279937 a28.714572168205848,28.714572168205848 0 0,0 -0.23849994184010553,0.4329466714308492 l -6.724841305164111 -3.780361511656648" fill="#ff2e04" stroke="none" /><path d="M 117.94076556474637 110.91462005526583 l 18.902229099305504 11.499545438680157 a43.12541096158219,43.12541096158219 0 0,0 -0.3912817008110593,0.6308706885132522 l -18.70148275882648 -11.823212458558682" fill="#fff817" stroke="none" /><path d="M 117.75023020441432 111.22182372390056 l 4.390659373502655 2.775806564406421 a26.194515551726504,26.194515551726504 0 0,0 -0.2442266072010605,0.3790451179376795 l -4.342227902924544 -2.8509732822655534" fill="#ff0701" stroke="none" /><path d="M 117.55443506779139 111.5257021239791 l 12.747270643427054 8.36946582231248 a36.249290705066706,36.249290705066706 0 0,0 -0.34695213632297245,0.5186463687188145 l -12.601315401693359 -8.5876491052371" fill="#ff9b0e" stroke="none" /><path d="M 117.35343817320211 111.8261652097733 l 14.849961546133382 10.120075160353558 a38.97045573080564,38.97045573080564 0 0,0 -0.38253973294411453,0.5510770164674607 l -14.673560906027133 -10.374193439008039" fill="#ffc111" stroke="none" /><path d="M 117.14729908036423 112.12312394758627 l 12.365169746665202 8.742163110890463 a36.14340908518483,36.14340908518483 0 0,0 -0.3635342081536316,0.5049172195250239 l -12.212855746135968 -8.953713935866617" fill="#ff9a0e" stroke="none" /><path d="M 116.93607887273984 112.41649034213515 l 12.32871775164156 9.038656825138123 a36.28707292460717,36.28707292460717 0 0,0 -0.37365098497904176,0.500566555550712 l -12.171305499967428 -9.249536260198148" fill="#ff9c0e" stroke="none" /><path d="M 116.71984013943494 112.70617746262583 l 12.783669804894984 9.71490013122198 a37.0561981253409,37.0561981253409 0 0,0 -0.3903132573877142,0.5045324999301998 l -12.614549730289202 -9.93351062526543" fill="#ffa70f" stroke="none" /><path d="M 116.498646956653 112.99209946851258 l 22.66964085009986 17.85153834819085 a49.85463632883708,49.85463632883708 0 0,0 -0.5367257273794961,0.6696478702592162 l -22.358997210665507 -18.239114052028317" fill="#b2ff20" stroke="none" /><path d="M 116.27256486870786 113.27417163493432 l 22.39673658757746 18.269899547158715 a49.903339586224305,49.903339586224305 0 0,0 -0.5487086061490514,0.6609548637303353 l -22.078931981534865 -18.65271566800282" fill="#b1ff20" stroke="none" /><path d="M 116.0416608686014 113.55231037782055 l 4.7843635644939155 4.041924369144855 a27.263169111811045,27.263169111811045 0 0,0 -0.30594142923985007,0.3558790001418796 l -4.714079625683286 -4.123680468448263" fill="#ff1702" stroke="none" /><path d="M 115.80600337817218 113.82643327865902 l 13.680255164626898 11.966917299913783 a39.17571156880183,39.17571156880183 0 0,0 -0.4483588373471778,0.5037359067789551 l -13.472237477631381 -12.200627376433605" fill="#ffc412" stroke="none" /><path d="M 115.56566222782051 114.09645910891815 l 12.977350657410671 11.752451659738732 a38.50804815220397,38.50804815220397 0 0,0 -0.4491754626645744,0.4874912514911049 l -12.773128786750375 -11.974094166031172" fill="#ffbb11" stroke="none" /><path d="M 115.32070863581623 114.36230785411682 l 15.241216981845445 14.287788872436535 a41.89104128450794,41.89104128450794 0 0,0 -0.4976923979237171,0.5218284894750318 l -14.993018032542764 -14.548024478494073" fill="#ffe815" stroke="none" /><path d="M 113.48314897796784 116.09983520530334 l 3.1660170454631222 3.7804486750409043 a25.93107048385861,25.93107048385861 0 0,0 -0.344673160517048,0.283642545876232 l -3.1004737564013833 -3.8343863397743148" fill="#ff0300" stroke="none" /><path d="M 112.63410532772338 116.77436683061366 l 8.726540865621326 11.586273332790919 a35.50497312033018,35.50497312033018 0 0,0 -0.4913466101739445,0.3634864757682337 l -8.525809285028817 -11.734769757298922" fill="#ff910d" stroke="none" /><path d="M 111.1453310114006 117.79835938074945 l 5.5320781464375335 8.834364351491082 a31.42352541672865,31.42352541672865 0 0,0 -0.46090949713372337,0.28312825817888837 l -5.379189449371501 -8.92828107649835" fill="#ff5608" stroke="none" /><line stroke="#e1ed5e" stroke-width="0.3" x1="143.8653032363475" x2="146.44561519142675" y1="172.8068346515853" y2="177.08958963109032" /><path d="M 144.38136562736335 173.6633856474863 a86.0,86.0 0 0,1 -40.68145358897372,12.25698825130547" fill="none" id="id78" stroke="none" /><text fill="#e1ed5e" style="font-size:6.75px; font-family:Arial;" text-anchor="middle"><textPath startOffset="21.466115282336833" xlink:href="#id78">June</textPath></text><path d="M 110.8373102113329 117.98757091392108 l 4.062787784190669 6.743341470461948 a28.872667830324154,28.872667830324154 0 0,0 -0.42790961323438714,0.252816542015635 l -3.9461102999279003 -6.812276584771332" fill="#ff3004" stroke="none" /><path d="M 110.5260780823613 118.17145234162733 l 2.8213686277836936 4.870604716855088 a26.628757522019676,26.628757522019676 0 0,0 -0.3986087029715848,0.2263404245953803 l -2.7371111578909098 -4.9184483072450975" fill="#ff0e01" stroke="none" /><path d="M 110.21172684928248 118.3499491758327 l 2.327524880441613 4.182442782886483 a25.78646003860828,25.78646003860828 0 0,0 -0.3897159132816644,0.21250418893829867 l -2.2551861552913 -4.221887623584552" fill="#ff0100" stroke="none" /><path d="M 109.57404056367764 118.69057910512821 l 6.109729775931681 11.927501970405622 a34.401272372015136,34.401272372015136 0 0,0 -0.5293636541789383,0.2654339256145137 l -5.903512214069982 -12.030903736929437" fill="#ff810b" stroke="none" /><path d="M 108.92500713936063 119.00905698771935 l 2.2185110172923723 4.725128136829149 a26.220021747397432,26.220021747397432 0 0,0 -0.41019601408068224,0.18830087122044234 l -2.136847007444271 -4.762616078383665" fill="#ff0701" stroke="none" /><path d="M 108.59647513512805 119.15986991738527 l 5.295373139691372 11.802356073352554 a33.93586431479423,33.93586431479423 0 0,0 -0.535022050583242,0.23453794412697332 l -5.091430414450376 -11.891758570773982" fill="#ff7b0b" stroke="none" /><path d="M 108.2653958097858 119.30500536409082 l 8.403609252846108 19.627822482722895 a42.3511607152352,42.3511607152352 0 0,0 -0.6726343248543266,0.2811612023413675 l -8.064503468494319 -19.769568728084234" fill="#ffee16" stroke="none" /><path d="M 107.93186726928326 119.44442032107085 l 6.626130036086537 16.24349641132879 a38.54299788861583,38.54299788861583 0 0,0 -0.6164657455689955,0.2453044425649395 l -6.345543214475676 -16.3551476982998" fill="#ffbb11" stroke="none" /><path d="M 107.59598834532513 119.57807347666477 l 13.05963843482335 33.66020973597255 a57.10490099028076,57.10490099028076 0 0,0 -0.9194698840642856,0.3476648342426182 l -12.47829832999879 -33.880022820321805" fill="#5fff29" stroke="none" /><path d="M 107.2578585660854 119.70592522655815 l 2.864423457844653 7.777240898747716 a29.287967045241246,29.287967045241246 0 0,0 -0.4745772521150733,0.17016651795859514 l -2.7301266450998445 -7.825394957746272" fill="#ff3605" stroke="none" /><path d="M 106.2309692047433 120.05430185196036 l 1.4076409757034642 4.5304760942255715 a25.744119176077767,25.744119176077767 0 0,0 -0.424318281325394,0.1278436174274039 l -1.3294477199378245 -4.554035080758701" fill="#ff0000" stroke="none" /><path d="M 105.88484417918355 120.15858648285463 l 3.337047068390431 11.431084643406464 a32.908214780619986,32.908214780619986 0 0,0 -0.5451305826427153,0.15405934781704447 l -3.1397853176431103 -11.48683278456203" fill="#ff6c09" stroke="none" /><path d="M 105.53697534728816 120.25689768951611 l 1.256358654123596 4.596359405931697 a25.76497186311609,25.76497186311609 0 0,0 -0.428814471754854,0.11325379942454146 l -1.1770537395572447 -4.617304554659823" fill="#ff0000" stroke="none" /><path d="M 104.13013068566511 120.58985236759428 l 0.9355879247828925 4.664166515370563 a25.757076207935242,25.757076207935242 0 0,0 -0.4354569622743642,0.08345636321618706 l -0.8551633479368239 -4.679580076935219" fill="#ff0000" stroke="none" /><path d="M 103.7750983002368 120.6578951692458 l 0.859127929040373 4.701274849975155 a25.779130257009754,25.779130257009754 0 0,0 -0.4372030359804772,0.07601335190505634 l -0.7780759215878459 -4.715366780401218" fill="#ff0100" stroke="none" /><path d="M 102.70371172650421 120.8252237178851 l 3.904675784231198 30.075597910566135 a51.3280082210819,51.3280082210819 0 0,0 -0.877153075235219,0.10621102184895025 l -3.3863952859445985 -30.138354461140434" fill="#a0ff22" stroke="none" /><path d="M 102.34483914955558 120.86867818915974 l 1.593331920551559 14.18038892126492 a35.26962286002617,35.26962286002617 0 0,0 -0.6038955576418709,0.06259624372954266 l -1.3490037663040855 -14.20571453345022" fill="#ff8e0d" stroke="none" /><path d="M 101.98527174616119 120.90594882070398 l 0.5010966305963149 5.276809350523641 a26.300548533403756,26.300548533403756 0 0,0 -0.45106152384855835,0.03891948624556305 l -0.4101907890062149 -5.284653089047867" fill="#ff0901" stroke="none" /><line stroke="#e1ed5e" stroke-width="0.3" x1="102.19456741930631" x2="102.32365962044197" y1="184.97166512339345" y2="189.96999836594603" /><path d="M 102.22038585953345 185.97133177190398 a86.0,86.0 0 0,1 -42.740103519485714,-10.115201625700543" fill="none" id="id79" stroke="none" /><text fill="#e1ed5e" style="font-size:6.75px; font-family:Arial;" text-anchor="middle"><textPath startOffset="22.20632615414155" xlink:href="#id79">July</textPath></text><path d="M 100.54218724476979 120.99299961872073 l 0.28885089515399676 11.18404534656588 a32.18777480796218,32.18777480796218 0 0,0 -0.5539980622978485,0.009537579051230332 l -0.09629314296348027 -11.18736040289627" fill="#ff6109" stroke="none" /><path d="M 99.81925306533755 120.99922214144158 l -0.3828108250249085 44.475053299571634 a65.47670075587322,65.47670075587322 0 0,0 -1.1269485250479905,-0.019401440863765954 l 1.148319039965567 -44.46187438142871" fill="#35ff61" stroke="none" /><path d="M 96.22490169976321 120.6578951692458 l -2.4348480178708245 13.323847779822422 a34.544497204769485,34.544497204769485 0 0,0 -0.5840197736205106,-0.11192877959314415 l 2.66383540606303 -13.27996180188081" fill="#ff830c" stroke="none" /><path d="M 95.16358092515715 120.4354850818985 l -4.052319013176917 17.122400573519638 a38.59539402186324,38.59539402186324 0 0,0 -0.6451802997817438,-0.15856962052764625 l 4.346452597701871 -17.05010969467796" fill="#ffbc11" stroke="none" /><path d="M 94.81253420990036 120.34920634021253 l -1.8401144499709194 7.218335531682743 a28.449187139342477,28.449187139342477 0 0,0 -0.4734887047354602,-0.12505267039250487 l 1.9640935975178688 -7.185591511986656" fill="#ff2a04" stroke="none" /><path d="M 94.46302465271185 120.25689768951611 l -1.5955566170347957 5.837307396525468 a27.051442684161724,27.051442684161724 0 0,0 -0.44811208417258697,-0.12664095105779846 l 1.6957998693119964 -5.808977652129148" fill="#ff1402" stroke="none" /><path d="M 93.76903079525671 120.05430185196036 l -3.579722473102233 11.521295108823418 a33.06460334901366,33.06460334901366 0 0,0 -0.5420684364809529,-0.17355319540417657 l 3.777512254674126 -11.457969066759535" fill="#ff6e0a" stroke="none" /><line stroke="#e1ed5e" stroke-width="0.3" x1="58.666819895761336" x2="56.23545636021788" y1="174.27360380694188" y2="178.64263932499728" /><path d="M 58.180547188652646 175.14741091055294 a86.0,86.0 0 0,1 -31.652253787137756,-30.449443065178592" fill="none" id="id80" stroke="none" /><text fill="#e1ed5e" style="font-size:6.75px; font-family:Arial;" text-anchor="middle"><textPath startOffset="22.20632615414155" xlink:href="#id80">August</textPath></text><path d="M 87.36589467227662 116.77436683061367 l -10.01121168193714 13.291937404007639 a37.64031127390987,37.64031127390987 0 0,0 -0.5141868550022606,-0.39425655436342866 l 10.23852726543289 -13.117641507816844" fill="#ffaf10" stroke="none" /><path d="M 87.07902340077011 116.55440617244103 l -4.4158336636967706 5.657583503644123 a28.176896128978303,28.176896128978303 0 0,0 -0.37977425370421836,-0.30171563561939696 l 4.512565410118347 -5.580733954019594" fill="#ff2503" stroke="none" /><path d="M 85.70375840098266 115.38237550388516 l -3.699042291803835 3.980071065754065 a26.433588093056564,26.433588093056564 0 0,0 -0.33062649335807326,-0.31262798613525866 l 3.7670046195527247 -3.9158084428728754" fill="#ff0b01" stroke="none" /><path d="M 85.44109423537348 115.13401014063109 l -9.843184322734597 10.232008762520335 a35.197967492835765,35.197967492835765 0 0,0 -0.43301888466901745,-0.42380011704277437 l 10.01785315977941 -10.061058542554992" fill="#ff8d0c" stroke="none" /><path d="M 82.24976979558568 111.22182372390057 l -51.0565326216314 32.27830864362759 a81.40412843702816,81.40412843702816 0 0,0 -0.7385888068697695,-1.1908403284699178 l 51.60458606816912 -31.39467198379241" fill="#4aebff" stroke="none" /><line stroke="#e1ed5e" stroke-width="0.3" x1="26.63291911575756" x2="22.317208475507996" y1="142.92168965132927" y2="145.44649492493687" /><path d="M 25.769776987707644 143.4266507060508 a86.0,86.0 0 0,1 -11.730757126820373,-40.83630448921669" fill="none" id="id81" stroke="none" /><text fill="#e1ed5e" style="font-size:6.75px; font-family:Arial;" text-anchor="middle"><textPath startOffset="21.46611528233685" xlink:href="#id81">September</textPath></text><path d="M 81.35079622478065 109.6543875284942 l -25.4036803302408 13.15106947804507 a49.60590153687578,49.60590153687578 0 0,0 -0.3860315436003674,-0.7616768583455666 l 25.626290543627437 -12.711838407996817" fill="#b5ff20" stroke="none" /><path d="M 81.18737489456691 109.33194174019688 l -51.905554615024954 25.747582219141304 a78.94069890866677,78.94069890866677 0 0,0 -0.5933586782519552,-1.2224946242341728 l 52.34106654989163 -24.850298638941844" fill="#46fffa" stroke="none" /><path d="M 81.02952815118164 109.00673069616217 l -50.25546827681021 23.860105978699963 a76.63197595840248,76.63197595840248 0 0,0 -0.5554919953613813,-1.1964803391205496 l 50.65873488901142 -22.991505572300586" fill="#43ffe1" stroke="none" /><path d="M 80.87730276802145 108.67885076344099 l -29.152772061797208 13.231007895781648 a53.0147417422871,53.0147417422871 0 0,0 -0.3699896687143302,-0.8342290285308994 l 29.376202815242817 -12.727230530758053" fill="#8dff24" stroke="none" /><path d="M 80.58989483394504 108.01547362559985 l -56.57287583035964 23.361975129099562 a82.2067983286984,82.2067983286984 0 0,0 -0.5288535021179664,-1.312571021296742 l 56.966631946735 -22.384704739960018" fill="#4be3ff" stroke="none" /><path d="M 80.32549172779594 107.34259656027581 l -12.048027493448737 4.496366771030606 a33.85971541763366,33.85971541763366 0 0,0 -0.1990882563497673,-0.5478053764708084 l 12.123640010803728 -4.28831359755368" fill="#ff790b" stroke="none" /><path d="M 79.76711848015287 105.62410040840567 l -13.864932401025355 3.854012188161765 a35.39061362247983,35.39061362247983 0 0,0 -0.15809816873189617,-0.5883420998137616 l 13.929218646099025 -3.614779155172464" fill="#ff8f0d" stroke="none" /><path d="M 79.58551787078972 104.9243191809786 l -7.9027167245839305 1.906269250544758 a29.129378456228437,29.129378456228437 0 0,0 -0.11338185284794244,-0.48844605459015406 l 7.934359143362428 -1.7699545386060296" fill="#ff3404" stroke="none" /><path d="M 79.50377843672027 104.57218783832718 l -7.606590045659639 1.696837555669963 a28.793553092977575,28.793553092977575 0 0,0 -0.10374723206280954,-0.4846725289654546 l 7.63467131644689 -1.5656512072883446" fill="#ff2f04" stroke="none" /><path d="M 79.4281124754447 104.21870165774334 l -19.880206339587676 4.076857767231606 a41.29392454304536,41.29392454304536 0 0,0 -0.1368010046741637,-0.6975453755779532 l 19.94743727723751 -3.7340486645856976" fill="#ffe015" stroke="none" /><path d="M 79.04373962182676 101.35467743843564 l -5.816112533302465 0.37597148947785797 a26.828251844330186,26.828251844330186 0 0,0 -0.025823660432486798,-0.46109880437593925 l 5.821722544622483 -0.27580096876648114" fill="#ff1101" stroke="none" /><line stroke="#e1ed5e" stroke-width="0.3" x1="15.007084014347285" x2="10.007500721073583" y1="101.09737516637583" y2="101.16192664675087" /><path d="M 14.007167355692545 101.11028546245083 a86.0,86.0 0 0,1 10.666146001902534,-42.60595125391555" fill="none" id="id82" stroke="none" /><text fill="#e1ed5e" style="font-size:6.75px; font-family:Arial;" text-anchor="middle"><textPath startOffset="22.20632615414155" xlink:href="#id82">October</textPath></text><path d="M 79.81627453868168 94.20196356495316 l -22.74348237969198 -6.533359748180353 a44.66327915472627,44.66327915472627 0 0,0 0.21862484346473743,-0.7370942879316188 l 22.627651639115534 6.923883422858512" fill="#f2ff19" stroke="none" /><path d="M 80.38941819471856 92.48833698450439 l -11.753088384487043 -4.501918413854803 a33.58579977508657,33.58579977508657 0 0,0 0.2114409220308806,-0.5380940836047392 l 11.67385391257447 4.703561502355305" fill="#ff750a" stroke="none" /><path d="M 80.803312248108 91.48605970444005 l -4.371283548031123 -1.938711908216164 a25.781916323018077,25.781916323018077 0 0,0 0.1834170744239831,-0.40413521063871005 l 4.337264156643788 2.013669127696945" fill="#ff0100" stroke="none" /><line stroke="#e1ed5e" stroke-width="0.3" x1="26.266209847984243" x2="21.928928074336255" y1="57.711370442889674" y2="55.22380399835377" /><path d="M 25.398753493254645 57.213857153982495 a86.0,86.0 0 0,1 29.58750427330803,-30.492523968695096" fill="none" id="id83" stroke="none" /><text fill="#e1ed5e" style="font-size:6.75px; font-family:Arial;" text-anchor="middle"><textPath startOffset="21.46611528233685" xlink:href="#id83">November</textPath></text><path d="M 82.95767976084542 87.72973835380427 l -11.702861812152442 -8.42591703648835 a35.42057739829167,35.42057739829167 0 0,0 0.36050960363664314,-0.49173469421154414 l 11.556089596002165 8.626114174371395" fill="#ff900d" stroke="none" /><path d="M 83.17141714833178 87.43820079747576 l -11.37769867992756 -8.492953177569968 a35.197967492835765,35.197967492835765 0 0,0 0.3666020164710897,-0.4824052810706127 l 11.229820723232361 8.687543234521607" fill="#ff8d0c" stroke="none" /><path d="M 84.31358615837235 86.03803664274999 l -3.6335876529203768 -3.234137399256982 a25.864422262584544,25.864422262584544 0 0,0 0.29886507351467057,-0.33001427876870343 l 3.577378938789661 3.296204465295242" fill="#ff0200" stroke="none" /><path d="M 88.39885842347998 82.49532879139004 l -11.350616678133871 -17.12666048036441 a41.54650817495778,41.54650817495778 0 0,0 0.5995219971683278,-0.3899457837475644 l 11.054127655181256 17.31950518827151" fill="#ffe315" stroke="none" /><line stroke="#e1ed5e" stroke-width="0.3" x1="56.762969772571076" x2="54.21961505331055" y1="26.818313649435495" y2="22.513508569990535" /><path d="M 56.25429882871897 25.957352633546506 a86.0,86.0 0 0,1 42.265352541879196,-11.944610805530505" fill="none" id="id84" stroke="none" /><text fill="#e1ed5e" style="font-size:6.75px; font-family:Arial;" text-anchor="middle"><textPath startOffset="22.20632615414155" xlink:href="#id84">December</textPath></text><path d="M 98.19473922651362 79.07773832637324 l -1.5371156759927973 -17.814565556446805 a38.88075699086377,38.88075699086377 0 0,0 0.6672860125964911,-0.05179423727302523 l 1.230239474033972 17.838385055908294" fill="#ffc011" stroke="none" /><path d="M 98.55514903715128 79.0497635885617 l -2.225369949462841 -32.2677063191594 a53.34435255978224,53.34435255978224 0 0,0 0.9166031849356493,-0.05529200725003533 l 1.6696047156875686 32.301231595789744" fill="#89ff24" stroke="none" /></svg>