<?xml version="1.0" encoding="utf-8" ?>
<svg baseProfile="full" height="200mm" version="1.1" viewBox="0,0,200,200" width="200mm" xmlns="http://www.w3.org/2000/svg" xmlns:ev="http://www.w3.org/2001/xml-events" xmlns:xlink="http://www.w3.org/1999/xlink"><defs /><rect fill="#1a1a1a" height="200" width="200" x="0" y="0" /><text alignment-baseline="middle" fill="#e1ed5e" style="dominant-baseline: central; font-size:9.0px; font-family:Arial;" text-anchor="middle" x="100.0" y="100.0">2022</text><line stroke="#e1ed5e" stroke-width="0.3" x1="100.0" x2="100.0" y1="15.0" y2="10.0" /><path d="M 100.0 14.0 a86.0,86.0 0 0,1 42.46469731375804,11.215312516191453" fill="none" id="id61" stroke="none" /><text fill="#e1ed5e" style="font-size:6.75px; font-family:Arial;" text-anchor="middle"><textPath startOffset="22.20632615414155" xlink:href="#id61">January</textPath></text><path d="M 102.16513564639614 79.11191278185805 l 0.8338631995466941 -8.044672521614146 a29.08777372430584,29.08777372430584 0 0,0 0.49758556393074205,0.05590953581164361 l -0.9722154669871614 8.029127032331902" fill="#ff4e07" stroke="none" /><path d="M 102.52436894288641 79.15227682838746 l 0.9058350961626545 -7.4809188954515795 a28.535561342180454,28.535561342180454 0 0,0 0.4871227835682177,0.06324251782465315 l -1.0344726082387183 7.46421805446279" fill="#ff4606" stroke="none" /><path d="M 102.88285421437855 79.19881850522331 l 0.4944100820232967 -3.5674068420525207 a24.60150425599213,24.60150425599213 0 0,0 0.41896481190758234,0.06174452248705633 l -0.5557438743595349 3.5583678354044954" fill="#ff0d01" stroke="none" /><path d="M 103.59715602781102 79.31037775812273 l 0.7267766374261679 -4.180172882775812 a25.242882229169545,25.242882229169545 0 0,0 0.4274520037198844,0.07811412147536091 l -0.7986237622489533 4.167043279949713" fill="#ff1602" stroke="none" /><path d="M 103.95276090670814 79.375362276772 l 0.7004900940785791 -3.6550033660175014 a24.721523340985716,24.721523340985716 0 0,0 0.41724468005656357,0.08369535758519238 l -0.763301183602268 3.6424040523551007" fill="#ff0e01" stroke="none" /><path d="M 108.76106565485865 80.91482961587045 l 3.1500032312047956 -6.861990395513377 a28.550459094963596,28.550459094963596 0 0,0 0.444872966346269,0.20887382279479136 l -3.2676544088506625 6.806751590078583" fill="#ff4706" stroke="none" /><path d="M 109.08828744355905 81.06846463323043 l 1.728029051813061 -3.599604800394941 a24.99289858660801,24.99289858660801 0 0,0 0.3862339862880318,0.18952333967575127 l -1.7897343051115244 3.5693263005843576" fill="#ff1302" stroke="none" /><path d="M 109.41281617654863 81.2277094730956 l 3.1292753745064283 -6.240817345958375 a27.98141572427164,27.98141572427164 0 0,0 0.42870128817635644,0.21959745065229988 l -3.2362371502715406 6.186027369993575" fill="#ff3e05" stroke="none" /><path d="M 110.05341064243156 81.56283822128135 l 5.609749971517564 -10.28783876851729 a32.71788894255056,32.71788894255056 0 0,0 0.4921329987318166,0.2738714809731636 l -5.786007059321416 10.189751889983945" fill="#ff810b" stroke="none" /><path d="M 110.36928655335952 81.73862282372117 l 1.9167940847824663 -3.3756709848212423 a24.88191372408263,24.88191372408263 0 0,0 0.3706259007337542,0.214690443951583 l -1.9746167179815488 3.3421763834796097" fill="#ff1101" stroke="none" /><line stroke="#e1ed5e" stroke-width="0.3" x1="143.23703022742887" x2="145.7803849466894" y1="26.81831364943548" y2="22.513508569990506" /><path d="M 143.74570117128098 25.957352633546492 a86.0,86.0 0 0,1 28.547481713284135,27.462654790039103" fill="none" id="id62" stroke="none" /><text fill="#e1ed5e" style="font-size:6.75px; font-family:Arial;" text-anchor="middle"><textPath startOffset="19.985693538727396" xlink:href="#id62">February</textPath></text><path d="M 112.48926042617603 83.11751280151076 l 4.413651951813635 -5.966199761429375 a28.42131141679341,28.42131141679341 0 0,0 0.3907982374680895,0.29434113036383946 l -4.515696343040107 5.889342041559688" fill="#ff4506" stroke="none" /><path d="M 112.77801427241765 83.33499621200491 l 5.8228799506782725 -7.594162470498955 a30.569599497802706,30.569599497802706 0 0,0 0.41482574565182856,0.3237780743381999 l -5.9527382514895315 7.492806006937531" fill="#ff6309" stroke="none" /><path d="M 113.06298171725822 83.55741782278167 l 2.4960576798312735 -3.141827372037141 a25.012652885152974,25.012652885152974 0 0,0 0.33480817709059885,0.27072492819257366 l -2.549769255486363 3.098396346580438" fill="#ff1302" stroke="none" /><path d="M 115.4437574822437 85.77008943001954 l 11.239444098731537 -10.356047391001162 a36.28308938707005,36.28308938707005 0 0,0 0.41925344656520824,0.46295012716739176 l -11.41604118591278 10.161044476564221" fill="#ffb210" stroke="none" /><path d="M 116.60985879189232 87.15038557335679 l 2.874290231977619 -2.223590320298655 a24.633992054224642,24.633992054224642 0 0,0 0.25657365478985444,0.33762085447769064 l -2.912139826991587 2.1737846899399305" fill="#ff0d01" stroke="none" /><path d="M 117.2510076193507 88.02491185347247 l 2.4813826949631186 -1.7224951233642662 a24.02063727198022,24.02063727198022 0 0,0 0.23285781274385295,0.3416901070566897 l -2.5106649733757047 1.6795269930371701" fill="#ff0400" stroke="none" /><path d="M 117.65298651832404 88.62581576622439 l 2.8236530842529044 -1.8193380683332896 a24.359018866737376,24.359018866737376 0 0,0 0.2240709632179893,0.35442645305264936 l -2.8545516437168494 1.770463967566434" fill="#ff0901" stroke="none" /><line stroke="#e1ed5e" stroke-width="0.3" x1="172.23445277983987" x2="176.4835382374775" y1="55.19839476539836" y2="52.563006222186495" /><path d="M 173.08426987136738 54.67131705675599 a86.0,86.0 0 0,1 12.851231095245387,41.99856678651699" fill="none" id="id63" stroke="none" /><text fill="#e1ed5e" style="font-size:6.75px; font-family:Arial;" text-anchor="middle"><textPath startOffset="22.20632615414155" xlink:href="#id63">March</textPath></text><path d="M 118.21658344932153 89.55222093294921 l 6.166495826516363 -3.536677785522579 a28.10871018800546,28.10871018800546 0 0,0 0.23710682013955744,0.4217865759383038 l -6.226460287948354 3.4300076996494813" fill="#ff4006" stroke="none" /><path d="M 119.196687751892 91.48605970444005 l 12.964968502352308 -5.750104871709628 a35.18288102970078,35.18288102970078 0 0,0 0.24076699326036727,0.5557234158790254 l -13.062026205455357 5.526082311244" fill="#ffa30f" stroke="none" /><line stroke="#e1ed5e" stroke-width="0.3" x1="184.98032266829074" x2="189.97916517819016" y1="98.17113171792111" y2="98.06355123074" /><path d="M 185.9800911702706 98.14961562048488 a86.0,86.0 0 0,1 -9.607161424134198,41.387399972396054" fill="none" id="id64" stroke="none" /><text fill="#e1ed5e" style="font-size:6.75px; font-family:Arial;" text-anchor="middle"><textPath startOffset="21.466115282336823" xlink:href="#id64">April</textPath></text><path d="M 120.81339534386255 102.79330883721812 l 7.591807921860724 1.0188757676603373 a28.65987306372323,28.65987306372323 0 0,0 -0.06982902871662591,0.48838406420571695 l -7.573144842127497 -1.1494053038464636" fill="#ff4806" stroke="none" /><path d="M 120.70491114924044 103.5080841355445 l 10.810527553285551 1.831654332307482 a31.964600474864866,31.964600474864866 0 0,0 -0.0965841723493635,0.541695330919451 l -10.777396938596999 -2.0174684139601515" fill="#ff770a" stroke="none" /><path d="M 120.64145759157962 103.86396538481128 l 3.6172116087759494 0.6771217770759277 a24.680042625249598,24.680042625249598 0 0,0 -0.08176153426676576,0.4169003017469188 l -3.6050201415335197 -0.7392858058907914" fill="#ff0e01" stroke="none" /><path d="M 119.9155931802556 106.66101706037122 l 3.6408296219943184 1.2177206074912308 a24.8390733015013,24.8390733015013 0 0,0 -0.1391096557680833,0.4043177754485199 l -3.619329135283004 -1.280211086029051" fill="#ff1001" stroke="none" /><line stroke="#e1ed5e" stroke-width="0.3" x1="174.80103733775053" x2="179.2010983576182" y1="140.37084112569926" y2="142.7455964860345" /><path d="M 175.68104954172406 140.8457921977663 a86.0,86.0 0 0,1 -30.038265399797805,32.042727171017184" fill="none" id="id65" stroke="none" /><text fill="#e1ed5e" style="font-size:6.75px; font-family:Arial;" text-anchor="middle"><textPath startOffset="22.206326154141568" xlink:href="#id65">May</textPath></text><path d="M 115.32070863581623 114.36230785411682 l 4.186791157303762 3.9248826507617385 a26.738808588646904,26.738808588646904 0 0,0 -0.31767416984758473,0.33308009704059843 l -4.118610436077214 -3.996369864384844" fill="#ff2c04" stroke="none" /><path d="M 115.07121518719521 114.62390073753431 l 4.110639461019405 3.9886354682808203 a26.727701954302237,26.727701954302237 0 0,0 -0.32322621342935887,0.32742644770456275 l -4.041372622534511 -4.058802409966048" fill="#ff2c04" stroke="none" /><line stroke="#e1ed5e" stroke-width="0.3" x1="143.8653032363475" x2="146.44561519142675" y1="172.8068346515853" y2="177.08958963109032" /><path d="M 144.38136562736335 173.6633856474863 a86.0,86.0 0 0,1 -40.68145358897372,12.25698825130547" fill="none" id="id66" stroke="none" /><text fill="#e1ed5e" style="font-size:6.75px; font-family:Arial;" text-anchor="middle"><textPath startOffset="21.466115282336833" xlink:href="#id66">June</textPath></text><path d="M 109.89434966115114 118.52300852407294 l 2.6986612328916695 5.052108196328072 a26.727701954302237,26.727701954302237 0 0,0 -0.4076726709773033,0.21327507365499307 l -2.6112976593878705 -5.097812688927781" fill="#ff2c04" stroke="none" /><path d="M 109.2508944713604 118.85261126421891 l 5.95366880351718 12.133119007692114 a34.51513037587109,34.51513037587109 0 0,0 -0.535621131038893,0.2571306925411983 l -5.743935004478055 -12.233803976732872" fill="#ff9a0e" stroke="none" /><path d="M 108.2653958097858 119.30500536409082 l 5.409060802501843 12.633629436519094 a34.74287202532439,34.74287202532439 0 0,0 -0.5517971142606157,0.23065123851300842 l -5.190792228743766 -12.724865718052076" fill="#ff9d0e" stroke="none" /><path d="M 107.59598834532513 119.57807347666477 l 4.426626306227136 11.409287526143851 a33.23792720640239,33.23792720640239 0 0,0 -0.5351777613660427,0.2023584360079508 l -4.229578324100819 -11.483794212258434" fill="#ff880c" stroke="none" /><path d="M 106.2309692047433 120.05430185196036 l 2.4642498493694647 7.931159454340293 a29.305168126551614,29.305168126551614 0 0,0 -0.4830120031826462,0.14552755435105194 l -2.3273628717465726 -7.972402377797071" fill="#ff5107" stroke="none" /><path d="M 104.48393922423573 120.51570834832081 l 0.832898156837553 3.810822318281022 a24.90078018877918,24.90078018877918 0 0,0 -0.41952898323144083,0.08791637744004786 l -0.7671777121767341 -3.824594676447611" fill="#ff1101" stroke="none" /><line stroke="#e1ed5e" stroke-width="0.3" x1="102.19456741930631" x2="102.32365962044197" y1="184.97166512339345" y2="189.96999836594603" /><path d="M 102.22038585953345 185.97133177190398 a86.0,86.0 0 0,1 -42.740103519485714,-10.115201625700543" fill="none" id="id67" stroke="none" /><text fill="#e1ed5e" style="font-size:6.75px; font-family:Arial;" text-anchor="middle"><textPath startOffset="22.20632615414155" xlink:href="#id67">July</textPath></text><path d="M 96.58105272829116 120.7198165907248 l -2.3090724953079347 13.99365207921287 a35.18288102970078,35.18288102970078 0 0,0 -0.5966866316811635,-0.10374161928978086 l 2.549608098461148 -13.951831881402082" fill="#ffa30f" stroke="none" /><path d="M 93.42475214034765 119.94407469862007 l -0.8685217189360503 2.63440442239851 a23.773881150485085,23.773881150485085 0 0,0 -0.3875485277792482,-0.13147750222173105 l 0.9137399796525244 -2.619063933278656" fill="#ff0000" stroke="none" /><path d="M 92.7421414339146 119.70592522655815 l -2.8279490267358223 7.678208600781693 a29.182431363288913,29.182431363288913 0 0,0 -0.4698785273593845,-0.1776678531399789 l 2.95969777485549 -7.628392497535081" fill="#ff5007" stroke="none" /><path d="M 92.40401165467489 119.57807347666478 l -1.5357151518789545 3.958187231977212 a25.245664517021808,25.245664517021808 0 0,0 -0.40378507774216804,-0.16067441560789333 l 1.6036213056629804 -3.931165971963252" fill="#ff1602" stroke="none" /><path d="M 91.7346041902142 119.30500536409082 l -5.367542373332385 12.5366572507617 a34.63738560548152,34.63738560548152 0 0,0 -0.546082012280115,-0.2393863063125653 l 5.582545060270243 -12.442406391154682" fill="#ff9c0e" stroke="none" /><line stroke="#e1ed5e" stroke-width="0.3" x1="58.666819895761336" x2="56.23545636021788" y1="174.27360380694188" y2="178.64263932499728" /><path d="M 58.180547188652646 175.14741091055294 a86.0,86.0 0 0,1 -31.652253787137756,-30.449443065178592" fill="none" id="id68" stroke="none" /><text fill="#e1ed5e" style="font-size:6.75px; font-family:Arial;" text-anchor="middle"><textPath startOffset="22.20632615414155" xlink:href="#id68">August</textPath></text><path d="M 89.4739219176387 118.17145234162733 l -31.57823424708386 54.51435702488198 a84.0,84.0 0 0,0 -1.2449285158864716,-0.735525710825002 l 32.511930633998716 -53.962712741763234" fill="#4dd2ff" stroke="none" /><path d="M 89.1626897886671 117.98757091392108 l -28.323734280442896 47.01122040261893 a75.88432168964786,75.88432168964786 0 0,0 -1.1130452133066377,-0.6837232785993729 l 29.128758693681842 -46.51670865719118" fill="#43ffdc" stroke="none" /><path d="M 88.8546689885994 117.79835938074946 l -29.24938641291412 46.70934317795867 a76.11160808439797,76.11160808439797 0 0,0 -1.104409145656598,-0.7048861700682334 l 30.04907736061764 -46.19894257906664" fill="#43ffde" stroke="none" /><path d="M 88.54995079064634 117.60387380957326 l -28.978713476966572 44.553312032542394 a74.14850372164028,74.14850372164028 0 0,0 -1.063943820090682,-0.705123948872824 l 29.741331995797218 -44.047890062578254" fill="#40ffca" stroke="none" /><path d="M 88.24862548938628 117.40417183066458 l -29.9824214129664 44.404951412225266 a74.57933653664249,74.57933653664249 0 0,0 -1.0577591398491193,-0.7275363815510025 l 30.74233743743841 -43.88227424130916" fill="#41ffce" stroke="none" /><path d="M 87.65650970185807 116.9893568818739 l -3.1052456091576537 4.274003915067092 a26.282959375123163,26.282959375123163 0 0,0 -0.36372490553757575,-0.26907498968230276 l 3.178355485113794 -4.2199189766450225" fill="#ff2603" stroke="none" /><path d="M 87.36589467227662 116.77436683061367 l -19.64972137345953 26.089036452346487 a53.66112939055317,53.66112939055317 0 0,0 -0.733039829463977,-0.5620636828110909 l 20.095889931416995 -25.74693342770803" fill="#7aff26" stroke="none" /><path d="M 87.07902340077011 116.55440617244103 l -32.65607610888069 41.83909348901535 a74.07474965378145,74.07474965378145 0 0,0 -0.9983953746828721,-0.7931856678902685 l 33.37142897628092 -41.270773907119946" fill="#40ffc9" stroke="none" /><path d="M 86.79598089348748 116.32954008644616 l -31.626437739805027 39.11272610995522 a71.2994722423818,71.2994722423818 0 0,0 -0.9477053581832171,-0.7798969903324787 l 32.29501322653294 -38.56253400076556" fill="#3dffab" stroke="none" /><path d="M 86.51685102203217 116.09983520530335 l -25.858890197464902 30.877347083497614 a61.275212788504604,61.275212788504604 0 0,0 -0.80280602229546,-0.6841687087049056 l 26.38656169633742 -30.427653984569755" fill="#30ff35" stroke="none" /><path d="M 86.24171649860922 115.8653595955263 l -34.704060088393696 40.018974218074554 a73.97065304567951,73.97065304567951 0 0,0 -0.9547767223107162,-0.8424794474532238 l 35.387779163611 -39.41567162884904" fill="#40ffc8" stroke="none" /><path d="M 85.97065885151581 115.62618273729859 l -3.9577700785267957 4.4082496693691375 a26.92423911924351,26.92423911924351 0 0,0 -0.34219483577086807,-0.3125868691154402 l 4.033064463764519 -4.339470033667122" fill="#ff2f04" stroke="none" /><path d="M 85.70375840098266 115.38237550388516 l -40.90413306196368 44.01175861936034 a81.08479839626384,81.08479839626384 0 0,0 -1.0141938530639745,-0.9589835908605255 l 41.65566274941847 -43.30114039175388" fill="#49eeff" stroke="none" /><path d="M 85.44109423537348 115.13401014063109 l -35.88131156150225 37.298691385880325 a72.7557813048237,72.7557813048237 0 0,0 -0.8950695030970239,-0.8760138959387 l 36.518031016975065 -36.67552738701906" fill="#3fffbb" stroke="none" /><path d="M 85.18274418774928 114.88116024355367 l -37.58595018363901 37.74805231657782 a74.26930734393014,74.26930734393014 0 0,0 -0.8981612795534758,-0.9098326342713172 l 38.23015208824801 -37.09547918832584" fill="#41ffcb" stroke="none" /><path d="M 84.9287848128048 114.62390073753433 l -37.41753881713407 36.306984321311404 a73.13702448011094,73.13702448011094 0 0,0 -0.8689146885440231,-0.9110535770632616 l 38.03696005705705 -35.65752362766564" fill="#3fffbf" stroke="none" /><path d="M 84.19399662182784 113.82643327865904 l -3.079322327852535 2.69366288813622 a25.091215681644456,25.091215681644456 0 0,0 -0.28156823425498356,-0.3275274680102895 l 3.125233071678297 -2.6402583209644" fill="#ff1402" stroke="none" /><path d="M 83.95833913139862 113.55231037782056 l -38.24145062555465 32.30712906978454 a71.06155345850198,71.06155345850198 0 0,0 -0.781352235587972,-0.9411891022138571 l 38.79189886103616 -31.644078710456917" fill="#3cffa8" stroke="none" /><path d="M 83.72743513129214 113.27417163493432 l -41.35756614669423 33.73699449741151 a74.37258730187776,74.37258730187776 0 0,0 -0.8006814201471742,-0.9989731820300323 l 41.932165478896266 -33.020093481803215" fill="#41ffcc" stroke="none" /><path d="M 83.50135304334701 112.99209946851258 l -36.012083868222895 28.358239127948742 a66.83732006749351,66.83732006749351 0 0,0 -0.7039980740163597,-0.9100124105615378 l 36.494888759457325 -27.734148723273954" fill="#37ff78" stroke="none" /><path d="M 83.28015986056508 112.70617746262583 l -46.07638323483375 35.01556817142763 a78.87160881098058,78.87160881098058 0 0,0 -0.8121474658574861,-1.088004249758155 l 46.67229196738632 -34.217251042160164" fill="#46fffb" stroke="none" /><path d="M 83.06392112726016 112.41649034213515 l -21.14865058507635 15.504888570249697 a47.22340540710741,47.22340540710741 0 0,0 -0.4749779759438137,-0.659702865838206 l 21.412408353395772 -15.138552098960353" fill="#c3ff1e" stroke="none" /><path d="M 82.85270091963577 112.12312394758628 l -32.44279820444518 22.937027108216995 a60.73213268750411,60.73213268750411 0 0,0 -0.5961555589671912,-0.8588065460748617 l 32.83281467057451 -22.375179299955118" fill="#30ff2f" stroke="none" /><path d="M 82.44556493220864 111.52570212397912 l -45.147250622827926 29.64229611410755 a75.00870261093921,75.00870261093921 0 0,0 -0.6993494845533045,-1.085405930541909 l 45.65080497075827 -28.86076858364419" fill="#42ffd3" stroke="none" /><path d="M 82.05923443525364 110.91462005526583 l -11.473188450020047 6.979941424601265 a34.42958061521424,34.42958061521424 0 0,0 -0.3036674653155768,-0.5089641387888785 l 11.591636791033855 -6.781415191926276" fill="#ff990e" stroke="none" /><line stroke="#e1ed5e" stroke-width="0.3" x1="26.63291911575756" x2="22.317208475507996" y1="142.92168965132927" y2="145.44649492493687" /><path d="M 25.769776987707644 143.4266507060508 a86.0,86.0 0 0,1 -11.730757126820373,-40.83630448921669" fill="none" id="id69" stroke="none" /><text fill="#e1ed5e" style="font-size:6.75px; font-family:Arial;" text-anchor="middle"><textPath startOffset="21.46611528233685" xlink:href="#id69">September</textPath></text><path d="M 81.87401531095188 110.60418214915194 l -6.597042858111169 3.859445172953328 a28.643055116560937,28.643055116560937 0 0,0 -0.24530458508623443,-0.4277092208828661 l 6.66249943934978 -3.7453161062121554" fill="#ff4806" stroke="none" /><path d="M 81.51974371655577 109.97397251340807 l -4.317493867309395 2.330193071939697 a25.906174991454137,25.906174991454137 0 0,0 -0.20841825172825523,-0.39424878780095457 l 4.356964627262537 -2.255529269052616" fill="#ff2003" stroke="none" /><path d="M 80.87730276802145 108.67885076344099 l -19.153225737044327 8.692706148812773 a42.033525532439505,42.033525532439505 0 0,0 -0.29335180509306596,-0.6614308778700656 l 19.300018626868674 -8.361726934450012" fill="#fffc17" stroke="none" /><path d="M 80.73074385275274 108.34839909993369 l -16.714265794572384 7.241450341890564 a39.21552316310677,39.21552316310677 0 0,0 -0.2630222837882839,-0.6217069833489075 l 16.836439059552973 -6.9526688328754975" fill="#ffd814" stroke="none" /><path d="M 80.58989483394504 108.01547362559985 l -16.51591497443993 6.820307244485645 a38.86874473353158,38.86874473353158 0 0,0 -0.25005075240938296,-0.6206054609671318 l 16.6308683411067 -6.535002415675708" fill="#ffd413" stroke="none" /><path d="M 80.32549172779594 107.34259656027581 l -17.887257060418843 6.675588042530896 a40.092339847674126,40.092339847674126 0 0,0 -0.23573482336767865,-0.6486409898298438 l 17.999516144791748 -6.366699255694936" fill="#ffe315" stroke="none" /><path d="M 80.0844068197444 106.66101706037122 l -10.670465267150796 3.568869405158126 a32.25147358564847,32.25147358564847 0 0,0 -0.17155902455531832,-0.5280043855277505 l 10.730316542722363 -3.3846661196525725" fill="#ff7b0b" stroke="none" /><path d="M 79.97269907076064 106.31721596034903 l -35.468677533572716 11.187892796898648 a58.191343498393046,58.191343498393046 0 0,0 -0.2930993435252114,-0.9578656132549159 l 35.65600364960406 -10.575700211091684" fill="#4aff2c" stroke="none" /><path d="M 79.86692584326677 105.97154293290107 l -35.949454756502405 10.66273887542625 a58.49743054684333,58.49743054684333 0 0,0 -0.27802258532470003,-0.9678330926518958 l 36.12766997871321 -10.042348307269757" fill="#47ff2c" stroke="none" /><path d="M 79.76711848015287 105.62410040840567 l -17.722125058067977 4.926189612642462 a39.394049599626165,39.394049599626165 0 0,0 -0.17598245588706968,-0.6548961854362869 l 17.804295590296825 -4.620402494030636" fill="#ffda14" stroke="none" /><path d="M 79.67330655649465 105.27499134158121 l -36.26147770627297 9.410235927705509 a58.46261210403796,58.46261210403796 0 0,0 -0.244397899023395,-0.9762481190950086 l 36.418086919591424 -8.78465996921311" fill="#47ff2c" stroke="none" /><path d="M 79.50377843672027 104.57218783832718 l -41.666162538925114 9.29466541147952 a63.69027882119629,63.69027882119629 0 0,0 -0.2294850557578195,-1.072077780991632 l 41.81998163340737 -8.576073811071725" fill="#33ff53" stroke="none" /><path d="M 79.4281124754447 104.21870165774334 l -40.62764367713034 8.331559635756886 a62.473127645742395,62.473127645742395 0 0,0 -0.20696474654924016,-1.0553087837837414 l 40.765038356655246 -7.63098712490519" fill="#31ff44" stroke="none" /><path d="M 79.35854240842038 103.8639653848113 l -20.764577780959804 3.8870127954810973 a42.125258788799805,42.125258788799805 0 0,0 -0.12728559702531933,-0.7138852249259402 l 20.828409820324314 -3.5290088198219434" fill="#fffd17" stroke="none" /><path d="M 79.29508885075956 103.50808413554451 l -36.52964653195543 6.189308060880161 a58.05027138931751,58.05027138931751 0 0,0 -0.15844474832793506,-0.9866355990853907 l 36.630773034644655 -5.559593232101556" fill="#4bff2c" stroke="none" /><path d="M 79.23777060512086 103.15116336523772 l -34.99747900851925 5.311701919376854 a56.39827275774988,56.39827275774988 0 0,0 -0.13741291174642686,-0.9610655847069149 l 35.08372597128228 -4.708490862689538" fill="#5cff2a" stroke="none" /><path d="M 79.1416061653843 102.43462659150553 l -37.350131146863276 4.3595697352047695 a58.60369855431776,58.60369855431776 0 0,0 -0.10832670006689278,-1.0029707053132038 l 37.41964014843122 -3.7160027080067835" fill="#45ff2d" stroke="none" /><path d="M 79.10278846688536 102.07522291339032 l -41.5284831919308 4.124036345312069 a62.73275203002954,62.73275203002954 0 0,0 -0.09746101722046835,-1.0754742037323024 l 41.593318805428346 -3.4085807530312007" fill="#32ff47" stroke="none" /><path d="M 79.07016306316243 101.71520430193888 l -18.659924961110764 1.5291845638234494 a39.7224786015239,39.7224786015239 0 0,0 -0.049981170620693405,-0.6819533628943788 l 18.683482690395792 -1.2077580644323098" fill="#ffdf14" stroke="none" /><path d="M 79.04373962182676 101.35467743843564 l -41.21557481264534 2.664302137083581 a62.30159940019797,62.30159940019797 0 0,0 -0.059968698543865315,-1.0707813971938374 l 41.25532986207674 -1.9544490235543062" fill="#31ff42" stroke="none" /><path d="M 79.0235259727143 100.99374915477108 l -18.16061794477234 0.860349490065049 a39.18098581983503,39.18098581983503 0 0,0 -0.026116677822144455,-0.673955407740303 l 18.172736755445687 -0.5476168353107492" fill="#ffd814" stroke="none" /><path d="M 79.0095281055655 100.63252640178507 l -21.362162174710214 0.6437269082216944 a42.37185899988554,42.37185899988554 0 0,0 -0.015693603010514878,-0.729220065069682 l 21.370077840405738 -0.27591702736188367" fill="#feff18" stroke="none" /><line stroke="#e1ed5e" stroke-width="0.3" x1="15.007084014347285" x2="10.007500721073583" y1="101.09737516637583" y2="101.16192664675087" /><path d="M 14.007167355692545 101.11028546245083 a86.0,86.0 0 0,1 10.666146001902534,-42.60595125391555" fill="none" id="id70" stroke="none" /><text fill="#e1ed5e" style="font-size:6.75px; font-family:Arial;" text-anchor="middle"><textPath startOffset="22.20632615414155" xlink:href="#id70">October</textPath></text><path d="M 79.00019446554 99.90962569577889 l -11.916783816195917 -0.051284810431931754 a32.916894169779724,32.916894169779724 0 0,0 0.0073153767046320204,-0.5665839876017149 l 11.91413543237357 0.2564050560941186" fill="#ff840c" stroke="none" /><path d="M 79.05617556472873 98.46500227214037 l -8.36008993616569 -0.6127209047410213 a29.38251338489152,29.38251338489152 0 0,0 0.04131113687473611,-0.5041005071444089 l 8.348304315471456 0.7565353290932084" fill="#ff5207" stroke="none" /><path d="M 79.08570108090925 98.10471618934814 l -18.403873510961944 -1.6677854540355348 a39.47928755466994,39.47928755466994 0 0,0 0.0671577917843156,-0.6762697982748016 l 18.372438593495403 1.9843307830147667" fill="#ffdc14" stroke="none" /><path d="M 79.16333360222342 97.38593545837743 l -2.7504172478285094 -0.34505366957273076 a23.77197710525144,23.77197710525144 0 0,0 0.0544310366440982,-0.4055744461747831 l 2.7440702121265774 0.39234645781217325" fill="#ff0000" stroke="none" /><path d="M 79.21141760316559 97.0276538004421 l -18.045480612629685 -2.58013820732256 a39.22900117147617,39.22900117147617 0 0,0 0.1013305771340615,-0.6676418970789164 l 17.998394142056323 2.8903792167935682" fill="#ffd814" stroke="none" /><path d="M 79.3925641242962 95.95851677861259 l -13.382454732247927 -2.624536433721131 a34.63738560548152,34.63738560548152 0 0,0 0.11978053953970952,-0.5840924499883977 l 13.335294896793222 2.854504539872931" fill="#ff9c0e" stroke="none" /><path d="M 80.38941819471856 92.48833698450439 l -2.572000025855827 -0.9851822685276889 a23.754227339059675,23.754227339059675 0 0,0 0.1495458129428744,-0.3805777821980424 l 2.554660663031261 1.0293090556214946" fill="#ff0000" stroke="none" /><path d="M 80.803312248108 91.48605970444005 l -7.3155847395155345 -3.2445415846911403 a29.00280139550037,29.00280139550037 0 0,0 0.2063310157171346,-0.45462304292015204 l 7.258651406835048 3.3699866364533633" fill="#ff4d07" stroke="none" /><path d="M 80.95270993114464 91.15688171328213 l -4.89706246836677 -2.2735676575862827 a26.39910462138944,26.39910462138944 0 0,0 0.19490308864098968,-0.41051561116256186 l 4.857201185884029 2.3575256843893766" fill="#ff2703" stroke="none" /><line stroke="#e1ed5e" stroke-width="0.3" x1="26.266209847984243" x2="21.928928074336255" y1="57.711370442889674" y2="55.22380399835377" /><path d="M 25.398753493254645 57.213857153982495 a86.0,86.0 0 0,1 29.58750427330803,-30.492523968695096" fill="none" id="id71" stroke="none" /><text fill="#e1ed5e" style="font-size:6.75px; font-family:Arial;" text-anchor="middle"><textPath startOffset="21.46611528233685" xlink:href="#id71">November</textPath></text><path d="M 84.80347519578584 85.50635884689758 l -2.4888888630914736 -2.3737704847885626 a24.43938280615492,24.43938280615492 0 0,0 0.29296504882613134,-0.3019262351701561 l 2.447659550562224 2.4162609155088424" fill="#ff0a01" stroke="none" /><path d="M 85.05521093208273 85.24692304244772 l -5.823081466050648 -5.748382838213849 a29.182431363288913,29.182431363288913 0 0,0 0.35597591330234324,-0.35444723960185026 l 5.7232697525809915 5.847765928465808" fill="#ff5007" stroke="none" /><line stroke="#e1ed5e" stroke-width="0.3" x1="56.762969772571076" x2="54.21961505331055" y1="26.818313649435495" y2="22.513508569990535" /><path d="M 56.25429882871897 25.957352633546506 a86.0,86.0 0 0,1 42.265352541879196,-11.944610805530505" fill="none" id="id72" stroke="none" /><text fill="#e1ed5e" style="font-size:6.75px; font-family:Arial;" text-anchor="middle"><textPath startOffset="22.20632615414155" xlink:href="#id72">December</textPath></text><path d="M 89.3179101791058 81.91981866633112 l -1.8996574692121844 -3.215302631890775 a24.7345507782031,24.7345507782031 0 0,0 0.3684308716392566,-0.2134189414207226 l 1.8440298651076077 3.2475257307015446" fill="#ff0f01" stroke="none" /><path d="M 89.63071344664047 81.73862282372117 l -1.3787294457822872 -2.42808396738877 a23.792218945096806,23.792218945096806 0 0,0 0.35787565867998994,-0.19915741659166128 l 1.3367296980302517 2.4514567815406156" fill="#ff0100" stroke="none" /><path d="M 89.94658935756843 81.56283822128135 l -1.9413543590144817 -3.5602906973581594 a25.05518514952888,25.05518514952888 0 0,0 0.38042713786084414,-0.20321100201915304 l 1.8797821746253323 3.5931804258790616" fill="#ff1302" stroke="none" /><path d="M 90.26544431104013 81.39251694778311 l -2.353485883726925 -4.498659219212873 a26.07708878940588,26.07708878940588 0 0,0 0.3995252301051411,-0.20465234050397924 l 2.2757001660330203 4.5385040850293565" fill="#ff2303" stroke="none" /><path d="M 90.58718382345135 81.22770947309562 l -4.0576086536022355 -8.092223098935701 a30.052527971165638,30.052527971165638 0 0,0 0.4644242297912437,-0.22789095258627737 l 3.9177131568005663 8.160869211656808" fill="#ff5c08" stroke="none" /><path d="M 90.91171255644093 81.06846463323043 l -2.0145781866348895 -4.196506594477304 a25.655018030851934,25.655018030851934 0 0,0 0.3997562328188651,-0.18769091145432645 l 1.942043742516416 4.230562488571638" fill="#ff1c02" stroke="none" /><path d="M 91.56875222667455 80.76684994638697 l -8.469003717742453 -19.319277963017555 a42.094040034651286,42.094040034651286 0 0,0 0.6661206287495066,-0.285198089813503 l 8.135199331202639 19.462195580793843" fill="#fffd17" stroke="none" /><path d="M 91.90106846888425 80.62456947434976 l -2.8448301247184773 -6.805812375001783 a28.376458535248005,28.376458535248005 0 0,0 0.4522884950335231,-0.18449983341196363 l 2.7272577600965735 6.853773094597323" fill="#ff4406" stroke="none" /><path d="M 93.59665428221793 80.00007090966166 l -7.130295549845226 -22.270452303402056 a44.38405782635359,44.38405782635359 0 0,0 0.7296202847671485,-0.22669657408670887 l 6.745889892367348 22.389889012371288" fill="#e5ff1a" stroke="none" /><path d="M 93.94186890950719 79.89281104454417 l -6.887272729425338 -22.85914452654211 a44.87414949552813,44.87414949552813 0 0,0 0.7415128022042791,-0.21646792058329178 l 6.492769709497638 22.9743107760441" fill="#dfff1b" stroke="none" /><path d="M 94.63758080256005 79.69619591428918 l -0.8238475581130948 -3.1193457282125987 a24.226304785838916,24.226304785838916 0 0,0 0.4041075822136872,-0.10301602053692123 l 0.7700310872144083 3.133064744918383" fill="#ff0701" stroke="none" /><path d="M 94.98787191387505 79.60689891045804 l -0.6885861661368865 -2.801685642025628 a23.885063837236128,23.885063837236128 0 0,0 0.4001047473013064,-0.09469186682029343 l 0.6402577318730461 2.8131234209867926" fill="#ff0200" stroke="none" /><path d="M 97.11714578562143 79.19881850522333 l -0.3962873744615849 -2.859404252615278 a23.886734550150393,23.886734550150393 0 0,0 0.40776392953673324,-0.05293946095700715 l 0.3470087164169939 2.865802036736422" fill="#ff0200" stroke="none" /><path d="M 97.83486435360386 79.11191278185805 l -0.9972593410041589 -9.621032349023693 a30.672579265851503,30.672579265851503 0 0,0 0.5256328840529982,-0.04991517593930659 l 0.8315013298609244 9.636773069478181" fill="#ff6509" stroke="none" /><path d="M 98.19473922651362 79.07773832637324 l -0.26520547087780394 -3.0736270019687972 a24.085047307419323,24.085047307419323 0 0,0 0.41335653996505817,-0.03208442302874001 l 0.21225874155041163 3.0777366871859995" fill="#ff0500" stroke="none" /><path d="M 98.55514903715128 79.0497635885617 l -0.19790627626849433 -2.8696269592800276 a23.876443251589226,23.876443251589226 0 0,0 0.4102631839952603,-0.02474819563874969 l 0.14848104343361104 2.872608424299084" fill="#ff0200" stroke="none" /><path d="M 98.91598698831166 79.02799685794201 l -0.3357376055415037 -6.49539262204706 a27.50406373387578,27.50406373387578 0 0,0 0.4730164173351216,-0.020369081946917954 l 0.22388035581705795 6.50020943051817" fill="#ff3705" stroke="none" /><path d="M 99.27714615592234 79.0124445844662 l -0.30038983629775917 -8.72160864497666 a29.726780128425524,29.726780128425524 0 0,0 0.5115460266586256,-0.013211724660808017 l 0.1502171744442545 8.725487161779828" fill="#ff5708" stroke="none" /></svg>