<?xml version="1.0" encoding="utf-8" ?>
<svg baseProfile="full" height="200mm" version="1.1" viewBox="0,0,200,200" width="200mm" xmlns="http://www.w3.org/2000/svg" xmlns:ev="http://www.w3.org/2001/xml-events" xmlns:xlink="http://www.w3.org/1999/xlink"><defs /><rect fill="#1a1a1a" height="200" width="200" x="0" y="0" /><text alignment-baseline="middle" fill="#e1ed5e" style="dominant-baseline: central; font-size:9.0px; font-family:Arial;" text-anchor="middle" x="100.0" y="100.0">2024</text><line stroke="#e1ed5e" stroke-width="0.3" x1="100.0" x2="100.0" y1="15.0" y2="10.0" /><path d="M 100.0 14.0 a86.0,86.0 0 0,1 42.35913384403234,11.155469271406648" fill="none" id="id85" stroke="none" /><text fill="#e1ed5e" style="font-size:6.75px; font-family:Arial;" text-anchor="middle"><textPath startOffset="22.145653131862478" xlink:href="#id85">January</textPath></text><path d="M 100.72087961077811 79.0123766808444 l 0.35523918550138245 -10.342401285922207 a31.348500337631585,31.348500337631585 0 0,0 0.5376629650195659,0.023089561139292034 l -0.5327279111217846 10.334779156357085" fill="#ff6008" stroke="none" /><path d="M 101.08105385017728 79.02784411241856 l 0.812066403634637 -15.75387128522824 a36.77478723518802,36.77478723518802 0 0,0 0.6301721374147352,0.03790959093140921 l -1.0823828931818344 15.73760971647214" fill="#ffac0f" stroke="none" /><path d="M 101.80034050326958 79.07731436759882 l 1.009063149975408 -11.726843356483998 a32.770176869875456,32.770176869875456 0 0,0 0.5600586088832691,0.05303813255198576 l -1.21022132224369 11.70779346842683" fill="#ff740a" stroke="none" /><line stroke="#e1ed5e" stroke-width="0.3" x1="143.13028292997686" x2="145.6673583964461" y1="26.7553504044142" y2="22.446841604673864" /><path d="M 143.63769802327073 25.89364864446614 a86.0,86.0 0 0,1 29.32050498858742,28.57503671076993" fill="none" id="id86" stroke="none" /><text fill="#e1ed5e" style="font-size:6.75px; font-family:Arial;" text-anchor="middle"><textPath startOffset="20.669276256404974" xlink:href="#id86">February</textPath></text><line stroke="#e1ed5e" stroke-width="0.3" x1="172.87174338648825" x2="177.1583165268699" y1="56.24261187166439" y2="53.66864786411523" /><path d="M 173.72905801456457 55.72781907015455 a86.0,86.0 0 0,1 12.242430191666344,42.057860355516425" fill="none" id="id87" stroke="none" /><text fill="#e1ed5e" style="font-size:6.75px; font-family:Arial;" text-anchor="middle"><textPath startOffset="22.145653131862474" xlink:href="#id87">March</textPath></text><path d="M 120.82617615685814 97.30363454192243 l 5.01620999435403 -0.6494488117918703 a26.058077348814976,26.058077348814976 0 0,0 0.053627416147623716,0.4441119357314127 l -5.026619496761318 0.5632431991370447" fill="#ff1101" stroke="none" /><path d="M 120.86939407059847 97.66154086499901 l 22.380591861425675 -2.5077919995201237 a43.520655247584834,43.520655247584834 0 0,0 0.07681936036467595,0.7431576266222634 l -22.420343614272017 2.1232298506149285" fill="#f9ff18" stroke="none" /><path d="M 120.9064616781168 98.02013634271609 l 40.665774743396305 -3.8510911482462222 a61.84771888995454,61.84771888995454 0 0,0 0.09102328263319041,1.0578285187189693 l -40.725891648727234 3.1524415821515905" fill="#30ff37" stroke="none" /><path d="M 120.93736805541906 98.37931529534042 l 8.528420843569444 -0.6601537107953505 a29.553932721672915,29.553932721672915 0 0,0 0.034811772739444066,0.5061555354976219 l -8.538496577473953 0.5136547511433944" fill="#ff4606" stroke="none" /><path d="M 120.96210409425399 98.7389718711861 l 4.237515733446845 -0.254918423844329 a25.24517643850345,25.24517643850345 0 0,0 0.022310016599381217,0.43280836185916244 l -4.241267339502799 0.1821382686084359" fill="#ff0500" stroke="none" /><path d="M 120.98066250479742 99.09900007780936 l 10.56395026588637 -0.45366147829760023 a31.573686866794,31.573686866794 0 0,0 0.018606393220956242,0.5417048372723808 l -10.570181346104174 0.27225037646109945" fill="#ff6309" stroke="none" /><line stroke="#e1ed5e" stroke-width="0.3" x1="184.99686870605535" x2="189.99668451229388" y1="99.2704041080226" y2="99.22748670261217" /><path d="M 185.99683186730306 99.26182062694052 a86.0,86.0 0 0,1 -10.086455211305974,41.156179273409016" fill="none" id="id88" stroke="none" /><text fill="#e1ed5e" style="font-size:6.75px; font-family:Arial;" text-anchor="middle"><textPath startOffset="21.40746469413373" xlink:href="#id88">April</textPath></text><path d="M 120.99922638620191 99.81974689727618 l 46.147025910956394 -0.39611671634686685 a67.148725972441,67.148725972441 0 0,0 0.0,1.1527396381413817 l -46.147025910956394 -0.39611671634686124" fill="#37ff78" stroke="none" /><path d="M 120.99922638620191 100.18025310272382 l 50.278448160671005 0.4315800074927975 a71.2803004242034,71.2803004242034 0 0,0 -0.021005857849650072,1.223485910407393 l -50.26363087122269 -1.2946128338692615" fill="#3cffa8" stroke="none" /><path d="M 120.99303781780057 100.54070618675476 l 49.2237252392605 1.2678285535891445 a70.2400499154043,70.2400499154043 0 0,0 -0.041392504907633465,1.2050976172011587 l -49.19470804735602 -2.112632435354414" fill="#3bff9c" stroke="none" /><path d="M 120.86939407059847 102.33845913500097 l 3.9603860419881154 0.44376951657954417 a24.98517113627753,24.98517113627753 0 0,0 -0.05141937956929446,0.4258262253725939 l -3.952184576159157 -0.5116894188755466" fill="#ff0100" stroke="none" /><path d="M 120.77682067341334 103.0534771498775 l 4.82470798829431 0.7090659263349058 a25.876533775152193,25.876533775152193 0 0,0 -0.0683614991656746,0.43892986387424704 l -4.811824996990367 -0.7917839721406035" fill="#ff0f01" stroke="none" /><path d="M 120.7213421655516 103.40968896794604 l 4.553086866872591 0.7492087112911293 a25.6143161693107,25.6143161693107 0 0,0 -0.07511725409993396,0.4332563600149522 l -4.539554795280423 -0.8272581042266695" fill="#ff0b01" stroke="none" /><path d="M 120.65975698304385 103.76489593502545 l 7.855819177289739 1.4315919452076518 a28.985195704793757,28.985195704793757 0 0,0 -0.09340646010812505,0.4887420690988028 l -7.830086424899455 -1.5662365793397692" fill="#ff3d05" stroke="none" /><path d="M 120.51834098615036 104.47187691870673 l 39.59035342025769 8.628533261192716 a61.519719522479654,61.519719522479654 0 0,0 -0.23374311513870502,1.0299152938002583 l -39.43639944356132 -9.306882888931993" fill="#30ff33" stroke="none" /><path d="M 119.83427380445688 106.89939002012753 l 24.35323579812294 8.4713195794255 a46.784556409908134,46.784556409908134 0 0,0 -0.270369800498857,0.7562724515423193 l -24.204225827580142 -8.888126987348741" fill="#d1ff1d" stroke="none" /><path d="M 119.71291397450082 107.23885506374661 l 4.1010789431838255 1.5059729937994901 a25.368844601983362,25.368844601983362 0 0,0 -0.1536256485929497,0.4075102847178179 l -4.074622610776435 -1.576151558711467" fill="#ff0701" stroke="none" /><path d="M 119.4528033332814 107.91128576633889 l 6.660090374305029 2.7086007748108973 a28.18980680903296,28.18980680903296 0 0,0 -0.18615226913915597,0.44669767957986084 l -6.612612260629388 -2.822530963832036" fill="#ff3104" stroke="none" /><path d="M 119.0197475246899 108.90220220490707 l 11.358784577283883 5.3164847208248975 a33.54141127863634,33.54141127863634 0 0,0 -0.24855901486919832,0.5193927433764318 l -11.265846304454772 -5.510689966266433" fill="#ff7f0b" stroke="none" /><path d="M 118.8641267826498 109.22738970284198 l 4.0791568857674685 1.9953200419871453 a25.5410156318449,25.5410156318449 0 0,0 -0.19603348172386964,0.3921982810711323 l -4.044303490831867 -2.0650501792220233" fill="#ff0a01" stroke="none" /><path d="M 118.70294669586154 109.54985784667822 l 7.499408135402117 3.829251229334872 a29.420468357442957,29.420468357442957 0 0,0 -0.23353117534112236,0.4478268209562732 l -7.432568891086045 -3.9574242933956483" fill="#ff4406" stroke="none" /><path d="M 118.5362547648365 109.86951160357373 l 11.046043678852971 5.881396088104705 a33.51422793864252,33.51422793864252 0 0,0 -0.2747442949375639,0.5054985575902584 l -10.94345403430007 -6.070149479169567" fill="#ff7f0b" stroke="none" /><line stroke="#e1ed5e" stroke-width="0.3" x1="174.33088141563837" x2="178.70328620479359" y1="141.23008692659167" y2="143.65538615756765" /><path d="M 175.20536237346943 141.71514677278685 a86.0,86.0 0 0,1 -30.301960400862466,31.631185727798858" fill="none" id="id89" stroke="none" /><text fill="#e1ed5e" style="font-size:6.75px; font-family:Arial;" text-anchor="middle"><textPath startOffset="22.145653131862474" xlink:href="#id89">May</textPath></text><path d="M 118.36410011445183 110.18625677009912 l 12.083997303451023 6.702789604445135 a34.81847963096047,34.81847963096047 0 0,0 -0.2944095363400634,0.5201934409359734 l -11.96715440208958 -6.909239815480231" fill="#ff910d" stroke="none" /><path d="M 118.00360718960297 110.81064883170644 l 15.555041936560086 9.340355750248202 a39.14391289632249,39.14391289632249 0 0,0 -0.3508637335073866,0.5731095402510693 l -15.392410238597293 -9.606002406623828" fill="#ffcc13" stroke="none" /><path d="M 117.81537515405839 111.11811171558189 l 11.134189369584714 6.948557647706185 a34.12450480213518,34.12450480213518 0 0,0 -0.31440418863050085,0.49429560567483394 l -11.013267489328323 -7.138666928059691" fill="#ff870c" stroke="none" /><path d="M 117.423217284605 111.72311816256416 l 14.866351479622425 10.002744739676547 a38.91823955199837,38.91823955199837 0 0,0 -0.37771126884653317,0.5510920292851184 l -14.692450473960571 -10.25647150403171" fill="#ffc912" stroke="none" /><path d="M 116.79662413953412 112.60449989151573 l 18.88368434103789 14.17066877550737 a44.60934958521939,44.60934958521939 0 0,0 -0.46488894991599256,0.6085545585758143 l -18.637643413767588 -14.492744247324062" fill="#ecff1a" stroke="none" /><path d="M 116.57777611688842 112.89097897827486 l 3.346003803614606 2.6018727958137933 a25.238570926550516,25.238570926550516 0 0,0 -0.26889121709063124,0.3397352688109787 l -3.300846155882413 -2.6589280085394553" fill="#ff0500" stroke="none" /><path d="M 116.1254893667686 113.45245675266167 l 3.438895198366075 2.868848683023002 a25.478425275856242,25.478425275856242 0 0,0 -0.283059768101667,0.3334436950801006 l -3.3891408667572938 -2.9274591605526594" fill="#ff0901" stroke="none" /><path d="M 115.41159269507618 114.26474011684316 l 15.133883148109998 14.007696306134058 a41.62159001981975,41.62159001981975 0 0,0 -0.4898349125723597,0.5201877024471704 l -14.891192401801378 -14.265425468525725" fill="#ffec16" stroke="none" /><path d="M 115.16444852881244 114.52719865689866 l 15.036711166119035 14.40482915297442 a41.82310701167505,41.82310701167505 0 0,0 -0.5011069400485555,0.5141798656017716 l -14.787217424919673 -14.660831710643928" fill="#ffef16" stroke="none" /><path d="M 112.45986205192187 116.90419585922612 l 2.3826070161704225 3.2324640103618774 a25.015674261165778,25.015674261165778 0 0,0 -0.34785961535997945,0.2518235353520389 l -2.3267663904364753 -3.272888317086993" fill="#ff0200" stroke="none" /><path d="M 112.16784306229584 117.11559508785304 l 2.327637094700819 3.274113071676075 a25.01717697528344,25.01717697528344 0 0,0 -0.35215239613660054,0.24582972203668926 l -2.27108960739046 -3.3135876095178864" fill="#ff0200" stroke="none" /><path d="M 111.8722381534696 117.32195027204791 l 7.221263521375053 10.536039287761124 a33.773205185793735,33.773205185793735 0 0,0 -0.4810329063777354,0.32366040722746264 l -7.039334326900314 -10.658449369045709" fill="#ff820c" stroke="none" /><path d="M 111.5731344415666 117.5232005979908 l 2.1575319774799446 3.2667784020698796 a24.914943851714703,24.914943851714703 0 0,0 -0.35891088031683704,0.23264169638313834 l -2.1011354649060983 -3.3033339401569126" fill="#ff0000" stroke="none" /><path d="M 110.96478420261333 117.91015095944535 l 2.3572381093352814 3.8503712982778233 a25.514635161195667,25.514635161195667 0 0,0 -0.37551133127206904,0.225483765111989 l -2.290794021505776 -3.890269063925736" fill="#ff0901" stroke="none" /><line stroke="#e1ed5e" stroke-width="0.3" x1="143.1302829299769" x2="145.66735839644613" y1="173.24464959558577" y2="177.55315839532614" /><path d="M 143.63769802327073 174.10635135553383 a86.0,86.0 0 0,1 -40.68552437913181,11.842963189579606" fill="none" id="id90" stroke="none" /><text fill="#e1ed5e" style="font-size:6.75px; font-family:Arial;" text-anchor="middle"><textPath startOffset="21.407464694133747" xlink:href="#id90">June</textPath></text><path d="M 110.65571695917076 118.09573695890943 l 10.26123519064359 17.425820673998214 a41.2225659548942,41.2225659548942 0 0,0 -0.612856932630451,0.3538331150289206 l -9.960585790152741 -17.599400686303305" fill="#ffe715" stroke="none" /><path d="M 110.34350942703117 118.27599006163325 l 1.99667257848527 3.527929128712197 a25.05376187298798,25.05376187298798 0 0,0 -0.3761116209053673,0.20862277600769852 l -1.9358167694238082 -3.5616848201530393" fill="#ff0200" stroke="none" /><path d="M 110.02825361518725 118.45085714620011 l 3.5247539307987377 6.485150231360642 a28.381128897126654,28.381128897126654 0 0,0 -0.43005679217472065,0.2289810187878888 l -3.4129083228374633 -6.544701717871099" fill="#ff3405" stroke="none" /><path d="M 109.71004243097381 118.62028667847754 l 2.601894674741223 4.9894761114887185 a26.62714206019035,26.62714206019035 0 0,0 -0.40710716567106875,0.20787181954504672 l -2.5158602873565723 -5.033405882706601" fill="#ff1a02" stroke="none" /><path d="M 109.3889696526874 118.78422872680471 l 5.828633501600231 11.661171449993688 a34.03671308582514,34.03671308582514 0 0,0 -0.5248781276977178,0.2567441942353486 l -5.627595124640443 -11.75950939432626" fill="#ff860c" stroke="none" /><path d="M 109.06512990194946 118.94263497670748 l 7.666674334053706 16.020400696523957 a38.76038101566583,38.76038101566583 0 0,0 -0.6026524693455002,0.282071785360762 l -7.3905331508367 -16.149648713455253" fill="#ffc712" stroke="none" /><path d="M 108.73861861582097 119.09545874513695 l 26.2158558474629 57.28637623541085 a84.0,84.0 0 0,0 -1.3163463885774922,0.5887849963605989 l -25.228596056029783 -57.7279649826813" fill="#4dd2ff" stroke="none" /><path d="M 108.4095320186766 119.2426549942271 l 13.089644577563577 29.95166842146701 a53.68701938685208,53.68701938685208 0 0,0 -0.8476539308250102,0.3618130584507912 l -12.573555571568136 -30.171956129577204" fill="#80ff25" stroke="none" /><path d="M 108.07796709384702 119.3841803445677 l 1.8244229525721234 4.377950928317613 a25.74288661477681,25.74288661477681 0 0,0 -0.40936772100404906,0.1664862883200514 l -1.7490007703776336 -4.408624473216956" fill="#ff0d01" stroke="none" /><path d="M 107.407793817531 119.65005319985036 l 1.3999596256128657 3.7135592321472313 a24.968678511042693,24.968678511042693 0 0,0 -0.40236531795225366,0.1477541180924498 l -1.336005156006485 -3.7370441992484027" fill="#ff0100" stroke="none" /><path d="M 106.38641147887787 120.00534299687104 l 3.1397099809577034 9.83509679692522 a31.32409355679297,31.32409355679297 0 0,0 -0.5136545253851075,0.15913148497631333 l -2.9704148227009712 -9.887544869708178" fill="#ff5f08" stroke="none" /><path d="M 106.0420521117495 120.11202640906438 l 12.99044871758866 43.24097886638213 a66.15012747719774,66.15012747719774 0 0,0 -1.0903430621863028,0.31738297457237724 l -12.246245643020751 -43.457605535257024" fill="#36ff6c" stroke="none" /><line stroke="#e1ed5e" stroke-width="0.3" x1="101.45913802915013" x2="101.54496967792366" y1="184.9874750549273" y2="189.98673829345242" /><path d="M 101.47630435890484 185.9873277026323 a86.0,86.0 0 0,1 -42.54439059252881,-10.42667462771756" fill="none" id="id91" stroke="none" /><text fill="#e1ed5e" style="font-size:6.75px; font-family:Arial;" text-anchor="middle"><textPath startOffset="22.145653131862474" xlink:href="#id91">July</textPath></text><line stroke="#e1ed5e" stroke-width="0.3" x1="58.13341422392154" x2="55.67067388415222" y1="173.97424548756322" y2="178.32567169271397" /><path d="M 57.64086615596768 174.84453072859336 a86.0,86.0 0 0,1 -31.369924170532247,-30.572349798747897" fill="none" id="id92" stroke="none" /><text fill="#e1ed5e" style="font-size:6.75px; font-family:Arial;" text-anchor="middle"><textPath startOffset="22.145653131862474" xlink:href="#id92">August</textPath></text><path d="M 86.40962598614128 116.0094264158162 l -8.245512361827323 9.713192829186665 a33.741059180696496,33.741059180696496 0 0,0 -0.43834539614426954,-0.37863231298981803 l 8.411037237734455 -9.570216383732125" fill="#ff820c" stroke="none" /><path d="M 86.13680546590413 115.77377054828092 l -5.902357303369177 6.715799130448222 a29.940904858970626,29.940904858970626 0 0,0 -0.3831508697218797,-0.34261587033080954 l 6.016773199914428 -6.61348773023403" fill="#ff4b07" stroke="none" /><path d="M 85.86807049272751 115.53346607816431 l -2.695074291656198 2.9623587540562326 a25.004871386858728,25.004871386858728 0 0,0 -0.31502593052790717,-0.2915832982325712 l 2.7455299934980726 -2.915657709691284" fill="#ff0100" stroke="none" /><path d="M 85.60350026404147 115.28858382429668 l -4.306985342394703 4.573869179655453 a27.28254741424248,27.28254741424248 0 0,0 -0.33820941655292563,-0.3239969704511843 l 4.384867244812943 -4.499260078898686" fill="#ff2403" stroke="none" /><path d="M 82.78059297857968 112.02048342749411 l -3.3071462139977568 2.3086449032889464 a25.033244025625244,25.033244025625244 0 0,0 -0.24295390729661304,-0.35447701151124344 l 3.346289858109695 -2.251533156707652" fill="#ff0200" stroke="none" /><line stroke="#e1ed5e" stroke-width="0.3" x1="26.387840678322732" x2="22.057713659400548" y1="142.50000000000003" y2="145.00000000000006" /><path d="M 25.521815274538298 143.00000000000003 a86.0,86.0 0 0,1 -11.493303480769221,-40.785679425670985" fill="none" id="id93" stroke="none" /><text fill="#e1ed5e" style="font-size:6.75px; font-family:Arial;" text-anchor="middle"><textPath startOffset="21.40746469413373" xlink:href="#id93">September</textPath></text><path d="M 81.4637452351635 109.86951160357371 l -17.419109762890514 9.274694813479954 a40.734369734420696,40.734369734420696 0 0,0 -0.32333765476757,-0.6200425866846576 l 17.57575548663303 -8.974305983690794" fill="#ffe115" stroke="none" /><path d="M 81.29705330413844 109.54985784667822 l -4.313300037011481 2.202401732377609 a25.843049720998447,25.843049720998447 0 0,0 -0.19835166651923455,-0.396836203552296 l 4.350471616742452 -2.12803367266156" fill="#ff0e01" stroke="none" /><path d="M 81.1358732173502 109.22738970284198 l -18.683440782420938 9.139007125839093 a41.798855995375504,41.798855995375504 0 0,0 -0.30975090411557704,-0.6472602570322457 l 18.837570944496424 -8.816934366741744" fill="#ffef16" stroke="none" /><path d="M 80.9802524753101 108.90220220490708 l -4.683036573003073 2.1918975765441004 a26.17061374791661,26.17061374791661 0 0,0 -0.18695231554596844,-0.40852454898908575 l 4.7199733534040975 -2.111184045340326" fill="#ff1302" stroke="none" /><path d="M 80.5471966667186 107.91128576633889 l -5.602793426705462 2.278607310679836 a27.048416772893344,27.048416772893344 0 0,0 -0.17123106504080693,-0.431614140313338 l 5.641083166712393 -2.182092153152933" fill="#ff2003" stroke="none" /><path d="M 80.05021161711548 106.5578916946017 l -11.879947469366536 3.905174698920723 a33.50534051131751,33.50534051131751 0 0,0 -0.17492226333038824,-0.5479414984905111 l 11.94523444847418 -3.7006641667388203" fill="#ff7e0b" stroke="none" /><path d="M 79.64726062577567 105.17358676015961 l -10.761275861645368 2.735474242388339 a32.103507441398925,32.103507441398925 0 0,0 -0.1311848276690009,-0.5352788638217316 l 10.806648215830661 -2.550339553958508" fill="#ff6b09" stroke="none" /><path d="M 79.56144815229197 104.8234425847677 l -8.645114956600478 2.040223590330108 a29.882596743710522,29.882596743710522 0 0,0 -0.11353841183811171,-0.5002711918016226 l 8.678864229996258 -1.8915180645894594" fill="#ff4a06" stroke="none" /><path d="M 79.48165901384964 104.47187691870673 l -17.08224582285356 3.7229959706028586 a38.48324401675853,38.48324401675853 0 0,0 -0.13513535755715542,-0.6466716054611095 l 17.143638891235085 -3.42920791385634" fill="#ffc312" stroke="none" /><path d="M 79.407916724674 104.11899336999214 l -32.34552502612872 6.470010894486818 a53.98627032858819,53.98627032858819 0 0,0 -0.17397386090444486,-0.9103047546081504 l 32.45182517931532 -5.913803574845354" fill="#7dff26" stroke="none" /><path d="M 79.34024301695615 103.76489593502545 l -23.7676181707095 4.331251771721357 a45.15904417436004,45.15904417436004 0 0,0 -0.13243466558829597,-0.763847957970448 l 23.838467653790033 -3.922610780830316" fill="#e5ff1a" stroke="none" /><path d="M 79.22317932658666 103.0534771498775 l -28.792214078581164 4.231463955206065 a50.10149272375999,50.10149272375999 0 0,0 -0.11775159022317504,-0.8519918489658586 l 28.860610185359555 -3.7365837980401206" fill="#a9ff21" stroke="none" /><path d="M 79.17382384314188 102.69636545807758 l -6.000742973549023 0.7769163169855909 a27.050827645718925,27.050827645718925 0 0,0 -0.055670492180830915,-0.461031536136101 l 6.013195551989516 -0.6737911039260907" fill="#ff2003" stroke="none" /><path d="M 79.13060592940153 102.33845913500099 l -20.19053623821759 2.2623916989207684 a41.31689370415968,41.31689370415968 0 0,0 -0.07292944760488158,-0.7055262493156421 l 20.22639807830414 -1.915460927322195" fill="#ffe815" stroke="none" /><path d="M 79.0935383218832 101.97986365728391 l -15.058688017291063 1.426073411696364 a36.12606261317375,36.12606261317375 0 0,0 -0.053167891503228,-0.6178914919924287 l 15.080949531492031 -1.1673608723282733" fill="#ffa30f" stroke="none" /><path d="M 79.06263194458094 101.62068470465958 l -20.502186035416546 1.5869988640279304 a41.56351617854435,41.56351617854435 0 0,0 -0.04895794049089891,-0.7118377099467054 l 20.52640793707251 -1.2348177299268817" fill="#ffec16" stroke="none" /><path d="M 79.03789590574601 101.26102812881392 l -23.856927046062943 1.4351734891152186 a44.90005629752844,44.90005629752844 0 0,0 -0.03967969896154916,-0.7697755593372851 l 23.878048334481065 -1.0254261364012027" fill="#e8ff1a" stroke="none" /><path d="M 79.00696218219943 100.54070618675478 l -6.261646225008917 0.16127779516793558 a27.2637228526159,27.2637228526159 0 0,0 -0.008034448273734554,-0.4679663325900203 l 6.263492104881318 -0.05376454660886292" fill="#ff2403" stroke="none" /><line stroke="#e1ed5e" stroke-width="0.3" x1="15.003131293944662" x2="10.003315487706104" y1="100.72959589197737" y2="100.7725132973878" /><path d="M 14.003168132696942 100.73817937305945 a86.0,86.0 0 0,1 10.791469493833604,-42.45332614584628" fill="none" id="id94" stroke="none" /><text fill="#e1ed5e" style="font-size:6.75px; font-family:Arial;" text-anchor="middle"><textPath startOffset="22.145653131862435" xlink:href="#id94">October</textPath></text><path d="M 79.00696218219943 99.45929381324524 l -21.568929126199517 -0.5555391040320107 a42.57608229839529,42.57608229839529 0 0,0 0.02509011166145219,-0.7304712253101666 l 21.556214327541216 0.9257165939063158" fill="#fff917" stroke="none" /><path d="M 79.01933749520258 99.09900007780938 l -19.437220481088097 -0.8347178806702533 a40.45513541383717,40.45513541383717 0 0,0 0.03575157198095383,-0.6935709453212412 l 19.420027319650572 1.1682606193682064" fill="#ffdd14" stroke="none" /><path d="M 79.03789590574601 98.7389718711861 l -13.536698881772104 -0.8143341901387467 a34.5611709224904,34.5611709224904 0 0,0 0.04070983171998056,-0.5919120186285717 l 13.52072508888706 1.0465896329216435" fill="#ff8d0d" stroke="none" /><path d="M 79.0935383218832 98.0201363427161 l -10.511231876452516 -0.9954245871866265 a31.55826054183771,31.55826054183771 0 0,0 0.055704248367916105,-0.5388880721390761 l 10.492595235602936 1.1757171816086154" fill="#ff6309" stroke="none" /><path d="M 79.17382384314186 97.30363454192245 l -22.467640090163513 -2.9088858274967526 a43.65516426730414,43.65516426730414 0 0,0 0.10260103510831477,-0.742369979395284 l 22.41439453849999 3.2941441150921036" fill="#f8ff18" stroke="none" /><path d="M 79.22317932658666 96.9465228501225 l -28.92027184164759 -4.250284036465557 a50.23092605076734,50.23092605076734 0 0,0 0.13270175360998088,-0.8520404519909869 l 28.843048595899344 4.746112670387994" fill="#a8ff21" stroke="none" /><path d="M 79.2786578344484 96.59031103205396 l -21.430097240850454 -3.5263143458735264 a42.718286318635265,42.718286318635265 0 0,0 0.12527683139772106,-0.7225634724796273 l 21.3664055919605 3.8936708512737463" fill="#fffa17" stroke="none" /><path d="M 79.34024301695615 96.23510406497455 l -7.171924841558435 -1.3069636155184425 a28.290038396692573,28.290038396692573 0 0,0 0.09116627570401264,-0.4770204776846611 l 7.148432273572263 1.429886658236418" fill="#ff3304" stroke="none" /><path d="M 79.56144815229197 95.17655741523228 l -5.531328393532928 -1.3053784398474106 a26.683274291139046,26.683274291139046 0 0,0 0.1090360841698434,-0.4449044320679188 l 5.508104782846787 1.400138696523447" fill="#ff1b02" stroke="none" /><path d="M 79.64726062577567 94.8264132398404 l -11.652874039105399 -2.9621150125311226 a33.023460347118,33.023460347118 0 0,0 0.14437624000445046,-0.5482200995275059 l 11.600308318296223 3.1617156164314135" fill="#ff780b" stroke="none" /><line stroke="#e1ed5e" stroke-width="0.3" x1="26.387840678322718" x2="22.05771365940052" y1="57.49999999999999" y2="54.99999999999999" /><path d="M 25.521815274538284 56.99999999999999 a86.0,86.0 0 0,1 29.574782752854787,-30.34633250058573" fill="none" id="id95" stroke="none" /><text fill="#e1ed5e" style="font-size:6.75px; font-family:Arial;" text-anchor="middle"><textPath startOffset="21.40746469413373" xlink:href="#id95">November</textPath></text><line stroke="#e1ed5e" stroke-width="0.3" x1="56.869717070023135" x2="54.33264160355391" y1="26.7553504044142" y2="22.446841604673864" /><path d="M 56.362301976729285 25.89364864446614 a86.0,86.0 0 0,1 42.16139366436587,-11.88097634709845" fill="none" id="id96" stroke="none" /><text fill="#e1ed5e" style="font-size:6.75px; font-family:Arial;" text-anchor="middle"><textPath startOffset="22.145653131862474" xlink:href="#id96">December</textPath></text></svg>