<?xml version="1.0" encoding="utf-8" ?>
<svg baseProfile="full" height="200mm" version="1.1" viewBox="0,0,200,200" width="200mm" xmlns="http://www.w3.org/2000/svg" xmlns:ev="http://www.w3.org/2001/xml-events" xmlns:xlink="http://www.w3.org/1999/xlink"><defs /><rect fill="#1a1a1a" height="200" width="200" x="0" y="0" /><text alignment-baseline="middle" fill="#e1ed5e" style="dominant-baseline: central; font-size:9.0px; font-family:Arial;" text-anchor="middle" x="100.0" y="100.0">2019</text><line stroke="#e1ed5e" stroke-width="0.3" x1="100.0" x2="100.0" y1="15.0" y2="10.0" /><path d="M 100.0 14.0 a86.0,86.0 0 0,1 42.46469731375804,11.215312516191453" fill="none" id="id25" stroke="none" /><text fill="#e1ed5e" style="font-size:6.75px; font-family:Arial;" text-anchor="middle"><textPath startOffset="22.20632615414155" xlink:href="#id25">January</textPath></text><path d="M 100.36148047927253 79.00311137660856 l 0.05106748933786718 -2.9662967916312493 a23.966736345634562,23.966736345634562 0 0,0 0.4124257217437819,0.010651739618241488 l -0.10211984627651687 2.964978259870648" fill="#ff0000" stroke="none" /><path d="M 100.72285384407766 79.0124445844662 l 0.20053636136284664 -5.8224328907076845 a26.825885306030603,26.825885306030603 0 0,0 0.46135306702596546,0.01986683354809396 l -0.30073026077814363 5.818118330635396" fill="#ff2b04" stroke="none" /><path d="M 101.08401301168833 79.027996857942 l 0.4506805073843778 -8.719150891195179 a29.730790639063905,29.730790639063905 0 0,0 0.510857027646584,0.030816290997670526 l -0.6006995838705738 8.710101330817203" fill="#ff5507" stroke="none" /><path d="M 102.16513564639614 79.11191278185805 l 0.8831180998904458 -8.519857832065101 a29.565504950495047,29.565504950495047 0 0,0 0.5057578002745654,0.05682778178509351 l -1.0296426036747364 8.503394096809407" fill="#ff5207" stroke="none" /><path d="M 104.66035177308747 79.52364482259891 l 0.8971770298873598 -3.941958979806512 a25.04276727272727,25.04276727272727 0 0,0 0.41949773045026567,0.09928155936949598 l -0.9648984473001491 3.9259315082961472" fill="#ff1001" stroke="none" /><line stroke="#e1ed5e" stroke-width="0.3" x1="143.23703022742887" x2="145.7803849466894" y1="26.81831364943548" y2="22.513508569990506" /><path d="M 143.74570117128098 25.957352633546492 a86.0,86.0 0 0,1 28.547481713284135,27.462654790039103" fill="none" id="id26" stroke="none" /><text fill="#e1ed5e" style="font-size:6.75px; font-family:Arial;" text-anchor="middle"><textPath startOffset="19.985693538727396" xlink:href="#id26">February</textPath></text><path d="M 111.60114157652 82.49532879139004 l 1.7498575296881356 -2.6403160858838115 a24.167533805278655,24.167533805278655 0 0,0 0.34478474646822327,0.23280019990128872 l -1.7950469705629009 2.609803973683853" fill="#ff0300" stroke="none" /><path d="M 112.19680574252982 82.90503203632743 l 3.7153030061088805 -5.207345858047098 a27.396868555201205,27.396868555201205 0 0,0 0.38154012029562867,0.2772051235350539 l -3.804388442758298 5.14262149969537" fill="#ff3304" stroke="none" /><line stroke="#e1ed5e" stroke-width="0.3" x1="172.23445277983987" x2="176.4835382374775" y1="55.19839476539836" y2="52.563006222186495" /><path d="M 173.08426987136738 54.67131705675599 a86.0,86.0 0 0,1 12.851231095245387,41.99856678651699" fill="none" id="id27" stroke="none" /><text fill="#e1ed5e" style="font-size:6.75px; font-family:Arial;" text-anchor="middle"><textPath startOffset="22.20632615414155" xlink:href="#id27">March</textPath></text><line stroke="#e1ed5e" stroke-width="0.3" x1="184.98032266829074" x2="189.97916517819016" y1="98.17113171792111" y2="98.06355123074" /><path d="M 185.9800911702706 98.14961562048488 a86.0,86.0 0 0,1 -9.607161424134198,41.387399972396054" fill="none" id="id28" stroke="none" /><text fill="#e1ed5e" style="font-size:6.75px; font-family:Arial;" text-anchor="middle"><textPath startOffset="21.466115282336823" xlink:href="#id28">April</textPath></text><path d="M 120.99513854157772 99.54816195383933 l 5.7738387513305796 -0.12425924292338161 a26.775175693069308,26.775175693069308 0 0,0 0.005950454970546192,0.460869295100256 l -5.775122213418841 0.024853689762662917" fill="#ff2a04" stroke="none" /><path d="M 120.99824983174949 100.27111621757518 l 5.745657261398236 0.07418431901111931 a26.746136152115213,26.746136152115213 0 0,0 -0.009906179543305143,0.46030123779231563 l -5.743529019169924 -0.17307537259354977" fill="#ff2904" stroke="none" /><path d="M 120.9764740272857 100.99374915477107 l 7.83070561749698 0.3709754593897106 a28.83948807380738,28.83948807380738 0 0,0 -0.027759585357486946,0.495666044392587 l -7.823159681251964 -0.5057132201177209" fill="#ff4806" stroke="none" /><path d="M 120.92983693683757 101.71520430193887 l 11.736439030121625 0.9618035140291691 a32.77578307830783,32.77578307830783 0 0,0 -0.050920150250704545,0.5618996149088402 l -11.718144283593844 -1.1636845174865798" fill="#ff800b" stroke="none" /><path d="M 120.8583938346157 102.4346265915055 l 19.826346416394934 2.314164291866454 a40.960946084608466,40.960946084608466 0 0,0 -0.0877705120775527,0.6996173394352525 l -19.783574395070534 -2.6550993855891014" fill="#ffed16" stroke="none" /><path d="M 120.23288151984713 105.62410040840565 l 17.362638573446535 4.826263752700426 a39.020933384338434,39.020933384338434 0 0,0 -0.18545602225399963,0.6455967430105752 l -17.276989914306434 -5.124417971215583" fill="#ffd413" stroke="none" /><path d="M 120.13307415673323 105.97154293290107 l 22.063544845198933 6.544127551977977 a44.01359634113412,44.01359634113412 0 0,0 -0.22168857802923927,0.7244910998148348 l -21.947629494663563 -6.922945624344869" fill="#ebff1a" stroke="none" /><path d="M 120.02730092923936 106.31721596034902 l 17.948405803114504 5.661469611050691 a39.82013573357336,39.82013573357336 0 0,0 -0.2118198917630946,0.651914593725525 l -17.848293660335163 -5.969583104754012" fill="#ffde14" stroke="none" /><path d="M 119.9155931802556 106.66101706037122 l 7.185855150313265 2.4033983480364887 a28.57712596309631,28.57712596309631 0 0,0 -0.16004438278811348,0.46516389149722787 l -7.143419936581921 -2.5267349426230172" fill="#ff4406" stroke="none" /><path d="M 119.79798401119884 107.00284435728193 l 36.38526817139205 12.870015944961526 a59.59436552565256,59.59436552565256 0 0,0 -0.35040277729545666,0.9641579511124919 l -36.15834113309136 -13.494421693080149" fill="#3cff2e" stroke="none" /><path d="M 119.54520255179757 107.68017299344265 l 13.468468454565267 5.2923558818925125 a35.47095965346535,35.47095965346535 0 0,0 -0.22819209137927035,0.5663540569061423 l -13.375373748928604 -5.523409306641469" fill="#ffa50f" stroke="none" /><path d="M 119.41010516605496 108.01547362559984 l 22.28300007293528 9.201846041319188 a45.10821567056706,45.10821567056706 0 0,0 -0.3025451389221469,0.7151273380226922 l -22.121303952820824 -9.584047905008044" fill="#deff1b" stroke="none" /><path d="M 119.26925614724726 108.34839909993367 l 15.702376174025146 6.803049485476812 a38.11274670567057,38.11274670567057 0 0,0 -0.26598870548070624,0.5997343118915084 l -15.582946383813166 -7.072332133861009" fill="#ffc812" stroke="none" /><path d="M 118.64920377521936 109.65438752849418 l 55.811093614656 28.89248960113411 a83.84627376237623,83.84627376237623 0 0,0 -0.6745532212782106,1.2760004826396598 l -55.3054878851529 -29.848905098859902" fill="#4dd3ff" stroke="none" /><line stroke="#e1ed5e" stroke-width="0.3" x1="174.80103733775053" x2="179.2010983576182" y1="140.37084112569926" y2="142.7455964860345" /><path d="M 175.68104954172406 140.8457921977663 a86.0,86.0 0 0,1 -30.038265399797805,32.042727171017184" fill="none" id="id29" stroke="none" /><text fill="#e1ed5e" style="font-size:6.75px; font-family:Arial;" text-anchor="middle"><textPath startOffset="22.206326154141568" xlink:href="#id29">May</textPath></text><path d="M 117.35343817320211 111.8261652097733 l 3.8845848633812134 2.6472991638436754 a25.700871453645362,25.700871453645362 0 0,0 -0.2522835393617621,0.3634332546461041 l -3.838440416857315 -2.713773680676799" fill="#ff1a02" stroke="none" /><path d="M 116.498646956653 112.99209946851258 l 6.01948872186773 4.740133929137689 a28.661795751575156,28.661795751575156 0 0,0 -0.3085675537034966,0.38498546767545266 l -5.93700325610938 -4.843047230391392" fill="#ff4506" stroke="none" /><path d="M 116.0416608686014 113.55231037782055 l 6.9247126270964525 5.850133322747789 a30.06508162466247,30.06508162466247 0 0,0 -0.3373838897722691,0.3924536851856151 l -6.822986227753405 -5.968464107094932" fill="#ff5908" stroke="none" /><path d="M 115.80600337817218 113.82643327865902 l 16.67846303882592 14.58962464321417 a43.15915784878488,43.15915784878488 0 0,0 -0.49394864978980507,0.5549565443525303 l -16.424855539387774 -14.874555357307566" fill="#f6ff19" stroke="none" /><path d="M 115.56566222782051 114.09645910891815 l 17.005869241040845 15.400728658976368 a43.94301706120612,43.94301706120612 0 0,0 -0.5125714225070339,0.5562950450459611 l -16.73825141053809 -15.691174958823664" fill="#ecff1a" stroke="none" /><path d="M 115.07121518719521 114.62390073753431 l 10.601399341847928 10.286749258670627 a35.77182718271827,35.77182718271827 0 0,0 -0.43259956533069205,0.4382210757350064 l -10.4227591514617 -10.467710828386297" fill="#ffa90f" stroke="none" /><path d="M 114.81725581225074 114.88116024355365 l 11.090782192999027 11.13861494541477 a36.71859384788479,36.71859384788479 0 0,0 -0.4517262128235669,0.44210917501264524 l -10.897406027799667 -11.327874223349987" fill="#ffb510" stroke="none" /><path d="M 114.0293411484842 115.62618273729858 l 3.8598079616564456 4.299137350882665 a26.777603262826283,26.777603262826283 0 0,0 -0.3456321016772653,0.30498014377480465 l -3.7852335070725927 -4.364940636429759" fill="#ff2a04" stroke="none" /><path d="M 112.92097659922987 116.55440617244103 l 2.5479677973421793 3.264466389794127 a25.141120706570657,25.141120706570657 0 0,0 -0.34344120305678466,0.2633360694197515 l -2.491397865791901 -3.3078418010412496" fill="#ff1202" stroke="none" /><path d="M 112.63410532772338 116.77436683061366 l 6.147480340418002 8.162041366544411 a31.218142385238522,31.218142385238522 0 0,0 -0.4320219701315983,0.31959952531674374 l -6.006073399867839 -8.266650840600924" fill="#ff6a09" stroke="none" /><path d="M 112.34349029814194 116.9893568818739 l 18.51523544721291 25.48403532281084 a52.5,52.5 0 0,0 -0.7356816803777886,0.5248893453894519 l -18.073826438986234 -25.798968930044513" fill="#88ff25" stroke="none" /><path d="M 112.04921762599082 117.19931262002967 l 10.495168752367515 14.981029804173046 a39.29152320432043,39.29152320432043 0 0,0 -0.5572718894803366,0.3832966870609605 l -10.235739978264295 -15.1594672805991" fill="#ffd714" stroke="none" /><path d="M 111.7513745106137 117.40417183066458 l 6.270417881917901 9.286694945208728 a32.20539349684968,32.20539349684968 0 0,0 -0.4621095189350586,0.3062609910882698 l -6.109633664242878 -9.393253957388316" fill="#ff780b" stroke="none" /><path d="M 111.1453310114006 117.79835938074945 l 33.4359930342018 53.39507814224836 a84.0,84.0 0 0,0 -1.2320832002707651,0.7568461326864875 l -32.51193063399873 -53.96271274176323" fill="#4dd2ff" stroke="none" /><line stroke="#e1ed5e" stroke-width="0.3" x1="143.8653032363475" x2="146.44561519142675" y1="172.8068346515853" y2="177.08958963109032" /><path d="M 144.38136562736335 173.6633856474863 a86.0,86.0 0 0,1 -40.68145358897372,12.25698825130547" fill="none" id="id30" stroke="none" /><text fill="#e1ed5e" style="font-size:6.75px; font-family:Arial;" text-anchor="middle"><textPath startOffset="21.466115282336833" xlink:href="#id30">June</textPath></text><path d="M 106.91757812671514 119.82793768551818 l 1.121873674278564 3.2156400545318635 a24.405721876687668,24.405721876687668 0 0,0 -0.3978484422812501,0.13497179244541146 l -1.066355499060087 -3.234474833875398" fill="#ff0701" stroke="none" /><path d="M 104.83641907484287 120.43548508189849 l 0.7174497941683379 3.031464879046811 a24.115206818181818,24.115206818181818 0 0,0 -0.40476783317299814,0.09212384101924959 l -0.6651618116024777 -3.043365453643745" fill="#ff0200" stroke="none" /><path d="M 104.48393922423573 120.51570834832081 l 3.236050139762329 14.806146459137763 a36.15565879387938,36.15565879387938 0 0,0 -0.6091514666152629,0.1276536124979997 l -2.980707211717688 -14.859656052362302" fill="#ffae10" stroke="none" /><path d="M 104.13013068566511 120.58985236759428 l 3.303020677332523 16.466478494114753 a37.79448896489649,37.79448896489649 0 0,0 -0.6389651225357427,0.1224591864837839 l -3.019087940225076 -16.520894878947004" fill="#ffc412" stroke="none" /><path d="M 101.26447882468166 120.96189622390904 l 0.8894601273525826 14.745024211507566 a35.77182718271827,35.77182718271827 0 0,0 -0.614955067981539,0.03178615274755438 l -0.6355169909575641 -14.758150171017322" fill="#ffa90f" stroke="none" /><line stroke="#e1ed5e" stroke-width="0.3" x1="102.19456741930631" x2="102.32365962044197" y1="184.97166512339345" y2="189.96999836594603" /><path d="M 102.22038585953345 185.97133177190398 a86.0,86.0 0 0,1 -42.740103519485714,-10.115201625700543" fill="none" id="id31" stroke="none" /><text fill="#e1ed5e" style="font-size:6.75px; font-family:Arial;" text-anchor="middle"><textPath startOffset="22.20632615414155" xlink:href="#id31">July</textPath></text><path d="M 94.81253420990036 120.34920634021253 l -1.0717098177778228 4.20406516422995 a25.338516548154814,25.338516548154814 0 0,0 -0.42171684278854005,-0.11137925110519234 l 1.1439171033778521 -4.184994563821175" fill="#ff1502" stroke="none" /><line stroke="#e1ed5e" stroke-width="0.3" x1="58.666819895761336" x2="56.23545636021788" y1="174.27360380694188" y2="178.64263932499728" /><path d="M 58.180547188652646 175.14741091055294 a86.0,86.0 0 0,1 -31.652253787137756,-30.449443065178592" fill="none" id="id32" stroke="none" /><text fill="#e1ed5e" style="font-size:6.75px; font-family:Arial;" text-anchor="middle"><textPath startOffset="22.20632615414155" xlink:href="#id32">August</textPath></text><path d="M 86.24171649860922 115.8653595955263 l -8.261676613897484 9.526949370405381 a33.61023650765076,33.61023650765076 0 0,0 -0.43382436314366296,-0.3827995605804871 l 8.424443329947733 -9.383326668052606" fill="#ff8b0c" stroke="none" /><path d="M 82.05923443525364 110.91462005526583 l -7.775408298312668 4.7303236333127785 a30.1012601260126,30.1012601260126 0 0,0 -0.2654918590914183,-0.4449796269004213 l 7.855681033102319 -4.595781912526246" fill="#ff5a08" stroke="none" /><line stroke="#e1ed5e" stroke-width="0.3" x1="26.63291911575756" x2="22.317208475507996" y1="142.92168965132927" y2="145.44649492493687" /><path d="M 25.769776987707644 143.4266507060508 a86.0,86.0 0 0,1 -11.730757126820373,-40.83630448921669" fill="none" id="id33" stroke="none" /><text fill="#e1ed5e" style="font-size:6.75px; font-family:Arial;" text-anchor="middle"><textPath startOffset="21.46611528233685" xlink:href="#id33">September</textPath></text><path d="M 81.87401531095188 110.60418214915194 l -7.713941787815431 4.512860691942096 a29.93704702520252,29.93704702520252 0 0,0 -0.2563865785035756,-0.4470316105100057 l 7.790480362471384 -4.3794092355737835" fill="#ff5808" stroke="none" /><path d="M 81.51974371655577 109.97397251340807 l -4.601285901535278 2.4833583692970116 a26.228661467146715,26.228661467146715 0 0,0 -0.21101269369014367,-0.39915649425186606 l 4.643351103450309 -2.4037868599590193" fill="#ff2203" stroke="none" /><path d="M 81.02952815118164 109.00673069616217 l -8.44932282999352 4.011538347657208 a30.35326126012601,30.35326126012601 0 0,0 -0.22002556311826318,-0.47391548856372856 l 8.517123009951609 -3.8655027918146523" fill="#ff5e08" stroke="none" /><path d="M 79.10278846688536 102.07522291339032 l -20.158091080123153 2.001823661180383 a41.25724398739874,41.25724398739874 0 0,0 -0.06409686864686143,-0.7073036044122053 l 20.18956254504709 -1.6545386682196113" fill="#fff016" stroke="none" /><path d="M 79.07016306316243 101.71520430193888 l -14.722473056830387 1.2065095967283843 a35.77182718271827,35.77182718271827 0 0,0 -0.045010227477718594,-0.6141287931412065 l 14.74105984297244 -0.9529076670904171" fill="#ffa90f" stroke="none" /><path d="M 79.0235259727143 100.99374915477108 l -27.156195197689488 1.2865101155417742 a48.18665198019802,48.18665198019802 0 0,0 -0.03211954060782051,-0.8288626231174082 l 27.17431687114851 -0.8188702454103692" fill="#b9ff1f" stroke="none" /><path d="M 79.0095281055655 100.63252640178507 l -41.02238243244179 1.2361675374970291 a62.04100352835284,62.04100352835284 0 0,0 -0.022978620781083793,-1.0677262149403461 l 41.03758311590788 -0.5298515067665541" fill="#31ff3e" stroke="none" /><line stroke="#e1ed5e" stroke-width="0.3" x1="15.007084014347285" x2="10.007500721073583" y1="101.09737516637583" y2="101.16192664675087" /><path d="M 14.007167355692545 101.11028546245083 a86.0,86.0 0 0,1 10.666146001902534,-42.60595125391555" fill="none" id="id34" stroke="none" /><text fill="#e1ed5e" style="font-size:6.75px; font-family:Arial;" text-anchor="middle"><textPath startOffset="22.20632615414155" xlink:href="#id34">October</textPath></text><path d="M 79.00175016825051 100.2711162175752 l -14.770596078768882 0.19070866249776972 a35.77182718271827,35.77182718271827 0 0,0 -0.002650015643218314,-0.6157703082804179 l 14.771690391701604 0.06357112398632354" fill="#ffa90f" stroke="none" /><path d="M 79.00019446554 99.90962569577889 l -20.42328639978136 -0.08789320907091777 a41.42347552655265,41.42347552655265 0 0,0 0.009205860259138346,-0.7130040222841991 l 20.418747532404506 0.43943348941558885" fill="#fff216" stroke="none" /><path d="M 79.01574976396665 99.18683210126434 l -26.0312825645514 -1.0087471844984854 a47.050820387038705,47.050820387038705 0 0,0 0.03832713173695074,-0.8090251745731128 l 26.01006182458095 1.4566834656946075" fill="#c6ff1e" stroke="none" /><path d="M 79.03285615573316 98.82574320788736 l -5.7660813768137045 -0.32292716026981005 a26.77511700270027,26.77511700270027 0 0,0 0.029732376394793255,-0.45994670296615187 l 5.759668409414498 0.42213292748897374" fill="#ff2a04" stroke="none" /><path d="M 79.08570108090925 98.10471618934814 l -14.711543299072392 -1.3331811863406158 a35.77182718271827,35.77182718271827 0 0,0 0.06085107078882289,-0.6127619785255316 l 14.686415102601341 1.5862186955705777" fill="#ffa90f" stroke="none" /><path d="M 79.16333360222342 97.38593545837743 l -8.768412059303875 -1.1000413700057023 a29.837145526552657,29.837145526552657 0 0,0 0.06831853969572886,-0.5090524746338723 l 8.748177520550312 1.250812186704234" fill="#ff5608" stroke="none" /><path d="M 79.21141760316559 97.0276538004421 l -17.429851037489883 -2.4921156479641646 a38.60711071107111,38.60711071107111 0 0,0 0.09972420130533323,-0.6570578874339802 l 17.384370942745246 2.791772647790237" fill="#ffce13" stroke="none" /><path d="M 79.26566170972629 96.67025291283419 l -17.487941481979217 -2.8084051390953624 a38.71200826282629,38.71200826282629 0 0,0 0.11132124360980117,-0.6570242813193516 l 17.437008376849192 3.109015208730542" fill="#ffd013" stroke="none" /><path d="M 79.32604984820605 96.31383870115002 l -8.513394830667385 -1.5179366456928665 a29.647659984248424,29.647659984248424 0 0,0 0.0939044115056594,-0.5016411211590048 l 8.486004695251864 1.664255844314444" fill="#ff5407" stroke="none" /><path d="M 79.3925641242962 95.95851677861259 l -16.929485547780452 -3.320172009791034 a38.25198606210621,38.25198606210621 0 0,0 0.1322802933561889,-0.6450456887947636 l 16.869825958509267 3.6110933547492006" fill="#ffca12" stroke="none" /><path d="M 79.62865764111835 94.90015583598534 l -7.623490806309861 -1.9084954939667054 a28.85875099009901,28.85875099009901 0 0,0 0.12478478321630428,-0.4808466726490909 l 7.589509691223249 2.03943859216466" fill="#ff4806" stroke="none" /><path d="M 79.71946130924805 94.55025226153421 l -5.673287933221589 -1.524515130253339 a26.874550396039602,26.874550396039602 0 0,0 0.12389581016274677,-0.44571914898278925 l 5.646205352492482 1.6219455826550708" fill="#ff2b04" stroke="none" /><path d="M 79.91906864156998 93.8553929516997 l -13.82182145472561 -4.229368649049324 a35.45442172817282,35.45442172817282 0 0,0 0.18359399710039215,-0.5820431423921568 l 13.746971973857015 4.4666619578678946" fill="#ffa40f" stroke="none" /><path d="M 80.14247586403 93.16781622104843 l -13.46716285469568 -4.633514781315734 a35.241977902790275,35.241977902790275 0 0,0 0.20230056487381604,-0.5719309389853262 l 13.385409209012053 4.864643346727671" fill="#ffa10e" stroke="none" /><line stroke="#e1ed5e" stroke-width="0.3" x1="26.266209847984243" x2="21.928928074336255" y1="57.711370442889674" y2="55.22380399835377" /><path d="M 25.398753493254645 57.213857153982495 a86.0,86.0 0 0,1 29.58750427330803,-30.492523968695096" fill="none" id="id35" stroke="none" /><text fill="#e1ed5e" style="font-size:6.75px; font-family:Arial;" text-anchor="middle"><textPath startOffset="21.46611528233685" xlink:href="#id35">November</textPath></text><line stroke="#e1ed5e" stroke-width="0.3" x1="56.762969772571076" x2="54.21961505331055" y1="26.818313649435495" y2="22.513508569990535" /><path d="M 56.25429882871897 25.957352633546506 a86.0,86.0 0 0,1 42.265352541879196,-11.944610805530505" fill="none" id="id36" stroke="none" /><text fill="#e1ed5e" style="font-size:6.75px; font-family:Arial;" text-anchor="middle"><textPath startOffset="22.20632615414155" xlink:href="#id36">December</textPath></text><path d="M 89.3179101791058 81.91981866633112 l -1.748225820369538 -2.9589940146971476 a24.436850171017102,24.436850171017102 0 0,0 0.3639965038928357,-0.21085026940336254 l 1.697032584011382 2.9886484414905574" fill="#ff0701" stroke="none" /><path d="M 91.56875222667455 80.76684994638697 l -3.6540466272333063 -8.335519127645968 a30.1012601260126,30.1012601260126 0 0,0 0.47633988813585426,-0.20394388093543028 l 3.5100229813071437 8.397182536544184" fill="#ff5a08" stroke="none" /><path d="M 91.90106846888425 80.62456947434976 l -3.5100229813071437 -8.397182536544184 a30.1012601260126,30.1012601260126 0 0,0 0.47977987189964366,-0.1957142563030186 l 3.3649592398191195 8.45635767903078" fill="#ff5a08" stroke="none" /></svg>